<svg width="25" height="25" viewBox="0 0 25 25" fill="none" xmlns="http://www.w3.org/2000/svg">
<path d="M0.5 1.00006C2 0.833394 5.6 2.114 6 8.514C6.5 16.514 10 19.014 12.5 19.014C14.5 19.014 19.6667 19.014 22 19.014" stroke="#28292F" stroke-linecap="round" stroke-linejoin="round"/>
<path d="M5 4.51367L23.5 4.99982L22.6878 11.9034C22.5781 12.8358 21.8347 13.5663 20.9005 13.6598L7.5 14.9998" stroke="#28292F"/>
<circle cx="7.5" cy="23.5" r="1.5" fill="#28292F"/>
<path d="M22.1826 23.5C22.1826 24.3284 21.5111 25 20.6826 25C19.8542 25 19.1826 24.3284 19.1826 23.5C19.1826 22.6716 19.8542 22 20.6826 22C21.5111 22 22.1826 22.6716 22.1826 23.5Z" fill="#28292F"/>
</svg>
