<svg width="9" height="18" viewBox="0 0 9 18" fill="none" xmlns="http://www.w3.org/2000/svg">
<path opacity="0.5" fill-rule="evenodd" clip-rule="evenodd" d="M8.66199 0.00323436L6.50229 0C4.07711 0 2.50893 1.73847 2.50893 4.42945V6.47195H0.338762C0.151807 6.47195 0 6.63609 0 6.83905V9.79848C0 10.0006 0.151807 10.1648 0.338762 10.1648H2.50893V17.6337C2.50893 17.8359 2.66224 18 2.84994 18H5.68118C5.86888 18 6.02069 17.8359 6.02069 17.6337V10.1648H8.55804C8.74574 10.1648 8.89755 10.0006 8.89755 9.79848L8.89904 6.83905C8.89904 6.74202 8.86315 6.64903 8.79958 6.57949C8.73602 6.51076 8.64927 6.47195 8.55879 6.47195H6.02069V4.74076C6.02069 3.90872 6.20391 3.48583 7.20673 3.48583L8.66049 3.48502C8.84819 3.48502 9 3.32088 9 3.11873V0.371142C9 0.167378 8.84819 0.00404294 8.66199 0.00323436Z" fill="#28292F"/>
</svg>
