<svg width="25" height="25" viewBox="0 0 25 25" fill="none" xmlns="http://www.w3.org/2000/svg">
<path d="M12.5 22.2726L2.38422 11.5837C1.39699 10.4473 0.661506 9.23268 0.523472 7.98656C0.389356 6.77583 0.809752 5.43723 2.35381 4.00527L2.35383 4.0053L2.35829 4.00106C3.33497 3.07268 4.28946 2.64698 5.18982 2.53278C6.09552 2.4179 6.99185 2.61263 7.85507 3.00115C9.59897 3.78606 11.1176 5.31892 12.1313 6.42568C12.226 6.5291 12.3598 6.58798 12.5 6.58798C12.6402 6.58798 12.774 6.5291 12.8687 6.42568C13.8824 5.31892 15.401 3.78606 17.1449 3.00115C18.0082 2.61263 18.9045 2.4179 19.8102 2.53278C20.7105 2.64698 21.665 3.07268 22.6417 4.00106L22.6417 4.00109L22.6462 4.00527C24.1902 5.43723 24.6106 6.77583 24.4765 7.98656C24.3385 9.23268 23.603 10.4473 22.6158 11.5837L12.5 22.2726Z" stroke="#28292F" stroke-linecap="round" stroke-linejoin="round"/>
</svg>
