<svg width="18" height="18" viewBox="0 0 18 18" fill="none" xmlns="http://www.w3.org/2000/svg">
<path opacity="0.5" fill-rule="evenodd" clip-rule="evenodd" d="M16.3125 12.9975C16.3125 14.8324 14.8091 16.3248 12.9608 16.3248H4.93994C3.09163 16.3248 1.58824 14.8324 1.58824 12.9975V5.03536C1.58824 3.20054 3.09163 1.70799 4.93994 1.70799H12.9608C14.8091 1.70799 16.3125 3.20054 16.3125 5.03536V12.9975ZM12.9608 0.131348H4.93994C2.21585 0.131348 0 2.33116 0 5.03536V12.9975C0 15.7017 2.21585 17.9014 4.93994 17.9014H12.9608C15.6849 17.9014 17.9007 15.7012 17.9007 12.9975V5.03536C17.9007 2.33116 15.6849 0.131348 12.9608 0.131348ZM8.95041 12.0183C7.28303 12.0183 5.92588 10.6721 5.92588 9.01637C5.92588 7.36129 7.2825 6.01404 8.95041 6.01404C10.6183 6.01404 11.9749 7.36129 11.9749 9.01637C11.9749 10.6721 10.6178 12.0183 8.95041 12.0183ZM8.95041 4.43793C6.40672 4.43793 4.33765 6.4919 4.33765 9.01637C4.33765 11.5415 6.40672 13.5955 8.95041 13.5955C11.4936 13.5955 13.5632 11.5415 13.5632 9.01637C13.5632 6.4919 11.4936 4.43793 8.95041 4.43793ZM12.9338 3.43917C13.15 3.2237 13.4503 3.10098 13.7564 3.10098C14.0634 3.10098 14.3639 3.2237 14.58 3.43917C14.7971 3.65373 14.9212 3.95237 14.9212 4.25732C14.9212 4.56056 14.7971 4.85933 14.58 5.07481C14.3628 5.28936 14.0634 5.41313 13.7564 5.41313C13.4503 5.41313 13.1494 5.28936 12.9338 5.07481C12.7168 4.85933 12.5916 4.56108 12.5916 4.25732C12.5916 3.95237 12.7162 3.65373 12.9338 3.43917Z" fill="#28292F"/>
</svg>
