<svg width="76" height="15" viewBox="0 0 76 15" fill="none" xmlns="http://www.w3.org/2000/svg">
<path opacity="0.3" fill-rule="evenodd" clip-rule="evenodd" d="M67.062 7.07435L61.8045 1.21222L63.2628 0L69.6064 7.07435L63.2628 14.1483L61.8045 12.9374L67.062 7.07435ZM73.4556 7.07436L68.1984 1.21222L69.6562 0L76 7.07436L69.6562 14.1483L68.1984 12.9374L73.4556 7.07436ZM6.56246 12.5C6.56246 12.6253 6.55596 12.7303 6.54297 12.8148C6.52975 12.8995 6.50864 12.9715 6.47941 13.031C6.44994 13.0908 6.41422 13.1345 6.37177 13.1625C6.32932 13.1909 6.27898 13.2049 6.22029 13.2049H0.626111C0.476021 13.2049 0.334282 13.1565 0.200662 13.0593C0.06681 12.9621 0 12.7914 0 12.547V1.28758C0 1.23742 0.0129908 1.1935 0.0392045 1.15605C0.0651861 1.11837 0.110886 1.08872 0.176072 1.06665C0.241258 1.04481 0.329178 1.02608 0.440064 1.01025C0.55095 0.994869 0.68457 0.986843 0.841156 0.986843C1.00401 0.986843 1.13925 0.994869 1.24689 1.01025C1.35453 1.02608 1.44082 1.04481 1.50624 1.06665C1.57119 1.08872 1.61713 1.11837 1.64311 1.15605C1.66909 1.19372 1.68231 1.23742 1.68231 1.28758V11.8047H6.22029C6.27898 11.8047 6.32932 11.8187 6.37177 11.847C6.41399 11.8753 6.44994 11.9159 6.47941 11.969C6.50887 12.0222 6.52998 12.0927 6.54297 12.1805C6.55596 12.2684 6.56246 12.3747 6.56246 12.5ZM10.0634 13.0921C10.0894 13.0546 10.1026 13.011 10.1026 12.9606V1.28758C10.1026 1.23742 10.0894 1.19372 10.0634 1.15605C10.0374 1.11837 9.99148 1.08872 9.92653 1.06665C9.86111 1.04481 9.77481 1.02608 9.66718 1.01025C9.55954 0.994869 9.42429 0.986843 9.26145 0.986843C9.11112 0.986843 8.98261 0.994869 8.87497 1.01025C8.76756 1.02608 8.67941 1.04481 8.61098 1.06665C8.54254 1.08872 8.49383 1.11837 8.46436 1.15605C8.4349 1.1935 8.42029 1.23742 8.42029 1.28758V12.9606C8.42029 13.011 8.43328 13.0544 8.45949 13.0921C8.48547 13.1298 8.53117 13.1594 8.59636 13.1815C8.66155 13.2033 8.74947 13.2221 8.86035 13.2379C8.97101 13.2533 9.10486 13.2613 9.26145 13.2613C9.42429 13.2613 9.55954 13.2533 9.66718 13.2379C9.77505 13.2221 9.86111 13.2036 9.92653 13.1815C9.99148 13.1594 10.0372 13.1298 10.0634 13.0921ZM25.6236 14.2766C25.6236 14.4206 25.6155 14.5412 25.5992 14.6382C25.5828 14.7354 25.5584 14.8105 25.5259 14.8638C25.4932 14.9168 25.4575 14.9532 25.4183 14.9719C25.3791 14.9906 25.3399 15.0002 25.3009 15.0002C25.1705 15.0002 24.9601 14.9485 24.6702 14.8453C24.3802 14.7421 24.0459 14.5914 23.6678 14.3943C23.2897 14.1968 22.8853 13.9571 22.455 13.6751C22.0247 13.3931 21.6073 13.0643 21.2032 12.6882C20.8838 12.8761 20.4795 13.0391 19.9905 13.1768C19.5014 13.3146 18.9343 13.3837 18.2887 13.3837C17.3366 13.3837 16.5136 13.2489 15.8192 12.9796C15.1249 12.7103 14.551 12.3154 14.098 11.7953C13.6447 11.2752 13.3074 10.6285 13.0856 9.8547C12.8638 9.0809 12.7532 8.19274 12.7532 7.19021C12.7532 6.22536 12.8738 5.3528 13.1151 4.57275C13.3563 3.79271 13.7182 3.12859 14.2007 2.58018C14.6832 2.03199 15.2864 1.60908 16.0099 1.31147C16.7337 1.01385 17.5779 0.864933 18.5429 0.864933C19.449 0.864933 20.2463 0.999808 20.9341 1.26911C21.622 1.53864 22.1989 1.93189 22.6652 2.44865C23.1312 2.96563 23.4817 3.60322 23.7165 4.36119C23.9513 5.11939 24.0686 5.99038 24.0686 6.97396C24.0686 7.48158 24.0376 7.96713 23.9756 8.43083C23.9137 8.89475 23.8158 9.33326 23.6824 9.7468C23.5485 10.1603 23.3806 10.5425 23.1788 10.8933C22.9765 11.2445 22.7385 11.5606 22.4647 11.8426C22.9405 12.2185 23.3579 12.5116 23.7165 12.7214C24.0749 12.9314 24.3718 13.0897 24.6064 13.196C24.8411 13.3026 25.0235 13.3793 25.1541 13.4261C25.2842 13.4731 25.3821 13.5264 25.4475 13.5859C25.5125 13.6452 25.5584 13.7299 25.5844 13.8396C25.6104 13.9491 25.6236 14.0949 25.6236 14.2766ZM22.2984 7.08677C22.2984 6.39746 22.2349 5.75853 22.1077 5.16932C21.9806 4.58033 21.7686 4.06826 21.4719 3.63265C21.1752 3.19726 20.779 2.85728 20.2837 2.61295C19.7882 2.36862 19.1753 2.24645 18.445 2.24645C17.7147 2.24645 17.1019 2.37642 16.6063 2.63658C16.1108 2.89674 15.7081 3.24742 15.3984 3.68927C15.0887 4.1309 14.867 4.6432 14.7333 5.22595C14.5997 5.80869 14.5327 6.42577 14.5327 7.07763C14.5327 7.79191 14.5946 8.44822 14.7185 9.04657C14.8424 9.64492 15.0509 10.1637 15.3444 10.6022C15.6378 11.0409 16.0306 11.3809 16.5228 11.6219C17.0151 11.8631 17.6329 11.9837 18.3761 11.9837C19.1129 11.9837 19.7323 11.8522 20.2343 11.5891C20.7363 11.3261 21.1404 10.9705 21.4471 10.5224C21.7535 10.0745 21.9718 9.55419 22.1024 8.9623C22.2332 8.36975 22.2984 7.74464 22.2984 7.08677ZM34.4061 6.25027C34.6147 5.7616 34.7191 5.2134 34.7191 4.60547C34.7191 4.14823 34.652 3.73001 34.5184 3.35058C34.3848 2.97159 34.1941 2.63786 33.9464 2.34961C33.6984 2.06158 33.3968 1.81858 33.0416 1.62129C32.6863 1.42399 32.3374 1.28934 31.9952 1.21711C31.6528 1.1451 31.3563 1.09828 31.1053 1.07621C30.8543 1.05414 30.5919 1.04322 30.318 1.04322H27.6089C27.4391 1.04322 27.286 1.0965 27.1491 1.20306C27.0123 1.30963 26.9438 1.48819 26.9438 1.73877V12.9608C26.9438 13.0112 26.9568 13.0546 26.9831 13.0923C27.009 13.13 27.0547 13.1596 27.1199 13.1817C27.1851 13.2035 27.2716 13.2223 27.3793 13.2381C27.4869 13.2535 27.6222 13.2615 27.7852 13.2615C27.9481 13.2615 28.0833 13.2535 28.191 13.2381C28.2986 13.2223 28.3833 13.2038 28.4452 13.1817C28.5072 13.1596 28.5526 13.13 28.5821 13.0923C28.6115 13.0548 28.6262 13.0112 28.6262 12.9608V8.58103H30.064C30.8462 8.58103 31.5194 8.48695 32.0833 8.29902C32.6473 8.11109 33.1235 7.8449 33.5114 7.50025C33.8993 7.15582 34.1974 6.73916 34.4061 6.25027ZM32.6603 3.49615C32.8526 3.82854 32.9489 4.24208 32.9489 4.737C32.9489 5.10038 32.8902 5.43723 32.773 5.74733C32.6554 6.05743 32.4828 6.32383 32.2545 6.5461C32.0263 6.76881 31.7442 6.9427 31.4085 7.06776C31.0726 7.19327 30.6506 7.25569 30.1419 7.25569H28.6259V2.37792H30.1809C30.4678 2.37792 30.7629 2.39999 31.0661 2.44369C31.3693 2.4876 31.6628 2.59082 31.9462 2.75378C32.23 2.91675 32.468 3.1642 32.6603 3.49615ZM46.7676 12.6318C46.8196 12.7698 46.8474 12.8808 46.8507 12.9655C46.8537 13.0502 46.8293 13.1144 46.7774 13.1583C46.7252 13.202 46.6389 13.2301 46.5183 13.2428C46.3974 13.2553 46.2362 13.2618 46.0341 13.2618C45.8321 13.2618 45.6706 13.2571 45.55 13.2477C45.4294 13.2384 45.338 13.2226 45.2762 13.2007C45.2141 13.1789 45.1686 13.149 45.1394 13.1115C45.1099 13.0739 45.0823 13.0268 45.0563 12.9706L43.9707 10.0101H38.7089L37.6722 12.933C37.6525 12.9894 37.6265 13.0382 37.5938 13.0785C37.5611 13.1193 37.514 13.1539 37.4521 13.182C37.3901 13.2101 37.302 13.2304 37.1881 13.2431C37.0739 13.2555 36.9255 13.262 36.7431 13.262C36.5541 13.262 36.3991 13.254 36.2787 13.2386C36.1581 13.2228 36.0734 13.1931 36.0245 13.1492C35.9757 13.1055 35.9525 13.0411 35.956 12.9566C35.9593 12.8719 35.9869 12.7606 36.0391 12.6229L40.2836 1.32574C40.3096 1.25685 40.3439 1.20045 40.3861 1.15653C40.4284 1.11261 40.4905 1.07806 40.5719 1.05309C40.6534 1.02812 40.7578 1.01073 40.8849 1.00137C41.0118 0.992007 41.1735 0.987325 41.369 0.987325C41.5776 0.987325 41.7504 0.992007 41.8875 1.00137C42.0244 1.01073 42.1353 1.02812 42.2199 1.05309C42.3046 1.07828 42.3698 1.11417 42.4155 1.16121C42.461 1.20825 42.4969 1.26621 42.5231 1.3351L46.7676 12.6318ZM41.3201 2.65977H41.3103L39.1295 8.72176H43.5304L41.3201 2.65977ZM52.9095 12.9606V8.47761L56.4889 1.61641C56.5606 1.47863 56.6046 1.36917 56.6209 1.28758C56.6371 1.20621 56.6195 1.14357 56.5671 1.09965C56.5146 1.05573 56.4219 1.02608 56.2882 1.01025C56.1546 0.994869 55.9704 0.986843 55.7357 0.986843C55.5661 0.986843 55.426 0.993308 55.3151 1.00579C55.2042 1.0185 55.1179 1.03567 55.056 1.05751C54.9938 1.07958 54.9451 1.11258 54.9093 1.15627C54.8734 1.20019 54.8458 1.25347 54.8261 1.31612L53.0658 4.8311C52.903 5.17575 52.7422 5.52509 52.5835 5.87888C52.4244 6.23312 52.2706 6.58848 52.1217 6.94562H52.1022C51.9335 6.57599 51.7681 6.20949 51.6062 5.84611C51.4443 5.48273 51.2819 5.13496 51.1195 4.80279L49.369 1.30653C49.3363 1.24411 49.3022 1.19239 49.2662 1.15159C49.2305 1.11079 49.1767 1.07958 49.105 1.05751C49.0331 1.03567 48.937 1.0185 48.8164 1.00579C48.6956 0.993308 48.5376 0.986843 48.342 0.986843C48.1267 0.986843 47.9558 0.993308 47.8286 1.00579C47.7015 1.0185 47.6134 1.04659 47.5647 1.09028C47.5157 1.1342 47.4992 1.19685 47.5157 1.27822C47.5317 1.35981 47.5758 1.47261 47.6477 1.61663L51.2271 8.47761V12.9606C51.2271 13.011 51.2399 13.0544 51.2659 13.0921C51.2919 13.1298 51.3387 13.1594 51.4069 13.1815C51.4749 13.2033 51.5626 13.2221 51.6695 13.2379C51.7767 13.2533 51.911 13.2613 52.0732 13.2613C52.2286 13.2613 52.3615 13.2533 52.4717 13.2379C52.5819 13.2221 52.6696 13.2036 52.7343 13.1815C52.799 13.1594 52.8445 13.1298 52.8705 13.0921C52.8965 13.0546 52.9095 13.011 52.9095 12.9606Z" fill="#28292F"/>
</svg>
