<svg width="49" height="15" viewBox="0 0 49 15" fill="none" xmlns="http://www.w3.org/2000/svg">
<path fill-rule="evenodd" clip-rule="evenodd" d="M35.6227 0.618435C34.8397 0.324635 33.598 0.000244141 32.0625 0.000244141C28.1426 0.000244141 25.3823 1.97739 25.3654 4.8041C25.3328 6.88965 27.3417 8.04801 28.8442 8.7434C30.3798 9.45398 30.9019 9.91778 30.9019 10.5512C30.8862 11.5239 29.6609 11.9723 28.5181 11.9723C26.9334 11.9723 26.0843 11.7411 24.7939 11.1999L24.2712 10.9679L23.7157 14.2275C24.6467 14.6286 26.3619 14.9846 28.1426 15.0002C32.3075 15.0002 35.019 13.0537 35.0512 10.0414C35.067 8.38842 34.0062 7.12186 31.7193 6.08689C30.331 5.4225 29.4808 4.97451 29.4808 4.29473C29.4971 3.67674 30.1999 3.04377 31.7671 3.04377C33.0575 3.01277 34.0056 3.30616 34.7238 3.59975L35.0829 3.75394L35.6227 0.618435ZM21.2332 14.7837H17.2639L19.7466 0.263321H23.7157L21.2332 14.7837ZM42.4828 5.57697C42.4828 5.57697 41.225 8.80548 40.8981 9.63966H44.1974C44.0341 8.91368 43.2825 5.43797 43.2825 5.43797L43.0051 4.18681C42.8884 4.5085 42.7198 4.9506 42.6059 5.24934L42.6057 5.24983L42.6054 5.25065C42.5281 5.45321 42.4762 5.58949 42.4828 5.57697ZM42.7275 0.263321H45.7977L49 14.7835H45.3248C45.3248 14.7835 44.9651 13.1152 44.8511 12.6054H39.7548C39.6075 12.9914 38.9218 14.7835 38.9218 14.7835H34.7569L40.6528 1.46808C41.0613 0.525708 41.7806 0.263321 42.7275 0.263321ZM13.9484 0.263321L10.0612 10.1648L9.63648 8.15721C9.63649 8.15724 9.6365 8.15728 9.63652 8.15731L8.24821 1.48389C8.01965 0.556505 7.31725 0.293912 6.45162 0.263321H0.0653342L0 0.55671C1.55752 0.93344 2.95058 1.4763 4.1712 2.15128L7.70911 14.7683H11.9066L18.1457 0.263321H13.9484Z" fill="#28292F"/>
</svg>
