<svg width="100" height="100" viewBox="0 0 100 100" fill="none" xmlns="http://www.w3.org/2000/svg">
<path d="M11.0557 83H88.945" stroke="#28292F" stroke-miterlimit="10"/>
<path d="M81.2321 82.9999C79.7049 73.8964 88.7919 48.1034 94.1373 53.4137C99.4826 58.7241 78.4067 61.3792 74.2831 57.9654C69.7014 54.1723 69.1669 29.2138 78.1012 31.4138C87.2647 33.6896 69.396 56.5999 58.2471 52.6551C47.5564 48.862 40.0729 17 50 17C59.9271 17 52.4436 48.862 41.7529 52.6551C30.604 56.5999 12.7353 33.6896 21.8988 31.4138C30.8331 29.2138 30.2986 54.1723 25.7169 57.9654C21.5933 61.3792 0.517371 58.7241 5.86272 53.4137C11.2081 48.1034 20.2951 73.8964 18.7679 82.9999" stroke="#28292F" stroke-miterlimit="10"/>
<path d="M50.1538 76.1725C45.1903 76.1725 42.5176 73.138 42.5176 68.207C42.5176 62.8208 50.1538 57.207 50.1538 57.207C50.1538 57.207 57.0264 62.745 57.0264 68.207C57.0264 72.7587 55.27 76.1725 50.1538 76.1725Z" stroke="#28292F" stroke-miterlimit="10"/>
</svg>
