<svg width="100" height="100" viewBox="0 0 100 100" fill="none" xmlns="http://www.w3.org/2000/svg">
<path d="M84.6674 44.5303V86.9317C84.6674 88.9206 83.036 90.548 81.042 90.548H18.9574C16.9635 90.548 15.332 88.9206 15.332 86.9317V44.4399" stroke="#28292F" stroke-miterlimit="10"/>
<path d="M5 90.6387H95" stroke="#28292F" stroke-miterlimit="10"/>
<path d="M11.5254 37.4786V32.7774L23.8517 9.45215H75.1508L88.5647 32.7774V37.4786" stroke="#28292F" stroke-miterlimit="10"/>
<path d="M73.157 40.1006V76.4446C73.157 78.4335 71.7975 79.9705 69.8035 79.9705H30.6494C28.6555 79.9705 26.8428 78.3431 26.8428 76.4446V40.1006" stroke="#28292F" stroke-miterlimit="10"/>
<path d="M52.4922 59.1768L66.0874 73.642" stroke="#28292F" stroke-miterlimit="10"/>
<path d="M61.5557 60.9844L67.3563 67.4937" stroke="#28292F" stroke-miterlimit="10"/>
<path d="M11.5254 37.479C11.5254 41.9994 14.9695 45.6157 19.2293 45.6157C23.4891 45.6157 26.9332 41.9994 26.9332 37.479" stroke="#28292F" stroke-miterlimit="10"/>
<path d="M26.9336 37.4785C26.9336 41.9989 30.3777 45.6152 34.6375 45.6152C38.8973 45.6152 42.3414 41.9989 42.3414 37.4785" stroke="#28292F" stroke-miterlimit="10"/>
<path d="M42.3418 37.4785C42.3418 41.9989 45.7859 45.6152 50.0457 45.6152C54.3055 45.6152 57.7497 41.9989 57.7497 37.4785" stroke="#28292F" stroke-miterlimit="10"/>
<path d="M57.749 37.4785C57.749 41.9989 61.1931 45.6152 65.4529 45.6152C69.7128 45.6152 73.1569 41.9989 73.1569 37.4785" stroke="#28292F" stroke-miterlimit="10"/>
<path d="M73.1572 37.4785C73.1572 41.9989 76.6013 45.6152 80.8612 45.6152C85.121 45.6152 88.5651 41.9989 88.5651 37.4785" stroke="#28292F" stroke-miterlimit="10"/>
</svg>
