<svg width="100" height="100" viewBox="0 0 100 100" fill="none" xmlns="http://www.w3.org/2000/svg">
<g clip-path="url(#clip0)">
<path d="M16.6307 69.6381V61.6035C16.6284 60.287 16.1061 59.0251 15.1782 58.0942C14.2504 57.1633 12.9926 56.6393 11.6803 56.6371H8.40605C7.09384 56.6393 5.83603 57.1633 4.90816 58.0942C3.98029 59.0251 3.45801 60.287 3.45572 61.6035V69.6381H0V88.9231H20.0864V69.6381H16.6307ZM8.40605 57.7205H11.6803C12.7061 57.7228 13.6893 58.1326 14.4146 58.8603C15.14 59.588 15.5485 60.5743 15.5508 61.6035V69.6381H4.53564V61.6035C4.53792 60.5743 4.94643 59.588 5.67177 58.8603C6.39712 58.1326 7.38025 57.7228 8.40605 57.7205ZM1.07991 87.8397V70.7216H19.0065V87.8397H1.07991ZM91.1447 12H18.7905C16.4426 12.0023 14.1916 12.939 12.5314 14.6046C10.8712 16.2702 9.93749 18.5286 9.93521 20.8841V47.3196H11.0151V31.7183H66.5227C66.7559 36.104 69.8143 39.519 73.5119 39.519C74.5284 39.5063 75.5276 39.2533 76.4282 38.7804C77.3289 38.3075 78.1057 37.6281 78.6955 36.7974C79.2862 37.6271 80.0632 38.3058 80.9636 38.7785C81.8641 39.2513 82.8628 39.505 83.879 39.519C87.5853 39.519 90.6436 36.104 90.8769 31.7183H98.8942V64.8711C98.8942 66.9399 98.075 68.9241 96.6168 70.387C95.1586 71.8499 93.1809 72.6717 91.1188 72.6717H28.5097V73.7551H91.1447C93.4926 73.7529 95.7436 72.8161 97.4038 71.1505C99.064 69.4849 99.9977 67.2266 100 64.8711V20.8841C99.9977 18.5286 99.064 16.2702 97.4038 14.6046C95.7436 12.939 93.4926 12.0023 91.1447 12V12ZM83.905 38.4355C82.9381 38.4049 81.9955 38.1238 81.169 37.6195C80.3424 37.1153 79.6599 36.4051 79.1879 35.558L78.7214 34.8212L78.2635 35.558C77.7907 36.4063 77.1069 37.1173 76.2787 37.6216C75.4505 38.126 74.5062 38.4064 73.5378 38.4355C70.2635 38.4355 67.6026 35.1766 67.6026 31.1723C67.6026 27.1679 70.2635 23.9177 73.5378 23.9177C74.5062 23.9468 75.4505 24.2272 76.2787 24.7315C77.1069 25.2359 77.7907 25.9469 78.2635 26.7952L78.7214 27.532L79.1879 26.7952C79.6599 25.9481 80.3424 25.2379 81.169 24.7336C81.9955 24.2294 82.9381 23.9483 83.905 23.9177C87.1879 23.9177 89.8488 27.1766 89.8488 31.1723C89.8488 35.1679 87.1879 38.4355 83.905 38.4355ZM78.7214 25.5558C78.1316 24.7251 77.3549 24.0457 76.4542 23.5728C75.5535 23.0999 74.5543 22.8469 73.5378 22.8342C69.8402 22.8342 66.7819 26.2492 66.5486 30.6349H11.0151V20.8841C11.0151 18.8152 11.8343 16.8311 13.2925 15.3682C14.7506 13.9053 16.7283 13.0834 18.7905 13.0834H91.1447C93.2069 13.0834 95.1846 13.9053 96.6427 15.3682C98.1009 16.8311 98.9201 18.8152 98.9201 20.8841V30.6349H90.9028C90.6695 26.2492 87.6112 22.8342 83.905 22.8342C82.8887 22.8482 81.89 23.1019 80.9896 23.5747C80.0891 24.0474 79.3121 24.7261 78.7214 25.5558Z" fill="#28292F"/>
</g>
<defs>
<clipPath id="clip0">
<rect width="100" height="76.9231" fill="white" transform="translate(0 12)"/>
</clipPath>
</defs>
</svg>
