<?xml version="1.0" encoding="utf-8"?>
<!-- Generated by IcoMoon.io -->
<svg version="1.1" xmlns="http://www.w3.org/2000/svg" xmlns:xlink="http://www.w3.org/1999/xlink" width="752" height="80" viewBox="0 0 752 80">
<svg id="account" width="32" height="32" viewBox="0 0 32 32" x="0" y="0">
<path fill="none" stroke-linejoin="miter" stroke-linecap="butt" stroke-miterlimit="4" stroke-width="1.28" stroke="#000" d="M30.080 16c0 7.776-6.304 14.080-14.080 14.080s-14.080-6.304-14.080-14.080c0-7.776 6.304-14.080 14.080-14.080s14.080 6.304 14.080 14.080z"></path>
<path fill="none" stroke-linejoin="miter" stroke-linecap="butt" stroke-miterlimit="4" stroke-width="1.28" stroke="#000" d="M20.48 12.16c0 2.474-2.006 4.48-4.48 4.48s-4.48-2.006-4.48-4.48c0-2.474 2.006-4.48 4.48-4.48s4.48 2.006 4.48 4.48z"></path>
<path fill="none" stroke-linejoin="miter" stroke-linecap="butt" stroke-miterlimit="4" stroke-width="1.28" stroke="#000" d="M8.96 28.16c0-2.56-0.094-9.6 7.040-9.6s7.040 6.4 7.040 9.6"></path>
</svg>
<svg id="arrow_down" width="32" height="32" viewBox="0 0 32 32" x="48" y="0">
<path fill="none" stroke-linejoin="miter" stroke-linecap="butt" stroke-miterlimit="4" stroke-width="2.1333" stroke="#000" d="M6.4 12.8l8.533 8.533 8.533-8.533"></path>
</svg>
<svg id="arrow_right" width="20" height="32" viewBox="0 0 20 32" x="96" y="0">
<path fill="none" stroke="#fff" stroke-linejoin="miter" stroke-linecap="butt" stroke-miterlimit="4" stroke-width="4" d="M1.602 27.199l11.733-11.733-11.733-11.733"></path>
</svg>
<svg id="cart" width="32" height="32" viewBox="0 0 32 32" x="144" y="0">
<path fill="none" stroke="#28292f" stroke-linejoin="round" stroke-linecap="round" stroke-miterlimit="4" stroke-width="1.28" d="M0.64 1.28c1.92-0.213 6.528 1.426 7.040 9.618 0.64 10.24 5.12 13.44 8.32 13.44 2.56 0 9.173 0 12.16 0"></path>
<path fill="none" stroke="#28292f" stroke-linejoin="miter" stroke-linecap="butt" stroke-miterlimit="4" stroke-width="1.28" d="M6.4 5.777l23.68 0.622-1.040 8.837c-0.14 1.193-1.092 2.129-2.288 2.248l-17.153 1.715"></path>
<path d="M11.52 30.080c0 1.060-0.86 1.92-1.92 1.92s-1.92-0.86-1.92-1.92c0-1.060 0.86-1.92 1.92-1.92s1.92 0.86 1.92 1.92z"></path>
<path d="M28.394 30.080c0 1.060-0.86 1.92-1.92 1.92s-1.92-0.86-1.92-1.92 0.86-1.92 1.92-1.92c1.060 0 1.92 0.86 1.92 1.92z"></path>
</svg>
<svg id="facebook" width="16" height="32" viewBox="0 0 16 32" x="192" y="0">
<path opacity="0.5" fill="#000" d="M15.399 0.006l-3.839-0.006c-4.311 0-7.099 3.091-7.099 7.875v3.631h-3.858c-0.332 0-0.602 0.292-0.602 0.653v5.261c0 0.359 0.27 0.651 0.602 0.651h3.858v13.278c0 0.359 0.273 0.651 0.606 0.651h5.033c0.334 0 0.604-0.292 0.604-0.651v-13.278h4.511c0.334 0 0.604-0.292 0.604-0.651l0.003-5.261c0-0.172-0.064-0.338-0.177-0.461-0.113-0.122-0.267-0.191-0.428-0.191h-4.512v-3.078c0-1.479 0.326-2.231 2.108-2.231l2.584-0.001c0.334 0 0.604-0.292 0.604-0.651v-4.885c0-0.362-0.27-0.653-0.601-0.654z"></path>
</svg>
<svg id="fav" width="32" height="32" viewBox="0 0 32 32" x="240" y="0">
<path fill="none" stroke-linejoin="round" stroke-linecap="round" stroke-miterlimit="4" stroke-width="1.28" stroke="#000" d="M16 28.509l-12.948-13.682c-1.264-1.455-2.205-3.009-2.382-4.604-0.172-1.55 0.366-3.263 2.343-5.096l0 0 0.006-0.005c1.25-1.188 2.472-1.733 3.624-1.879 1.159-0.147 2.307 0.102 3.412 0.599 2.232 1.005 4.176 2.967 5.474 4.383 0.121 0.132 0.292 0.208 0.472 0.208s0.351-0.075 0.472-0.208c1.298-1.417 3.241-3.379 5.474-4.383 1.105-0.497 2.252-0.747 3.412-0.599 1.152 0.146 2.374 0.691 3.624 1.879v0l0.006 0.005c1.976 1.833 2.514 3.546 2.343 5.096-0.177 1.595-1.118 3.15-2.382 4.604l-12.948 13.682z"></path>
</svg>
<svg id="icon_mastercard" width="55" height="32" viewBox="0 0 55 32" x="288" y="0">
<path opacity="0.2" fill="#000" d="M33.164 16c0 8.837-7.424 16-16.582 16s-16.582-7.163-16.582-16c0-8.837 7.424-16 16.582-16s16.582 7.163 16.582 16z"></path>
<path opacity="0.2" fill="#000" d="M55.273 16c0 8.837-7.424 16-16.582 16s-16.582-7.163-16.582-16c0-8.837 7.424-16 16.582-16s16.582 7.163 16.582 16z"></path>
</svg>
<svg id="insta" width="32" height="32" viewBox="0 0 32 32" x="384" y="0">
<path opacity="0.5" fill="#000" d="M29 23.107c0 3.262-2.673 5.915-5.959 5.915h-14.259c-3.286 0-5.959-2.653-5.959-5.915v-14.155c0-3.262 2.673-5.915 5.959-5.915h14.259c3.286 0 5.959 2.653 5.959 5.915v14.155zM23.041 0.234h-14.259c-4.843 0-8.782 3.911-8.782 8.718v14.155c0 4.807 3.939 8.718 8.782 8.718h14.259c4.843 0 8.782-3.911 8.782-8.718v-14.155c0-4.807-3.939-8.718-8.782-8.718zM15.912 21.366c-2.964 0-5.377-2.393-5.377-5.337 0-2.942 2.412-5.337 5.377-5.337s5.377 2.395 5.377 5.337c0 2.944-2.413 5.337-5.377 5.337zM15.912 7.89c-4.522 0-8.2 3.652-8.2 8.139 0 4.489 3.678 8.141 8.2 8.141s8.201-3.652 8.201-8.141c0-4.488-3.679-8.139-8.2-8.139zM22.993 6.114c0.384-0.383 0.918-0.601 1.462-0.601 0.546 0 1.080 0.218 1.464 0.601 0.386 0.381 0.607 0.912 0.607 1.454 0 0.539-0.221 1.070-0.607 1.453-0.386 0.381-0.918 0.601-1.464 0.601-0.544 0-1.079-0.22-1.462-0.601-0.386-0.383-0.608-0.913-0.608-1.453 0-0.542 0.221-1.073 0.608-1.455z"></path>
</svg>
<svg id="LiqPay" width="162" height="32" viewBox="0 0 162 32" x="432" y="0">
<path opacity="0.3" fill="#000" d="M143.066 15.092l-11.216-12.506 3.111-2.586 13.533 15.092-13.533 15.091-3.111-2.583 11.216-12.508zM156.705 15.092l-11.215-12.506 3.11-2.586 13.533 15.092-13.533 15.091-3.11-2.583 11.215-12.508zM14 26.667c0 0.267-0.014 0.491-0.042 0.672s-0.073 0.334-0.136 0.461c-0.063 0.128-0.139 0.221-0.23 0.281s-0.198 0.090-0.323 0.090h-11.934c-0.32 0-0.623-0.103-0.908-0.311s-0.428-0.572-0.428-1.093v-24.020c0-0.107 0.028-0.201 0.084-0.281s0.153-0.144 0.292-0.191c0.139-0.047 0.327-0.087 0.563-0.12s0.522-0.050 0.856-0.050c0.347 0 0.636 0.017 0.866 0.050s0.414 0.074 0.553 0.12c0.139 0.047 0.237 0.11 0.292 0.191s0.084 0.174 0.084 0.281v22.437h9.681c0.125 0 0.233 0.030 0.323 0.090s0.167 0.147 0.23 0.26c0.063 0.113 0.108 0.264 0.136 0.451s0.042 0.414 0.042 0.682zM21.469 27.93c0.055-0.080 0.084-0.173 0.084-0.281v-24.902c0-0.107-0.028-0.2-0.084-0.281s-0.153-0.144-0.292-0.191c-0.14-0.047-0.324-0.087-0.553-0.12s-0.518-0.050-0.866-0.050c-0.321 0-0.595 0.017-0.825 0.050s-0.417 0.074-0.563 0.12c-0.146 0.047-0.25 0.11-0.313 0.191s-0.094 0.174-0.094 0.281v24.902c0 0.108 0.028 0.2 0.084 0.281s0.153 0.144 0.292 0.191c0.139 0.047 0.327 0.087 0.563 0.12s0.522 0.050 0.856 0.050c0.347 0 0.636-0.017 0.866-0.050s0.414-0.073 0.553-0.12c0.139-0.047 0.236-0.11 0.292-0.191zM54.664 30.457c0 0.307-0.017 0.564-0.052 0.771s-0.087 0.368-0.156 0.481c-0.070 0.113-0.146 0.191-0.23 0.231s-0.167 0.060-0.25 0.060c-0.278 0-0.727-0.11-1.346-0.33s-1.332-0.542-2.138-0.962c-0.807-0.421-1.669-0.933-2.587-1.534s-1.808-1.303-2.67-2.105c-0.681 0.401-1.544 0.749-2.587 1.042s-2.253 0.441-3.63 0.441c-2.031 0-3.787-0.288-5.268-0.862s-2.706-1.417-3.672-2.526c-0.967-1.11-1.687-2.489-2.16-4.14s-0.709-3.546-0.709-5.684c0-2.058 0.257-3.92 0.772-5.584s1.287-3.081 2.316-4.251c1.029-1.169 2.316-2.072 3.86-2.707s3.345-0.953 5.404-0.953c1.933 0 3.634 0.288 5.101 0.862s2.698 1.414 3.693 2.516c0.994 1.103 1.742 2.463 2.243 4.080s0.751 3.476 0.751 5.574c0 1.083-0.066 2.119-0.198 3.108s-0.341 1.925-0.626 2.807c-0.286 0.882-0.644 1.698-1.074 2.446-0.432 0.749-0.939 1.424-1.523 2.025 1.015 0.802 1.906 1.427 2.67 1.875s1.398 0.786 1.898 1.012c0.501 0.227 0.89 0.391 1.168 0.491 0.278 0.1 0.486 0.214 0.626 0.341s0.237 0.307 0.292 0.541c0.055 0.234 0.084 0.545 0.084 0.932zM47.57 15.118c0-1.471-0.135-2.834-0.407-4.091s-0.723-2.349-1.356-3.278c-0.633-0.929-1.478-1.654-2.535-2.175s-2.365-0.782-3.923-0.782-2.865 0.277-3.923 0.832c-1.057 0.555-1.916 1.303-2.577 2.246s-1.134 2.035-1.419 3.278c-0.285 1.243-0.428 2.56-0.428 3.95 0 1.524 0.132 2.924 0.396 4.2s0.709 2.383 1.335 3.319c0.626 0.936 1.464 1.661 2.514 2.175s2.368 0.772 3.954 0.772c1.572 0 2.893-0.281 3.964-0.842s1.933-1.32 2.587-2.276c0.654-0.956 1.119-2.066 1.398-3.328 0.279-1.264 0.418-2.598 0.418-4.001zM73.4 13.334c0.445-1.043 0.668-2.212 0.668-3.509 0-0.975-0.143-1.868-0.428-2.677s-0.692-1.52-1.22-2.135c-0.529-0.614-1.172-1.133-1.93-1.554s-1.502-0.708-2.232-0.862c-0.73-0.154-1.363-0.253-1.898-0.301s-1.095-0.070-1.68-0.070h-5.779c-0.362 0-0.689 0.114-0.981 0.341s-0.438 0.608-0.438 1.143v23.94c0 0.108 0.028 0.2 0.084 0.281s0.153 0.144 0.292 0.191c0.139 0.047 0.324 0.087 0.553 0.12s0.518 0.050 0.866 0.050c0.348 0 0.636-0.017 0.866-0.050s0.41-0.073 0.542-0.12c0.132-0.047 0.229-0.11 0.292-0.191s0.094-0.173 0.094-0.281v-9.343h3.067c1.669 0 3.105-0.201 4.308-0.602s2.219-0.969 3.047-1.704c0.828-0.735 1.463-1.624 1.909-2.667zM69.675 7.458c0.41 0.709 0.616 1.591 0.616 2.647 0 0.775-0.125 1.494-0.375 2.155s-0.619 1.23-1.106 1.704c-0.487 0.475-1.089 0.846-1.805 1.113s-1.617 0.401-2.702 0.401h-3.234v-10.406h3.317c0.612 0 1.242 0.047 1.888 0.14s1.273 0.314 1.878 0.662c0.605 0.348 1.113 0.876 1.523 1.584zM99.771 26.948c0.111 0.294 0.17 0.531 0.177 0.712s-0.046 0.318-0.156 0.411c-0.111 0.093-0.295 0.153-0.553 0.18s-0.602 0.041-1.033 0.041c-0.431 0-0.775-0.010-1.033-0.030s-0.452-0.054-0.584-0.1c-0.132-0.047-0.23-0.11-0.292-0.19s-0.122-0.181-0.177-0.301l-2.316-6.316h-11.225l-2.212 6.236c-0.042 0.12-0.097 0.224-0.167 0.31-0.070 0.087-0.17 0.161-0.302 0.221s-0.32 0.103-0.563 0.13c-0.244 0.026-0.56 0.040-0.949 0.040-0.403 0-0.734-0.017-0.991-0.050s-0.438-0.097-0.542-0.191c-0.104-0.093-0.154-0.231-0.146-0.411s0.066-0.418 0.177-0.712l9.055-24.101c0.055-0.147 0.129-0.267 0.219-0.361s0.223-0.167 0.396-0.221c0.174-0.053 0.397-0.090 0.668-0.11s0.616-0.030 1.033-0.030c0.445 0 0.814 0.010 1.106 0.030s0.529 0.057 0.709 0.11c0.181 0.054 0.32 0.13 0.417 0.231s0.174 0.224 0.23 0.371l9.055 24.1zM88.15 5.674h-0.021l-4.652 12.932h9.389l-4.715-12.932zM112.874 27.649v-9.564l7.636-14.637c0.153-0.294 0.247-0.527 0.282-0.702s-0.003-0.307-0.115-0.401c-0.112-0.094-0.31-0.157-0.595-0.191s-0.678-0.050-1.179-0.050c-0.362 0-0.661 0.014-0.897 0.040s-0.421 0.064-0.553 0.11c-0.133 0.047-0.237 0.117-0.313 0.211s-0.135 0.207-0.177 0.341l-3.755 7.499c-0.347 0.735-0.69 1.48-1.029 2.235s-0.668 1.514-0.985 2.276h-0.042c-0.36-0.789-0.713-1.57-1.058-2.346s-0.692-1.517-1.038-2.226l-3.734-7.459c-0.070-0.133-0.142-0.244-0.219-0.331s-0.191-0.154-0.344-0.201c-0.153-0.047-0.358-0.083-0.616-0.11s-0.595-0.040-1.012-0.040c-0.459 0-0.824 0.014-1.095 0.040s-0.459 0.087-0.563 0.18c-0.105 0.094-0.14 0.227-0.105 0.401 0.034 0.174 0.128 0.415 0.282 0.722l7.636 14.637v9.564c0 0.108 0.027 0.2 0.083 0.281s0.155 0.144 0.301 0.191c0.145 0.047 0.332 0.087 0.56 0.12s0.515 0.050 0.861 0.050c0.332 0 0.615-0.017 0.85-0.050s0.422-0.073 0.56-0.12 0.235-0.11 0.291-0.191c0.055-0.080 0.083-0.173 0.083-0.281z"></path>
</svg>
<svg id="search" width="32" height="32" viewBox="0 0 32 32" x="0" y="48">
<path fill="none" stroke-linejoin="miter" stroke-linecap="butt" stroke-miterlimit="4" stroke-width="1.28" stroke="#000" d="M22.4 12.16c0 5.655-4.585 10.24-10.24 10.24s-10.24-4.585-10.24-10.24c0-5.655 4.585-10.24 10.24-10.24s10.24 4.585 10.24 10.24z"></path>
<path fill="none" stroke-linejoin="round" stroke-linecap="round" stroke-miterlimit="4" stroke-width="1.28" stroke="#000" d="M30.080 30.72l-10.88-10.88"></path>
</svg>
<svg id="Union" width="105" height="32" viewBox="0 0 105 32" x="48" y="48">
<path d="M75.995 1.319c-1.67-0.627-4.319-1.319-7.595-1.319-8.362 0-14.251 4.218-14.287 10.248-0.070 4.449 4.216 6.92 7.421 8.404 3.276 1.516 4.39 2.505 4.39 3.857-0.034 2.075-2.647 3.032-5.085 3.032-3.381 0-5.192-0.493-7.945-1.648l-1.115-0.495-1.185 6.954c1.986 0.856 5.645 1.615 9.444 1.648 8.885 0 14.67-4.153 14.738-10.579 0.034-3.526-2.229-6.228-7.108-8.436-2.962-1.417-4.775-2.373-4.775-3.823 0.035-1.318 1.534-2.669 4.877-2.669 2.753-0.066 4.775 0.56 6.308 1.186l0.766 0.329 1.152-6.689zM45.297 31.539h-8.468l5.296-30.977h8.467l-5.296 30.977zM90.63 11.898c0 0-2.683 6.887-3.381 8.667h7.038c-0.348-1.549-1.952-8.964-1.952-8.964l-0.592-2.669c-0.249 0.686-0.609 1.629-0.852 2.267l-0 0.001-0.001 0.002c-0.165 0.432-0.276 0.723-0.262 0.696zM91.152 0.562h6.55l6.832 30.976h-7.84c0 0-0.767-3.559-1.011-4.647h-10.872c-0.314 0.823-1.777 4.647-1.777 4.647h-8.885l12.578-28.406c0.871-2.010 2.406-2.57 4.426-2.57zM29.757 0.562l-8.293 21.123-0.906-4.283c0 0 0 0 0 0l-2.962-14.237c-0.488-1.978-1.986-2.539-3.833-2.604h-13.624l-0.139 0.626c3.323 0.804 6.295 1.962 8.899 3.402l7.548 26.916h8.955l13.31-30.944h-8.954z"></path>
</svg>
<svg id="youtube" width="45" height="32" viewBox="0 0 45 32" x="192" y="48">
<path opacity="0.5" fill="#000" d="M28.882 16.643l-12.116 5.898c-0.323 0.157-0.696-0.083-0.696-0.448v-12.164c0-0.37 0.383-0.61 0.706-0.443l12.116 6.266c0.36 0.186 0.354 0.714-0.011 0.891zM35.105 0h-25.903c-5.082 0-9.202 4.205-9.202 9.392v13.216c0 5.187 4.12 9.392 9.202 9.392h25.903c5.082 0 9.202-4.205 9.202-9.392v-13.216c0-5.187-4.12-9.392-9.202-9.392z"></path>
</svg>
</svg>
