<svg version="1.1" xmlns="http://www.w3.org/2000/svg" xmlns:xlink="http://www.w3.org/1999/xlink">
    <symbol id="arrow_right" viewBox="0 0 5 8">
        <path fill="none" d="M0.400391 6.7998L3.33372 3.86647L0.400391 0.933138"/>
    </symbol>
 
    <symbol id="arrow_down" viewBox="0 0 15 15">
        <path fill="none" d="M3 6L7 10L11 6"/>
    </symbol>

    <symbol id="search" viewBox="0 0 25 25">
        <g>
          <circle fill="none" cx="9.5" cy="9.5" r="8" stroke="#28292F"/>
          <path fill="none" d="M23.5 24L15 15.5" stroke="#28292F" stroke-linecap="round" stroke-linejoin="round"/>
        </g>
    </symbol>

    <symbol id="account" viewBox="0 0 25 25">
        <circle fill="none" cx="12.5" cy="12.5" r="11"/>
        <circle fill="none" cx="12.5" cy="9.5" r="3.5"/>
        <path fill="none" d="M7.00004 22C7.00005 20 6.92686 14.5 12.5 14.5C18.0732 14.5 18.0001 19.5 18.0001 22"/>
    </symbol>

    <symbol id="fav" viewBox="0 0 25 25">
        <path fill="none" d="M12.5 22.2726L2.38422 11.5837C1.39699 10.4473 0.661506 9.23268 0.523472 7.98656C0.389356 6.77583 0.809752 5.43723 2.35381 4.00527L2.35383 4.0053L2.35829 4.00106C3.33497 3.07268 4.28946 2.64698 5.18982 2.53278C6.09552 2.4179 6.99185 2.61263 7.85507 3.00115C9.59897 3.78606 11.1176 5.31892 12.1313 6.42568C12.226 6.5291 12.3598 6.58798 12.5 6.58798C12.6402 6.58798 12.774 6.5291 12.8687 6.42568C13.8824 5.31892 15.401 3.78606 17.1449 3.00115C18.0082 2.61263 18.9045 2.4179 19.8102 2.53278C20.7105 2.64698 21.665 3.07268 22.6417 4.00106L22.6417 4.00109L22.6462 4.00527C24.1902 5.43723 24.6106 6.77583 24.4765 7.98656C24.3385 9.23268 23.603 10.4473 22.6158 11.5837L12.5 22.2726Z" stroke-linecap="round" stroke-linejoin="round"/>
    </symbol>

    <symbol id="cart" viewBox="0 0 25 25">
        <path fill="none" d="M0.5 1.00006C2 0.833394 5.6 2.114 6 8.514C6.5 16.514 10 19.014 12.5 19.014C14.5 19.014 19.6667 19.014 22 19.014"  stroke-linecap="round" stroke-linejoin="round"/>
        <path fill="none" d="M5 4.51367L23.5 4.99982L22.6878 11.9034C22.5781 12.8358 21.8347 13.5663 20.9005 13.6598L7.5 14.9998" />
        <circle cx="7.5" cy="23.5" r="1.5" fill="#28292F"/>
        <path d="M22.1826 23.5C22.1826 24.3284 21.5111 25 20.6826 25C19.8542 25 19.1826 24.3284 19.1826 23.5C19.1826 22.6716 19.8542 22 20.6826 22C21.5111 22 22.1826 22.6716 22.1826 23.5Z" fill="#28292F"/>
    </symbol>

    <symbol id="bedroom" viewBox="0 0 60 60">
        <path d="M56.1235 37.7294L46.1542 12.707V4.6326C46.2049 4.16578 46.1503 3.69354 45.9942 3.25064C45.8382 2.80774 45.5848 2.40546 45.2527 2.07343C44.9205 1.74139 44.5181 1.48806 44.0751 1.33209C43.632 1.17611 43.1596 1.12146 42.6927 1.17217H17.3081C16.8411 1.12146 16.3687 1.17611 15.9257 1.33209C15.4826 1.48806 15.0802 1.74139 14.7481 2.07343C14.4159 2.40546 14.1625 2.80774 14.0065 3.25064C13.8505 3.69354 13.7958 4.16578 13.8465 4.6326V12.707L3.8773 37.7282C3.60292 38.3893 3.46176 39.098 3.46191 39.8137V46.3309C3.47603 46.9634 3.65048 47.5819 3.96893 48.1286C4.28738 48.6754 4.7394 49.1323 5.28268 49.4568C5.75701 49.7314 6.20916 50.0426 6.63499 50.3877V57.4043C6.6356 57.7865 6.78775 58.1529 7.05811 58.4231C7.32846 58.6934 7.69496 58.8455 8.0773 58.8461H12.1158C12.4981 58.8455 12.8646 58.6934 13.135 58.4231C13.4053 58.1529 13.5575 57.7865 13.5581 57.4043V54.7986C13.7277 54.8089 13.8915 54.8228 14.0738 54.8228C19.3815 54.8228 19.3815 49.4568 24.6892 49.4568C29.9969 49.4568 29.9969 54.8228 35.3046 54.8228C40.6123 54.8228 40.6123 49.4568 45.92 49.4568C46.1081 49.4568 46.2661 49.4856 46.4427 49.4995V57.4043C46.4433 57.7865 46.5954 58.1529 46.8658 58.4231C47.1362 58.6934 47.5027 58.8455 47.885 58.8461H51.9235C52.3058 58.8455 52.6723 58.6934 52.9426 58.4231C53.213 58.1529 53.3652 57.7865 53.3658 57.4043V53.7131C53.5649 53.7615 53.7689 53.7874 53.9738 53.7904C54.3111 53.7981 54.6465 53.7376 54.9598 53.6127C55.2732 53.4878 55.5581 53.3009 55.7976 53.0634C56.037 52.8258 56.2261 52.5424 56.3535 52.2301C56.4808 51.9178 56.5439 51.5831 56.5388 51.2458V39.8137C56.539 39.0984 56.3978 38.39 56.1235 37.7294ZM15.5773 4.6326C15.5773 3.37185 16.0469 2.90238 17.3081 2.90238H42.6927C43.9538 2.90238 44.4235 3.37185 44.4235 4.6326V11.8418H15.5773V4.6326ZM5.48576 38.3684L15.365 13.5686H44.6358L54.5161 38.3684H5.48461H5.48576ZM11.8273 57.1159H8.36576V51.9979C9.29176 53.1069 10.4822 53.965 11.8273 54.4929V57.1159ZM51.635 57.1159H48.1735V49.8767C49.5053 50.5337 50.6845 51.4626 51.635 52.6035V57.1159ZM54.8081 51.2458C54.8125 51.3558 54.7937 51.4655 54.7532 51.5677C54.7126 51.67 54.651 51.7627 54.5724 51.8397C54.4938 51.9168 54.3999 51.9765 54.2968 52.0151C54.1937 52.0536 54.0837 52.0702 53.9738 52.0637C53.7034 52.0605 53.4446 51.9531 53.2515 51.7638C52.9677 51.5019 52.6977 51.2239 52.4254 50.9471C51.0223 49.5122 49.2754 47.7266 45.92 47.7266C42.5427 47.7266 40.7888 49.4995 39.38 50.9229C38.1338 52.1825 37.2327 53.0926 35.3011 53.0926C33.3696 53.0926 32.4708 52.1825 31.2258 50.9229C29.8169 49.5029 28.0642 47.7266 24.6927 47.7266C21.3211 47.7266 19.5592 49.5029 18.1504 50.9229C16.9054 52.1825 16.0042 53.0926 14.0738 53.0926C11.8815 53.0926 11.0254 52.2286 9.61307 50.7971C8.59873 49.6892 7.43069 48.7325 6.14461 47.9561C5.86547 47.7824 5.63289 47.5433 5.46702 47.2595C5.30115 46.9757 5.20699 46.6558 5.19268 46.3274V40.0986H54.8081V51.2458Z"/>
    </symbol>

    <symbol id="bathroom" viewBox="0 0 60 60">
        <path d="M57.6941 27.6967C57.7088 27.276 57.6367 26.8569 57.4824 26.4653C57.3282 26.0737 57.095 25.718 56.7973 25.4204C56.4997 25.1228 56.144 24.8896 55.7524 24.7353C55.3608 24.581 54.9417 24.509 54.521 24.5236H7.79025V5.48516C7.76595 5.13797 7.81645 4.78961 7.93833 4.46362C8.06021 4.13762 8.25062 3.84157 8.49672 3.59548C8.74282 3.34938 9.03887 3.15896 9.36486 3.03708C9.69086 2.91521 10.0392 2.86471 10.3864 2.889H15.0018C16.4752 2.889 17.9129 3.14054 18.1402 5.85323C17.1474 6.01738 16.2496 6.54087 15.6177 7.32405C14.9858 8.10724 14.6639 9.09543 14.7133 10.1005V14.7159C14.7133 14.9454 14.8045 15.1656 14.9668 15.3278C15.1291 15.4901 15.3492 15.5813 15.5787 15.5813H22.5018C22.7313 15.5813 22.9514 15.4901 23.1137 15.3278C23.276 15.1656 23.3672 14.9454 23.3672 14.7159V10.1005C23.4169 9.08205 23.085 8.08162 22.4363 7.29486C21.7876 6.5081 20.8688 5.99159 19.8595 5.84631C19.6322 2.70785 18.0491 1.15823 15.0018 1.15823H10.3864C9.81111 1.13162 9.2366 1.22532 8.69958 1.43335C8.16257 1.64138 7.67486 1.95916 7.26763 2.36639C6.86041 2.77361 6.54262 3.26132 6.33459 3.79834C6.12656 4.33536 6.03286 4.90987 6.05948 5.48516V24.5236H5.48256C5.06191 24.509 4.64275 24.581 4.25114 24.7353C3.85953 24.8896 3.50386 25.1228 3.20624 25.4204C2.90861 25.718 2.67541 26.0737 2.52114 26.4653C2.36687 26.8569 2.29482 27.276 2.30948 27.6967C2.29263 28.5335 2.60793 29.3429 3.1864 29.9478C3.1864 29.9675 3.17486 29.9848 3.17486 30.0044V37.5044C3.15534 39.8341 3.65223 42.1392 4.62982 44.254C5.6074 46.3688 7.0414 48.2407 8.82871 49.7352L5.53679 57.6967C5.49783 57.8035 5.48034 57.917 5.4853 58.0305C5.49027 58.1441 5.5176 58.2556 5.56572 58.3586C5.61385 58.4616 5.68183 58.5541 5.76576 58.6308C5.8497 58.7075 5.94794 58.7669 6.05486 58.8055C6.14931 58.837 6.24841 58.8522 6.34794 58.8505C6.52565 58.8505 6.69906 58.7958 6.84459 58.6939C6.99013 58.5919 7.10074 58.4476 7.1614 58.2805L10.2618 50.7886C12.8727 52.4891 15.9245 53.3876 19.0402 53.3732H40.9633C44.0791 53.3876 47.1309 52.4891 49.7418 50.7886L52.8422 58.2805C52.9028 58.4476 53.0134 58.5919 53.159 58.6939C53.3045 58.7958 53.4779 58.8505 53.6556 58.8505C53.7563 58.8503 53.8563 58.8327 53.951 58.7986C54.0579 58.76 54.1562 58.7006 54.2401 58.6239C54.3241 58.5472 54.392 58.4547 54.4402 58.3517C54.4883 58.2487 54.5156 58.1372 54.5206 58.0236C54.5255 57.91 54.508 57.7966 54.4691 57.6898L51.1772 49.7282C52.9645 48.2338 54.3985 46.3618 55.3761 44.2471C56.3536 42.1323 56.8505 39.8272 56.831 37.4975V30.0044C56.831 29.9848 56.8206 29.9675 56.8195 29.9478C57.3971 29.3426 57.7116 28.5332 57.6941 27.6967ZM19.0402 7.50439C19.3874 7.48009 19.7358 7.53059 20.0618 7.65247C20.3878 7.77434 20.6838 7.96476 20.9299 8.21086C21.176 8.45696 21.3664 8.753 21.4883 9.079C21.6102 9.405 21.6607 9.75336 21.6364 10.1005V13.8505H16.4441V10.1005C16.4198 9.75336 16.4703 9.405 16.5922 9.079C16.7141 8.753 16.9045 8.45696 17.1506 8.21086C17.3967 7.96476 17.6927 7.77434 18.0187 7.65247C18.3447 7.53059 18.6931 7.48009 19.0402 7.50439ZM55.0979 37.5044C55.1183 39.3664 54.7667 41.2137 54.0636 42.938C53.3605 44.6623 52.3202 46.2288 51.0037 47.5457C49.6871 48.8626 48.1208 49.9033 46.3967 50.6068C44.6726 51.3103 42.8253 51.6624 40.9633 51.6425H19.0402C17.1782 51.6624 15.331 51.3103 13.6069 50.6068C11.8828 49.9033 10.3165 48.8626 8.99992 47.5457C7.68337 46.2288 6.64304 44.6623 5.93997 42.938C5.2369 41.2137 4.88525 39.3664 4.90563 37.5044V30.8121C5.09621 30.8452 5.28914 30.8629 5.48256 30.8652H54.521C54.7144 30.8629 54.9074 30.8452 55.0979 30.8121V37.5044ZM54.521 29.139H5.48256C5.10003 29.139 4.73318 28.987 4.46269 28.7166C4.19221 28.4461 4.04025 28.0792 4.04025 27.6967C4.04025 27.3142 4.19221 26.9473 4.46269 26.6768C4.73318 26.4063 5.10003 26.2544 5.48256 26.2544H54.521C54.9035 26.2544 55.2704 26.4063 55.5409 26.6768C55.8114 26.9473 55.9633 27.3142 55.9633 27.6967C55.9633 28.0792 55.8114 28.4461 55.5409 28.7166C55.2704 28.987 54.9035 29.139 54.521 29.139Z"/>
    </symbol>

    <symbol id="kitchen" viewBox="0 0 60 60">
        <path d="M30.6429 14.3077C30.0424 14.6306 29.5353 15.1029 29.1704 15.6789C28.8056 16.2549 28.5955 16.9152 28.5602 17.5961C28.5602 17.8256 28.6513 18.0457 28.8136 18.208C28.9759 18.3703 29.196 18.4615 29.4256 18.4615C29.6551 18.4615 29.8752 18.3703 30.0375 18.208C30.1998 18.0457 30.2909 17.8256 30.2909 17.5961C30.2909 16.755 30.7894 16.3465 31.6698 15.6969C32.2709 15.3735 32.7785 14.9006 33.1433 14.3237C33.5082 13.7468 33.718 13.0855 33.7525 12.4038C33.7174 11.7228 33.5073 11.0624 33.1425 10.4864C32.7777 9.91033 32.2704 9.43811 31.6698 9.11535C30.7894 8.46573 30.2909 8.05727 30.2909 7.21612C30.2909 6.37496 30.7894 5.9665 31.6698 5.31689C32.2717 4.99332 32.7798 4.51966 33.1447 3.94186C33.5096 3.36406 33.719 2.70175 33.7525 2.01919C33.7525 1.78968 33.6613 1.56956 33.499 1.40727C33.3367 1.24498 33.1166 1.15381 32.8871 1.15381C32.6576 1.15381 32.4375 1.24498 32.2752 1.40727C32.1129 1.56956 32.0217 1.78968 32.0217 2.01919C32.0217 2.86035 31.5233 3.26881 30.6429 3.91842C30.0416 4.24159 29.5339 4.71453 29.1691 5.29146C28.8042 5.86838 28.5945 6.52974 28.5602 7.2115C28.5952 7.89246 28.8053 8.55287 29.1702 9.12892C29.535 9.70498 30.0422 10.1772 30.6429 10.5C31.5233 11.1496 32.0217 11.558 32.0217 12.3992C32.0217 13.2403 31.5233 13.6534 30.6429 14.3077ZM42.1813 16.6153C41.5808 16.9383 41.0737 17.4106 40.7089 17.9866C40.3441 18.5626 40.1339 19.2229 40.0986 19.9038C40.0986 20.1333 40.1898 20.3534 40.3521 20.5157C40.5144 20.678 40.7345 20.7692 40.964 20.7692C41.1935 20.7692 41.4136 20.678 41.5759 20.5157C41.7382 20.3534 41.8294 20.1333 41.8294 19.9038C41.8294 19.0627 42.3279 18.6542 43.2082 18.0046C43.8094 17.6812 44.3169 17.2083 44.6818 16.6314C45.0466 16.0545 45.2564 15.3932 45.2909 14.7115C45.256 14.0305 45.0459 13.3701 44.6811 12.794C44.3163 12.2179 43.809 11.7457 43.2082 11.423C42.3279 10.7734 41.8294 10.365 41.8294 9.52381C41.8294 8.68265 42.3279 8.27419 43.2082 7.62458C43.8102 7.30101 44.3182 6.82735 44.6832 6.24955C45.0481 5.67176 45.2574 5.00945 45.2909 4.32689C45.2909 4.09737 45.1998 3.87726 45.0375 3.71497C44.8752 3.55268 44.6551 3.4615 44.4256 3.4615C44.196 3.4615 43.9759 3.55268 43.8136 3.71497C43.6513 3.87726 43.5602 4.09737 43.5602 4.32689C43.5602 5.16804 43.0617 5.5765 42.1813 6.22612C41.58 6.54928 41.0724 7.02222 40.7075 7.59915C40.3426 8.17607 40.1329 8.83743 40.0986 9.51919C40.1336 10.2002 40.3436 10.8606 40.7085 11.4367C41.0733 12.0128 41.5806 12.485 42.1813 12.8077C43.0617 13.4573 43.5602 13.8657 43.5602 14.7069C43.5602 15.548 43.0617 15.9611 42.1813 16.6153ZM19.1044 16.6153C18.5039 16.9383 17.9968 17.4106 17.632 17.9866C17.2672 18.5626 17.057 19.2229 17.0217 19.9038C17.0217 20.1333 17.1129 20.3534 17.2752 20.5157C17.4375 20.678 17.6576 20.7692 17.8871 20.7692C18.1166 20.7692 18.3367 20.678 18.499 20.5157C18.6613 20.3534 18.7525 20.1333 18.7525 19.9038C18.7525 19.0627 19.2509 18.6542 20.1313 18.0046C20.7325 17.6812 21.24 17.2083 21.6048 16.6314C21.9697 16.0545 22.1795 15.3932 22.214 14.7115C22.1791 14.0305 21.969 13.3701 21.6042 12.794C21.2393 12.2179 20.732 11.7457 20.1313 11.423C19.2509 10.7734 18.7525 10.365 18.7525 9.52381C18.7525 8.68265 19.2509 8.27419 20.1313 7.62458C20.7333 7.30101 21.2413 6.82735 21.6062 6.24955C21.9711 5.67176 22.1805 5.00945 22.214 4.32689C22.214 4.09737 22.1228 3.87726 21.9606 3.71497C21.7983 3.55268 21.5781 3.4615 21.3486 3.4615C21.1191 3.4615 20.899 3.55268 20.7367 3.71497C20.5744 3.87726 20.4832 4.09737 20.4832 4.32689C20.4832 5.16804 19.9848 5.5765 19.1044 6.22612C18.5031 6.54928 17.9955 7.02222 17.6306 7.59915C17.2657 8.17607 17.056 8.83743 17.0217 9.51919C17.0567 10.2002 17.2667 10.8606 17.6316 11.4367C17.9964 12.0128 18.5037 12.485 19.1044 12.8077C19.9848 13.4573 20.4832 13.8657 20.4832 14.7069C20.4832 15.548 19.9848 15.9611 19.1044 16.6153ZM6.34863 50.4807C6.57815 50.4807 6.79826 50.3896 6.96055 50.2273C7.12284 50.065 7.21402 49.8449 7.21402 49.6153C7.21402 43.5715 9.61494 37.7751 13.8886 33.5015C18.1623 29.2278 23.9586 26.8269 30.0025 26.8269C36.0464 26.8269 41.8427 29.2278 46.1164 33.5015C50.39 37.7751 52.7909 43.5715 52.7909 49.6153C52.7909 49.8449 52.8821 50.065 53.0444 50.2273C53.2067 50.3896 53.4268 50.4807 53.6563 50.4807C53.8858 50.4807 54.106 50.3896 54.2682 50.2273C54.4305 50.065 54.5217 49.8449 54.5217 49.6153C54.5112 44.0633 52.6189 38.6788 49.1538 34.3409C45.6887 30.0029 40.8554 26.9677 35.4429 25.7307C35.2952 22.9246 32.5652 21.0577 30.0025 21.0577C27.4398 21.0577 24.7098 22.9246 24.5621 25.725C19.1486 26.9621 14.3146 29.9982 10.8494 34.3374C7.38413 38.6765 5.49245 44.0623 5.48325 49.6153C5.48325 49.8449 5.57442 50.065 5.73671 50.2273C5.89901 50.3896 6.11912 50.4807 6.34863 50.4807ZM30.0025 22.7884C30.8136 22.7615 31.611 23.0026 32.2713 23.4744C32.9316 23.9462 33.4181 24.6224 33.6556 25.3984C32.4471 25.207 31.226 25.1059 30.0025 25.0961C28.7797 25.1059 27.5594 25.2069 26.3517 25.3984C26.5977 24.6281 27.086 23.9578 27.7439 23.4875C28.4018 23.0172 29.194 22.772 30.0025 22.7884ZM58.3698 49.7065C58.1644 49.604 57.9268 49.5872 57.7091 49.66C57.4914 49.7327 57.3115 49.8889 57.209 50.0942C56.3886 51.735 55.4425 52.5 54.2332 52.5H5.77171C4.56248 52.5 3.61633 51.735 2.79594 50.0942C2.74572 49.9916 2.67569 49.9 2.5899 49.8246C2.5041 49.7492 2.40423 49.6916 2.29604 49.655C2.18786 49.6184 2.07349 49.6035 1.95955 49.6114C1.84561 49.6192 1.73434 49.6494 1.63216 49.7005C1.52997 49.7515 1.4389 49.8222 1.36418 49.9086C1.28947 49.995 1.23259 50.0953 1.19683 50.2038C1.16107 50.3122 1.14714 50.4267 1.15583 50.5406C1.16452 50.6545 1.19567 50.7655 1.24748 50.8673C2.36325 53.1 3.88517 54.2307 5.77171 54.2307H11.8559C11.9956 57.0392 14.0932 58.8461 17.3102 58.8461H42.6948C45.9117 58.8461 48.0094 57.0392 48.149 54.2307H54.2332C56.1198 54.2307 57.6417 53.1 58.7575 50.8673C58.86 50.6619 58.8767 50.4243 58.804 50.2066C58.7313 49.9889 58.5751 49.809 58.3698 49.7065ZM42.6948 57.1153H17.3102C16.4609 57.1153 13.7644 56.895 13.5786 54.2307H46.4263C46.2406 56.895 43.544 57.1153 42.6948 57.1153Z"/>
    </symbol>

    <symbol id="homewear" viewBox="0 0 60 60">
        <g clip-path="url(#clip0)">
          <path d="M48.1942 25.7773V25.7589C47.8576 14.4316 47.5878 5.48103 39.3904 2.70828L36.2473 1.58282L36.2241 1.51427C35.8198 0.398006 32.7879 0 30.0905 0H29.9045C27.2031 0 24.1722 0.398006 23.773 1.51427L23.7487 1.58179L23.681 1.60737L20.6137 2.70931C12.4052 5.4841 12.1394 14.4408 11.8029 25.7804C11.7402 27.8604 11.6705 30.2198 11.5401 32.6058C11.5272 32.7781 11.5762 32.9494 11.6782 33.0879C11.7802 33.2265 11.9282 33.3231 12.095 33.3599C13.186 33.5777 14.2939 33.6979 15.4058 33.719C16.1982 33.7737 16.9909 33.6175 17.7051 33.2657C17.8095 33.1953 17.8941 33.0985 17.9504 32.985C18.0067 32.8714 18.033 32.745 18.0264 32.6181C17.9739 31.0179 17.794 22.8593 19.3888 19.4378L19.5525 19.0889L19.6697 19.4573C19.958 21.1616 20.1363 22.8831 20.2034 24.6109C20.2034 25.1747 19.3544 28.3802 18.3701 35.3479L18.3438 35.5351C17.0572 44.6412 15.6019 54.9412 15.3118 58.1468C15.2963 58.3002 15.3285 58.4548 15.4041 58.5887C15.4797 58.7227 15.5948 58.8293 15.7333 58.8937C20.3824 59.7154 25.0991 60.0806 29.8176 59.9843H30.1825C34.9042 60.0829 39.6243 59.7162 44.2759 58.8896C44.4125 58.8244 44.5257 58.7178 44.5996 58.5844C44.6735 58.4511 44.7045 58.2977 44.6882 58.1457C44.3941 54.9238 42.9388 44.6238 41.6563 35.5341L41.6341 35.3816C40.6487 28.3945 39.7957 25.1706 39.7957 24.6089C39.8625 22.8807 40.0407 21.1588 40.3293 19.4542L40.4476 19.0859L40.6113 19.4358C42.2061 22.8562 42.0262 31.0158 41.9726 32.616C41.9677 32.7502 41.9985 32.8831 42.0618 33.001C42.1251 33.119 42.2186 33.2175 42.3324 33.2862C43.032 33.6184 43.8029 33.7669 44.574 33.718C45.6911 33.6977 46.8041 33.5772 47.9001 33.3578C48.0682 33.3218 48.2176 33.2252 48.3204 33.0858C48.4232 32.9465 48.4725 32.7741 48.459 32.6007C48.3266 30.2168 48.2558 27.8574 48.1942 25.7773ZM25.5386 1.96036C26.9417 1.57116 28.3949 1.39869 29.849 1.44878H30.2007C31.6379 1.4035 33.0737 1.57593 34.4605 1.96036L34.7 2.02584L34.5323 2.21205C32.7039 4.36317 31.2359 6.80294 30.1865 9.43449L30.0501 9.75678L29.9086 9.43551C28.834 6.79591 27.3341 4.35525 25.4698 2.21308L25.297 2.02686L25.5386 1.96036ZM19.0169 17.6811C18.9583 17.7353 18.8976 17.8049 18.8289 17.8857L18.7753 17.9471C16.6055 20.327 16.6085 29.3041 16.66 32.0052V32.1423L16.5256 32.1597C15.3671 32.309 14.1927 32.2766 13.044 32.0635L12.9136 32.04L12.9207 31.905C13.0217 29.7891 13.0874 27.6937 13.143 25.8458C13.335 19.3212 13.5018 13.7143 15.1198 9.76803L15.2401 9.47439L17.8354 14.2157C18.4094 15.2558 18.8221 16.379 19.0593 17.546L19.0735 17.6279L19.0169 17.6811ZM18.9997 13.479L16.0062 8.01026L16.0557 7.93352C17.2093 6.09473 18.9726 4.73254 21.0291 4.09159L24.253 2.9344L24.3217 3.00193C26.5436 5.41097 28.2624 8.24925 29.375 11.3468L29.3982 11.402L29.377 11.4583C27.9505 15.4874 26.852 19.6279 26.0924 23.8384H21.4535C21.2079 21.7665 20.3883 16.0195 18.9997 13.479ZM22.732 58.3105L22.5764 58.3002C20.6534 58.2083 18.7368 58.0112 16.8349 57.7099L16.6995 57.6812L16.7136 57.5421C16.9006 55.8181 17.8324 49.1522 18.8178 42.1068L18.8734 41.716C19.9921 33.7159 21.1402 27.5453 21.4545 25.3752H25.8084C24.0331 36.2155 23.0071 47.168 22.7381 58.1529L22.732 58.3105ZM41.1257 41.716L41.1874 42.1569C42.1707 49.1839 43.0995 55.8211 43.2845 57.5421L43.2996 57.6823L43.1632 57.7099C38.8627 58.3083 34.5241 58.5819 30.1835 58.5284H29.8166C27.9257 58.5284 26.0014 58.4813 24.0954 58.3862L23.9458 58.379V58.2276C24.2061 47.215 25.2501 36.2358 27.0697 25.3752H38.5425C38.8558 27.5453 40.0049 33.717 41.1237 41.7119L41.1257 41.716ZM38.5425 23.8405H27.3628C29.3477 13.7829 32.1259 6.81112 35.6824 3.00807L35.7501 2.93645L38.9842 4.09772C41.0322 4.74098 42.7875 6.10058 43.9363 7.93352L43.9848 8.01026L43.9414 8.09109L40.9923 13.479C39.6077 16.0195 38.7881 21.7604 38.5425 23.8405ZM46.9531 32.0605C45.805 32.2735 44.6313 32.306 43.4735 32.1566L43.338 32.1393V32.0022C43.3906 29.3061 43.3936 20.3239 41.2227 17.944L41.1712 17.8867C41.1114 17.8153 41.048 17.747 40.9812 17.6821L40.9206 17.6258L40.9357 17.544C41.1726 16.3823 41.5833 15.2641 42.1536 14.228L44.756 9.47234L44.8762 9.76599C46.4933 13.7092 46.659 19.3151 46.8531 25.807V25.9338C46.9107 27.8563 46.9703 29.8443 47.0714 31.9029L47.0784 32.038L46.9531 32.0605Z" stroke="#28292F" stroke-width="0.2"/>
        </g>
        <defs>
        <clipPath id="clip0">
        <rect width="60" height="60" fill="white"/>
        </clipPath>
        </defs>
    </symbol>

    <symbol id="decor" viewBox="0 0 60 60">
        <g clip-path="url(#clip0)">
          <path d="M50.7639 24.2323C50.4734 24.2367 50.1839 24.2668 49.8987 24.3223V14.2839C49.9445 12.7114 49.6711 11.146 49.095 9.68221C48.5189 8.21843 47.6521 6.88669 46.5471 5.76744C45.442 4.64819 44.1215 3.76468 42.6655 3.1703C41.2094 2.57591 39.648 2.28299 38.0756 2.30924H21.927C20.3549 2.28301 18.7938 2.57583 17.338 3.17C15.8822 3.76417 14.5619 4.64737 13.4568 5.76624C12.3518 6.88512 11.485 8.21645 10.9087 9.67981C10.3324 11.1432 10.0586 12.7082 10.1039 14.2804V24.3189C9.81847 24.2656 9.52906 24.2367 9.23876 24.2323C8.60569 24.2345 7.97975 24.3662 7.39948 24.6194C6.81922 24.8726 6.2969 25.242 5.86468 25.7047C5.43247 26.1674 5.0995 26.7138 4.88628 27.31C4.67306 27.9063 4.58409 28.54 4.62487 29.1719V35.3739C4.62487 39.9558 7.48894 44.0115 11.8341 44.8354V56.8285C11.8341 59.6923 13.6485 60.0015 14.4294 60.0015C15.5909 60.0015 16.5472 59.1235 17.0016 57.6039L20.2383 45.0015H39.7643L43.0137 57.6546C43.1199 58.2743 43.429 58.841 43.8923 59.2659C44.3556 59.6907 44.9469 59.9495 45.5732 60.0015C46.3541 60.0015 48.1685 59.6923 48.1685 56.8285V44.8389C52.5137 44.0115 55.3778 39.9558 55.3778 35.3773V29.1719C55.4115 28.5416 55.3177 27.9109 55.1019 27.3176C54.8861 26.7244 54.5528 26.1809 54.122 25.7196C53.6911 25.2584 53.1716 24.8889 52.5946 24.6333C52.0175 24.3777 51.3949 24.2414 50.7639 24.2323ZM11.8341 14.2804C11.7942 12.937 12.0269 11.5994 12.5181 10.3484C13.0093 9.09749 13.7489 7.9591 14.6922 7.00202C15.6355 6.04495 16.7629 5.28904 18.0064 4.77995C19.2499 4.27086 20.5836 4.01914 21.927 4.04001H38.0756C39.419 4.01914 40.7528 4.27086 41.9962 4.77995C43.2397 5.28904 44.3671 6.04495 45.3104 7.00202C46.2537 7.9591 46.9933 9.09749 47.4845 10.3484C47.9758 11.5994 48.2084 12.937 48.1685 14.2804V24.9996C47.4665 25.4473 46.8877 26.0636 46.4847 26.7923C46.0818 27.5211 45.8675 28.3391 45.8616 29.1719V32.2735C45.8944 32.6668 45.8455 33.0626 45.718 33.4361C45.5905 33.8096 45.3872 34.1527 45.1209 34.4438C44.8545 34.735 44.5308 34.9679 44.1702 35.128C43.8096 35.288 43.4197 35.3717 43.0252 35.3739H16.9774C16.5829 35.3717 16.1931 35.288 15.8324 35.128C15.4718 34.9679 15.1481 34.735 14.8818 34.4438C14.6154 34.1527 14.4121 33.8096 14.2846 33.4361C14.1572 33.0626 14.1083 32.6668 14.141 32.2735V29.1719C14.141 28.3353 13.9295 27.5123 13.5261 26.7794C13.1228 26.0465 12.5407 25.4275 11.8341 24.98V14.2804ZM15.3303 57.1562C15.2749 57.3419 14.9692 58.2708 14.4294 58.2708C14.0834 58.2708 13.5643 58.2708 13.5643 56.8285V45.0015H18.4596L15.3303 57.1562ZM46.4383 56.8285C46.4383 58.2708 45.9181 58.2708 45.5732 58.2708C45.0334 58.2708 44.7277 57.3419 44.685 57.2069L41.543 45.0015H46.4383V56.8285ZM53.6475 35.3739C53.6475 39.2023 51.1514 43.2708 46.526 43.2708H13.4766C8.8512 43.2708 6.35508 39.2023 6.35508 35.3739V29.1719C6.31852 28.7686 6.36557 28.362 6.49328 27.9777C6.62099 27.5934 6.82662 27.2396 7.09729 26.9384C7.36796 26.6372 7.69785 26.3951 8.06633 26.2273C8.43481 26.0595 8.83394 25.9695 9.23876 25.9631C9.65879 25.9615 10.0749 26.0437 10.4628 26.2048C10.8507 26.366 11.2026 26.6029 11.498 26.9016C11.7933 27.2004 12.0261 27.555 12.1829 27.9448C12.3396 28.3347 12.4171 28.7518 12.4108 29.1719V32.2735C12.3798 32.894 12.4748 33.5144 12.6899 34.0972C12.9051 34.68 13.236 35.2132 13.6627 35.6646C14.0894 36.1161 14.6031 36.4764 15.1728 36.7239C15.7425 36.9714 16.3563 37.1009 16.9774 37.1046H43.0252C43.6463 37.1009 44.2602 36.9714 44.8298 36.7239C45.3995 36.4764 45.9132 36.1161 46.3399 35.6646C46.7667 35.2132 47.0976 34.68 47.3127 34.0972C47.5279 33.5144 47.6228 32.894 47.5918 32.2735V29.1719C47.5893 28.3263 47.9216 27.5141 48.516 26.9128C49.1104 26.3116 49.9185 25.9701 50.7639 25.9631C51.1674 25.9737 51.5644 26.0664 51.9309 26.2357C52.2974 26.4049 52.6256 26.647 52.8954 26.9473C53.1653 27.2475 53.3711 27.5997 53.5004 27.9821C53.6297 28.3646 53.6798 28.7695 53.6475 29.1719V35.3739Z"/>
        </g>
        <defs>
        <clipPath id="clip0">
        <rect width="60" height="60" fill="white"/>
        </clipPath>
        </defs>
    </symbol>

    <symbol id="kid" viewBox="0 0 60 60">
        <path d="M36.9575 18.5574H36.9844C37.1018 18.5567 37.2179 18.5326 37.3258 18.4867C37.4337 18.4407 37.5311 18.3738 37.6123 18.2898C37.6936 18.2059 37.7569 18.1067 37.7987 17.998C37.8404 17.8894 37.8596 17.7735 37.8553 17.6574V15.9231C37.8596 15.8097 37.8412 15.6966 37.8012 15.5903C37.7612 15.484 37.7003 15.3865 37.6221 15.3035C37.5004 15.1732 37.3411 15.083 37.1658 15.0453C36.9906 15.0075 36.8078 15.024 36.6424 15.0925C36.4769 15.1611 36.3368 15.2783 36.2409 15.4283C36.145 15.5783 36.0981 15.7539 36.1065 15.9312V17.6678C36.1005 17.8973 36.1867 18.1199 36.3463 18.2866C36.5058 18.4534 36.7256 18.5507 36.9575 18.5574ZM31.9711 26.107C31.8636 26.0611 31.7477 26.0375 31.6307 26.0378C31.4588 26.0371 31.2906 26.0867 31.147 26.1803C31.0035 26.2739 30.8911 26.4074 30.8239 26.5639C30.7561 26.7277 30.6404 26.8677 30.4916 26.9659C30.3429 27.0642 30.1679 27.1163 29.9891 27.1154C29.873 27.1162 29.7579 27.0935 29.651 27.0485C29.5399 27.0046 29.4388 26.9391 29.3537 26.8559C29.2686 26.7726 29.2012 26.6734 29.1555 26.5639C29.0887 26.4072 28.9765 26.2736 28.8332 26.1798C28.6899 26.086 28.5217 26.0362 28.3499 26.0366C28.2328 26.0363 28.1169 26.0598 28.0094 26.1058C27.7957 26.1952 27.6266 26.3648 27.5392 26.5775C27.4517 26.7901 27.4531 27.0284 27.5431 27.2401C27.7463 27.7152 28.0864 28.1206 28.521 28.4056C28.9556 28.6906 29.4654 28.8426 29.9868 28.8426C30.5081 28.8426 31.0179 28.6906 31.4525 28.4056C31.8871 28.1206 32.2272 27.7152 32.4305 27.2401C32.4753 27.1352 32.4989 27.0227 32.4997 26.9088C32.5005 26.795 32.4787 26.6821 32.4354 26.5766C32.392 26.4711 32.3281 26.3751 32.2472 26.2942C32.1664 26.2132 32.0702 26.1488 31.9641 26.1047L31.9711 26.107ZM22.9939 18.5239C23.2251 18.5239 23.447 18.433 23.6105 18.2711C23.774 18.1093 23.8659 17.8897 23.8659 17.6608V15.9301C23.8659 15.7005 23.7738 15.4804 23.6098 15.3181C23.4458 15.1559 23.2234 15.0647 22.9915 15.0647C22.7596 15.0647 22.5372 15.1559 22.3732 15.3181C22.2092 15.4804 22.1171 15.7005 22.1171 15.9301V17.6608C22.118 17.8902 22.2109 18.1099 22.3752 18.2717C22.5396 18.4335 22.762 18.5242 22.9939 18.5239ZM28.1482 23.5904C28.6701 24.005 29.3193 24.2309 29.9885 24.2309C30.6577 24.2309 31.3069 24.005 31.8289 23.5904C32.6847 22.9445 33.4198 22.1553 34.0009 21.2585C34.285 20.8001 34.4527 20.2805 34.4896 19.744C34.5266 19.2074 34.4317 18.6701 34.2131 18.1778C33.9979 17.6907 33.6666 17.2626 33.2474 16.9302C32.8283 16.5978 32.3339 16.371 31.8067 16.2693C30.5949 16.1154 29.3682 16.1154 28.1563 16.2693C27.6319 16.3728 27.1405 16.6002 26.724 16.932C26.3075 17.2639 25.9781 17.6905 25.764 18.1754C25.5457 18.6688 25.4513 19.2071 25.4888 19.7444C25.5264 20.2816 25.6948 20.8019 25.9797 21.2608C26.5598 22.1565 27.2937 22.9449 28.1482 23.5904ZM27.3671 18.8678C27.4646 18.6463 27.6131 18.4505 27.8008 18.2961C27.9885 18.1416 28.21 18.0327 28.4478 17.9781C29.4676 17.8535 30.499 17.8535 31.5187 17.9781C31.7591 18.0324 31.9832 18.1416 32.1731 18.2971C32.363 18.4526 32.5135 18.65 32.6123 18.8735C32.7162 19.1044 32.7628 19.3565 32.7482 19.6088C32.7336 19.8611 32.6583 20.1063 32.5284 20.3239C32.049 21.0624 31.4416 21.7112 30.7341 22.2404C30.5234 22.4094 30.2602 22.5011 29.9891 22.5001C29.7033 22.498 29.4273 22.3967 29.2091 22.2139C28.5246 21.699 27.9359 21.07 27.4696 20.3551C27.3324 20.1338 27.2513 19.8829 27.2334 19.6239C27.2156 19.3649 27.2614 19.1054 27.3671 18.8678ZM49.809 45.0843C49.4517 44.7141 49.0563 44.3819 48.6291 44.0931L47.5798 43.387L48.5475 42.5793C49.0724 42.1419 49.4951 41.597 49.7865 40.9823C50.078 40.3676 50.2312 39.6976 50.2357 39.0185C50.2287 36.1916 47.8865 34.6339 46.0012 33.3808L45.3309 32.9297C44.8354 32.5997 44.3352 32.2662 43.8316 31.9385L42.7939 31.2658L43.7091 30.4362C43.9785 30.1928 44.2408 29.9401 44.4553 29.7174C45.9377 28.0452 47.0148 26.0602 47.6045 23.9137C48.1943 21.7671 48.2811 19.5156 47.8585 17.3308C47.6546 16.019 47.2791 14.7391 46.7416 13.5231L46.3813 12.7085L47.1788 12.2966C47.6995 12.0242 48.1903 11.699 48.6431 11.3262C49.1359 10.8825 49.547 10.3574 49.858 9.77429C50.4767 8.57943 50.6816 7.21642 50.4409 5.89506C50.1824 4.56293 49.4637 3.3613 48.408 2.49625C47.3522 1.6312 46.0253 1.15662 44.6547 1.15391C44.4291 1.15438 44.2038 1.16709 43.9796 1.19198C42.9411 1.29525 41.9497 1.67255 41.1089 2.28449C40.2681 2.89643 39.6086 3.72056 39.1995 4.67083L38.8241 5.54314L37.9404 5.17852C36.8719 4.73586 35.7648 4.39095 34.6328 4.14814C33.1557 3.83909 31.6504 3.68172 30.1407 3.67852H30.0241L29.8084 3.6716C28.3126 3.67849 26.8215 3.83662 25.3582 4.14352C24.2246 4.38585 23.1159 4.73077 22.046 5.17391L21.1623 5.53852L20.788 4.66621C20.3791 3.71573 19.7197 2.89136 18.8789 2.27921C18.038 1.66705 17.0465 1.28958 16.0079 1.18621C15.786 1.16344 15.563 1.15265 15.3399 1.15391C13.9703 1.1554 12.6439 1.62818 11.5878 2.49125C10.5317 3.35432 9.8118 4.55397 9.5513 5.88468C9.30795 7.2039 9.5095 8.56571 10.1249 9.76045C10.4304 10.3348 10.8321 10.8537 11.3129 11.2951C11.7776 11.6772 12.2817 12.0098 12.8169 12.2874L13.612 12.6993L13.253 13.5139C12.7124 14.7404 12.335 16.0312 12.1302 17.3539C11.7125 19.5276 11.7998 21.7668 12.3856 23.9022C12.9713 26.0376 14.0402 28.0131 15.5113 29.6793C15.7561 29.9331 16.0173 30.1858 16.2877 30.4293L17.2029 31.2589L16.1653 31.9316C15.6605 32.2593 15.1603 32.5928 14.6672 32.9228L13.991 33.3762C12.1092 34.627 9.76816 36.1847 9.76116 39.0035C9.76476 39.6848 9.91779 40.3571 10.2097 40.9741C10.5015 41.5911 10.9253 42.138 11.4517 42.577L12.4205 43.3847L11.3712 44.0908C10.9499 44.3758 10.5592 44.7029 10.2054 45.067C9.40545 45.9272 8.80648 46.951 8.45087 48.0659C8.09526 49.1807 7.99172 50.3593 8.14759 51.5181C8.36498 53.1604 9.07775 54.6996 10.1928 55.9346C11.3078 57.1697 12.7733 58.0433 14.3979 58.4412C15.3456 58.7102 16.3266 58.8472 17.3125 58.8485C19.7505 58.7535 22.138 58.1321 24.3078 57.0278L24.5969 56.9354H24.7846C24.9768 56.9357 25.1665 56.9787 25.3396 57.0612C26.6275 57.6783 28.0273 58.0338 29.4563 58.1066L29.5566 58.1124L29.6452 58.1354C29.6452 58.1354 29.9168 58.1193 30.0078 58.1193C30.0765 58.1193 30.3575 58.1331 30.3575 58.1331L30.4461 58.1112H30.5359C31.9617 58.0397 33.3586 57.6867 34.6444 57.0728C34.8194 56.988 35.0116 56.9438 35.2064 56.9435L35.5562 56.9666L35.7625 57.0704C37.9006 58.1493 40.25 58.7552 42.6482 58.8462H42.6645C43.6703 58.8454 44.671 58.7052 45.6375 58.4297C47.255 58.0279 48.7129 57.1535 49.8214 55.9204C50.9299 54.6873 51.6378 53.1525 51.8528 51.5158C52.0083 50.3611 51.9059 49.1867 51.5527 48.0754C51.1996 46.9641 50.6044 45.9431 49.809 45.0843ZM50.1203 51.2989C49.951 52.5887 49.3934 53.7982 48.5201 54.7702C47.6468 55.7421 46.4981 56.4314 45.2236 56.7485L45.1933 56.7566L45.163 56.7647C44.3571 56.9937 43.5228 57.1102 42.6843 57.1108C40.5515 57.0229 38.4633 56.4785 36.5635 55.5151L36.3571 55.4101L36.0342 55.2474L35.6728 55.2243L35.323 55.2024H35.2111C34.7529 55.2024 34.3007 55.3058 33.889 55.5047C32.8123 56.0191 31.6425 56.3153 30.4485 56.3758H30.3587L30.199 56.3851H30.1896L30.0101 56.3793C29.9681 56.3793 29.8935 56.3793 29.8236 56.3851L29.6603 56.3758L29.5507 56.3689C28.3584 56.3089 27.1902 56.0135 26.1149 55.5001C25.7014 55.3001 25.2472 55.1959 24.787 55.1954H24.3206L24.0606 55.2785L23.7703 55.3708L23.6363 55.4135L23.5092 55.4781C21.5765 56.4615 19.452 57.02 17.2811 57.1154C16.4674 57.1115 15.6581 56.9969 14.8759 56.7751L14.8444 56.7658L14.8129 56.7589C13.5312 56.4438 12.375 55.7541 11.4948 54.7797C10.6146 53.8053 10.0511 52.5912 9.87775 51.2954C9.75515 50.394 9.83346 49.4769 10.1072 48.6086C10.3809 47.7403 10.8434 46.9418 11.4622 46.2693C11.7317 45.9921 12.0294 45.7431 12.3506 45.5262L13.3999 44.8189L15.2991 43.5347L13.5421 42.0647L12.5744 41.257C12.2437 40.9812 11.9771 40.6381 11.7928 40.2509C11.6085 39.8638 11.5108 39.4418 11.5065 39.0139C11.5065 37.2497 12.9417 36.1628 14.9691 34.8139L15.643 34.3628C16.1303 34.0362 16.6235 33.7074 17.1202 33.3843L18.1578 32.7116L20.0395 31.4908L18.3793 29.9908L17.4594 29.1578C17.2263 28.9512 17.0082 28.7366 16.7996 28.5208C15.5063 27.0451 14.5693 25.2975 14.0595 23.4104C13.5497 21.5233 13.4804 19.5461 13.8569 17.6285C14.0395 16.4526 14.375 15.3051 14.8549 14.2143L15.214 13.3997L15.8645 11.9228L14.4212 11.1751L13.626 10.762C13.2137 10.5495 12.825 10.295 12.466 10.0028C12.1492 9.7058 11.8834 9.35973 11.679 8.97814C11.2404 8.1279 11.0958 7.1587 11.2675 6.21929C11.449 5.28173 11.9548 4.43602 12.698 3.82749C13.4412 3.21895 14.3753 2.88558 15.3399 2.88468C15.5035 2.88502 15.667 2.89465 15.8295 2.91352C16.5572 2.98496 17.2522 3.24862 17.8416 3.67692C18.4311 4.10522 18.8934 4.68242 19.1803 5.34814L19.5557 6.22045L20.2366 7.80352L21.8396 7.14006L22.7234 6.77429C23.6926 6.37373 24.6967 6.06129 25.7232 5.84083C27.0597 5.56135 28.4214 5.416 29.7874 5.40698L29.9693 5.41275H30.1756C31.5501 5.41893 32.9205 5.56313 34.2655 5.84314C35.2937 6.06357 36.2993 6.37641 37.27 6.77775L38.1526 7.14352L39.7568 7.80698L40.4365 6.22506L40.8119 5.35045C41.0993 4.68377 41.5628 4.10593 42.1535 3.67756C42.7443 3.24919 43.4407 2.98608 44.1697 2.91583C44.3307 2.89764 44.4926 2.88839 44.6547 2.88814C45.6169 2.88906 46.5488 3.2209 47.2911 3.82689C48.0333 4.43287 48.5397 5.27532 48.7236 6.21006C48.896 7.14947 48.7526 8.11891 48.3155 8.97006C48.1049 9.36458 47.829 9.72143 47.4994 10.0258C47.1492 10.3069 46.7715 10.5528 46.372 10.7597L45.5745 11.1716L44.1277 11.9193L44.7806 13.3985L45.1408 14.2143C45.6247 15.3106 45.961 16.4651 46.1411 17.6481C46.5115 19.5692 46.436 21.5485 45.9201 23.4365C45.4043 25.3244 44.4617 27.0717 43.1635 28.5462C42.9793 28.7366 42.7566 28.9501 42.5281 29.1566L41.6129 29.9851L39.9527 31.4851L41.8356 32.7058L42.8709 33.3774C43.3687 33.7016 43.863 34.0304 44.348 34.3547L45.0254 34.8162C47.0494 36.1616 48.4822 37.2508 48.4869 39.0081C48.4839 39.4372 48.3867 39.8606 48.2021 40.2489C48.0175 40.6371 47.7499 40.9811 47.4178 41.257L46.4501 42.0647L44.6931 43.5347L46.5935 44.8166L47.6428 45.5239C47.9596 45.7369 48.2534 45.9817 48.5195 46.2543C49.1434 46.9277 49.6099 47.7287 49.8862 48.6005C50.1624 49.4723 50.2415 50.3935 50.118 51.2989H50.1203ZM19.9626 45.0185C19.9043 45.0063 19.8449 45.0001 19.7854 45.0001C19.5679 45.0012 19.3588 45.0825 19.1986 45.228C19.0385 45.3735 18.9388 45.5729 18.9192 45.7872C18.8995 46.0015 18.9612 46.2153 19.0923 46.387C19.2233 46.5587 19.4143 46.676 19.628 46.7158C19.762 46.7435 22.9239 47.4485 22.7315 52.3893C22.7286 52.5053 22.749 52.6207 22.7915 52.7288C22.8339 52.8369 22.8977 52.9356 22.9791 53.0191C23.0604 53.1026 23.1577 53.1693 23.2653 53.2153C23.373 53.2613 23.4887 53.2856 23.6059 53.287H23.6118C23.835 53.2852 24.049 53.199 24.2101 53.046C24.3712 52.8931 24.467 52.6849 24.478 52.4643C24.584 51.3561 24.4518 50.2383 24.0901 49.1843C23.7284 48.1303 23.1454 47.164 22.3794 46.3489C21.708 45.7002 20.8736 45.2409 19.9626 45.0185ZM40.6242 45.112C40.4941 45.0365 40.346 44.9967 40.1952 44.9966C40.1364 44.996 40.0777 45.0022 40.0203 45.0151L39.8268 45.0681C38.9872 45.3085 38.2207 45.7505 37.5953 46.3547C36.8323 47.1691 36.2517 48.1338 35.8915 49.1857C35.5313 50.2375 35.3995 51.3528 35.5049 52.4585C35.513 52.6818 35.6086 52.8931 35.7713 53.0479C35.934 53.2027 36.1512 53.2889 36.3769 53.2881H36.4119C36.5267 53.2835 36.6394 53.2566 36.7436 53.2089C36.8479 53.1612 36.9416 53.0936 37.0194 53.01C37.0973 52.9264 37.1577 52.8285 37.1973 52.7218C37.2369 52.6151 37.2549 52.5017 37.2502 52.3881C37.0613 47.5108 40.2267 46.7412 40.3631 46.7101C40.4758 46.6875 40.5829 46.6431 40.6782 46.5795C40.7735 46.5158 40.8551 46.4341 40.9184 46.3391C40.9817 46.2441 41.0253 46.1376 41.0469 46.0258C41.0684 45.914 41.0674 45.7991 41.0439 45.6878C41.0169 45.5695 40.9659 45.4578 40.8942 45.3595C40.8225 45.2611 40.7315 45.1781 40.6266 45.1154L40.6242 45.112ZM35.6762 44.8812C35.6166 44.7835 35.5371 44.6991 35.4428 44.6334C35.3484 44.5676 35.2414 44.522 35.1283 44.4993C35.0643 44.4858 34.999 44.4788 34.9336 44.4785C34.7244 44.4811 34.5228 44.5564 34.3641 44.6911C34.2053 44.8259 34.0994 45.0116 34.065 45.2158C33.9011 45.8582 33.5265 46.4287 32.9999 46.8377C32.4733 47.2468 31.8244 47.4713 31.155 47.4762H28.9282C28.1292 47.469 27.365 47.1515 26.8002 46.5921C26.2354 46.0327 25.9152 45.2762 25.9085 44.4854V42.2147C25.9174 41.425 26.2386 40.6703 26.8034 40.1124C27.3682 39.5545 28.1314 39.238 28.9293 39.2308H31.1713C31.8506 39.2276 32.5104 39.4548 33.0408 39.8748C33.5712 40.2947 33.9401 40.882 34.086 41.5385C34.133 41.7249 34.2416 41.8904 34.3946 42.0087C34.5475 42.127 34.736 42.1914 34.9301 42.1916C35.0037 42.1918 35.077 42.1825 35.1481 42.1639C35.3662 42.1104 35.5548 41.9753 35.6744 41.787C35.7939 41.5988 35.8352 41.372 35.7893 41.1543C35.558 40.113 34.9725 39.1819 34.1306 38.5167C33.2887 37.8515 32.2416 37.4926 31.1643 37.5001H28.9398C27.675 37.5031 26.4627 38.0009 25.5673 38.8849C24.6718 39.769 24.1659 40.9676 24.1597 42.2193V44.4901C24.1656 45.742 24.6714 46.9409 25.5669 47.8252C26.4623 48.7094 27.6748 49.2074 28.9398 49.2104H31.155C32.2331 49.2087 33.2786 48.8445 34.1202 48.1777C34.9617 47.5108 35.5495 46.5808 35.787 45.5401C35.8138 45.4292 35.818 45.3141 35.7994 45.2016C35.7808 45.089 35.7397 44.9813 35.6786 44.8847L35.6762 44.8812Z"/>
    </symbol>

    <symbol id="arr_pre" viewBox="0 0 15 28">
        <path d="M1.94323 13.9987L14.7645 1.35284C14.8391 1.2793 14.8983 1.19198 14.9387 1.09586C14.9791 0.999751 15 0.896729 15 0.792679C15.0001 0.58254 14.9155 0.380971 14.765 0.232315C14.6144 0.0836591 14.4101 9.2828e-05 14.197 4.22346e-08C13.984 -9.27435e-05 13.7796 0.0832955 13.6289 0.23182L6.93238 6.83622L0.23587 13.4406C0.161104 13.5142 0.101784 13.6015 0.0613092 13.6977C0.0208343 13.7939 -6.07457e-07 13.897 -6.12009e-07 14.0011C-6.16561e-07 14.1053 0.0208343 14.2084 0.0613092 14.3046C0.101784 14.4008 0.161104 14.4881 0.23587 14.5616L13.6289 27.7655C13.7787 27.9137 13.9815 27.9979 14.1937 28C14.299 28.0003 14.4032 27.9798 14.5003 27.9395C14.5973 27.8992 14.6851 27.84 14.7584 27.7655C14.8332 27.692 14.8925 27.6046 14.933 27.5084C14.9735 27.4122 14.9943 27.3091 14.9943 27.205C14.9943 27.1009 14.9735 26.9977 14.933 26.9016C14.8925 26.8054 14.8332 26.718 14.7584 26.6445L1.94323 13.9987Z"/>
    </symbol>

    <symbol id="arr_nxt" viewBox="0 0 15 28">
        <path d="M13.0568 14.0013L0.235538 26.6472C0.16091 26.7207 0.101699 26.808 0.061285 26.9041C0.0208714 27.0002 4.67714e-05 27.1033 1.82353e-07 27.2073C-9.39086e-05 27.4175 0.084451 27.619 0.235036 27.7677C0.385621 27.9163 0.589911 27.9999 0.802965 28C1.01602 28.0001 1.22038 27.9167 1.3711 27.7682L8.06762 21.1638L14.7641 14.5594C14.8389 14.4858 14.8982 14.3985 14.9387 14.3023C14.9792 14.2061 15 14.103 15 13.9989C15 13.8947 14.9792 13.7916 14.9387 13.6954C14.8982 13.5992 14.8389 13.5119 14.7641 13.4384L1.3711 0.234499C1.22133 0.0862753 1.01849 0.00205244 0.806333 3.92043e-06C0.701049 -0.000343231 0.596775 0.0202428 0.499739 0.0605317C0.402702 0.100821 0.314894 0.159988 0.24156 0.234499C0.166794 0.308029 0.107474 0.395388 0.0669992 0.49157C0.0265241 0.587751 0.00568961 0.69087 0.00568959 0.795008C0.00568958 0.899145 0.026524 1.00226 0.0669991 1.09844C0.107474 1.19462 0.166794 1.28199 0.24156 1.35552L13.0568 14.0013Z"/>
    </symbol>

    <symbol id="facebook" viewBox="0 0 9 18">
        <path opacity="0.5" fill-rule="evenodd" clip-rule="evenodd" d="M8.66199 0.00323436L6.50229 0C4.07711 0 2.50893 1.73847 2.50893 4.42945V6.47195H0.338762C0.151807 6.47195 0 6.63609 0 6.83905V9.79848C0 10.0006 0.151807 10.1648 0.338762 10.1648H2.50893V17.6337C2.50893 17.8359 2.66224 18 2.84994 18H5.68118C5.86888 18 6.02069 17.8359 6.02069 17.6337V10.1648H8.55804C8.74574 10.1648 8.89755 10.0006 8.89755 9.79848L8.89904 6.83905C8.89904 6.74202 8.86315 6.64903 8.79958 6.57949C8.73602 6.51076 8.64927 6.47195 8.55879 6.47195H6.02069V4.74076C6.02069 3.90872 6.20391 3.48583 7.20673 3.48583L8.66049 3.48502C8.84819 3.48502 9 3.32088 9 3.11873V0.371142C9 0.167378 8.84819 0.00404294 8.66199 0.00323436Z" fill="#28292F"/>
    </symbol>

    <symbol id="insta" viewBox="0 0 18 18">
        <path opacity="0.5" fill-rule="evenodd" clip-rule="evenodd" d="M16.3125 12.9975C16.3125 14.8324 14.8091 16.3248 12.9608 16.3248H4.93994C3.09163 16.3248 1.58824 14.8324 1.58824 12.9975V5.03536C1.58824 3.20054 3.09163 1.70799 4.93994 1.70799H12.9608C14.8091 1.70799 16.3125 3.20054 16.3125 5.03536V12.9975ZM12.9608 0.131348H4.93994C2.21585 0.131348 0 2.33116 0 5.03536V12.9975C0 15.7017 2.21585 17.9014 4.93994 17.9014H12.9608C15.6849 17.9014 17.9007 15.7012 17.9007 12.9975V5.03536C17.9007 2.33116 15.6849 0.131348 12.9608 0.131348ZM8.95041 12.0183C7.28303 12.0183 5.92588 10.6721 5.92588 9.01637C5.92588 7.36129 7.2825 6.01404 8.95041 6.01404C10.6183 6.01404 11.9749 7.36129 11.9749 9.01637C11.9749 10.6721 10.6178 12.0183 8.95041 12.0183ZM8.95041 4.43793C6.40672 4.43793 4.33765 6.4919 4.33765 9.01637C4.33765 11.5415 6.40672 13.5955 8.95041 13.5955C11.4936 13.5955 13.5632 11.5415 13.5632 9.01637C13.5632 6.4919 11.4936 4.43793 8.95041 4.43793ZM12.9338 3.43917C13.15 3.2237 13.4503 3.10098 13.7564 3.10098C14.0634 3.10098 14.3639 3.2237 14.58 3.43917C14.7971 3.65373 14.9212 3.95237 14.9212 4.25732C14.9212 4.56056 14.7971 4.85933 14.58 5.07481C14.3628 5.28936 14.0634 5.41313 13.7564 5.41313C13.4503 5.41313 13.1494 5.28936 12.9338 5.07481C12.7168 4.85933 12.5916 4.56108 12.5916 4.25732C12.5916 3.95237 12.7162 3.65373 12.9338 3.43917Z" fill="#28292F"/>
    </symbol>

    <symbol id="youtube" viewBox="0 0 21 15">
        <path opacity="0.5" fill-rule="evenodd" clip-rule="evenodd" d="M13.5385 7.80139L7.85923 10.5659C7.7079 10.6397 7.5331 10.527 7.5331 10.3559V4.65399C7.5331 4.48046 7.71249 4.36803 7.86414 4.44643L13.5435 7.38378C13.7123 7.4711 13.7094 7.71826 13.5385 7.80139ZM16.4557 0H4.3135C1.93122 0 0 1.97105 0 4.40251V10.5975C0 13.0289 1.93122 15 4.3135 15H16.4557C18.838 15 20.7692 13.0289 20.7692 10.5975V4.40251C20.7692 1.97105 18.838 0 16.4557 0Z" fill="#28292F"/>
    </symbol>

    <symbol id="brander" viewBox="0 0 148 12">
      <path opacity="0.5" d="M0.32 9C0.24 9 0.172 8.976 0.116 8.928C0.068 8.872 0.0440001 8.804 0.0440001 8.724V0.887999C0.0440001 0.799999 0.068 0.732 0.116 0.684C0.172 0.628 0.24 0.599999 0.32 0.599999H3.368C4.272 0.599999 4.984 0.819999 5.504 1.26C6.024 1.7 6.284 2.336 6.284 3.168C6.284 4 6.024 4.636 5.504 5.076C4.992 5.508 4.28 5.724 3.368 5.724H1.244V8.724C1.244 8.804 1.216 8.872 1.16 8.928C1.104 8.976 1.036 9 0.956 9H0.32ZM3.308 4.716C3.892 4.716 4.332 4.584 4.628 4.32C4.932 4.056 5.084 3.672 5.084 3.168C5.084 2.664 4.936 2.28 4.64 2.016C4.344 1.744 3.9 1.608 3.308 1.608H1.232V4.716H3.308ZM9.44722 9.12C9.05522 9.12 8.69122 9.04 8.35522 8.88C8.01922 8.72 7.75122 8.504 7.55122 8.232C7.35922 7.952 7.26322 7.644 7.26322 7.308C7.26322 6.78 7.47922 6.348 7.91122 6.012C8.35122 5.668 8.94322 5.444 9.68722 5.34L11.4752 5.088V4.74C11.4752 3.924 11.0072 3.516 10.0712 3.516C9.71922 3.516 9.43122 3.592 9.20722 3.744C8.98322 3.888 8.81522 4.06 8.70322 4.26C8.67922 4.332 8.64722 4.384 8.60722 4.416C8.57522 4.448 8.52722 4.464 8.46322 4.464H7.94722C7.87522 4.464 7.81122 4.44 7.75522 4.392C7.70722 4.336 7.68322 4.272 7.68322 4.2C7.69122 4.008 7.77922 3.792 7.94722 3.552C8.12322 3.304 8.39122 3.092 8.75122 2.916C9.11122 2.732 9.55522 2.64 10.0832 2.64C10.9792 2.64 11.6232 2.852 12.0152 3.276C12.4072 3.692 12.6032 4.212 12.6032 4.836V8.724C12.6032 8.804 12.5752 8.872 12.5192 8.928C12.4712 8.976 12.4072 9 12.3272 9H11.7752C11.6952 9 11.6272 8.976 11.5712 8.928C11.5232 8.872 11.4992 8.804 11.4992 8.724V8.208C11.3232 8.464 11.0672 8.68 10.7312 8.856C10.3952 9.032 9.96722 9.12 9.44722 9.12ZM9.69922 8.22C10.2192 8.22 10.6432 8.052 10.9712 7.716C11.3072 7.372 11.4752 6.88 11.4752 6.24V5.904L10.0832 6.108C9.51522 6.188 9.08722 6.324 8.79922 6.516C8.51122 6.7 8.36722 6.936 8.36722 7.224C8.36722 7.544 8.49922 7.792 8.76322 7.968C9.02722 8.136 9.33922 8.22 9.69922 8.22ZM16.6203 9.12C16.0363 9.12 15.5523 9.028 15.1683 8.844C14.7923 8.66 14.5163 8.436 14.3403 8.172C14.1723 7.908 14.0843 7.648 14.0763 7.392V7.368C14.0763 7.304 14.1003 7.252 14.1483 7.212C14.1963 7.172 14.2523 7.152 14.3163 7.152H14.8803C15.0243 7.152 15.1203 7.228 15.1683 7.38C15.2563 7.684 15.4283 7.9 15.6843 8.028C15.9483 8.148 16.2923 8.208 16.7163 8.208C17.1243 8.208 17.4603 8.124 17.7243 7.956C17.9883 7.788 18.1203 7.54 18.1203 7.212C18.1203 6.876 18.0243 6.628 17.8323 6.468C17.6483 6.3 17.3603 6.216 16.9683 6.216H16.3083C16.2363 6.216 16.1763 6.192 16.1283 6.144C16.0803 6.096 16.0563 6.032 16.0563 5.952V5.628C16.0563 5.548 16.0803 5.484 16.1283 5.436C16.1763 5.388 16.2363 5.364 16.3083 5.364H16.8963C17.5763 5.364 17.9163 5.096 17.9163 4.56C17.9163 4.272 17.8123 4.032 17.6043 3.84C17.4043 3.648 17.0763 3.552 16.6203 3.552C16.1803 3.552 15.8603 3.628 15.6603 3.78C15.4683 3.924 15.3283 4.156 15.2403 4.476C15.2083 4.556 15.1683 4.616 15.1203 4.656C15.0803 4.688 15.0203 4.704 14.9403 4.704H14.4003C14.3283 4.704 14.2683 4.684 14.2203 4.644C14.1723 4.596 14.1483 4.54 14.1483 4.476C14.1563 4.148 14.2523 3.844 14.4363 3.564C14.6203 3.284 14.8963 3.06 15.2643 2.892C15.6323 2.724 16.0843 2.64 16.6203 2.64C17.1803 2.64 17.6403 2.728 18.0003 2.904C18.3603 3.08 18.6203 3.3 18.7803 3.564C18.9403 3.828 19.0203 4.104 19.0203 4.392C19.0203 4.72 18.9643 4.988 18.8523 5.196C18.7483 5.396 18.5563 5.564 18.2763 5.7C18.6203 5.828 18.8643 6.028 19.0083 6.3C19.1603 6.572 19.2363 6.904 19.2363 7.296C19.2363 7.88 18.9963 8.332 18.5163 8.652C18.0363 8.964 17.4043 9.12 16.6203 9.12ZM20.9969 11.28C20.9169 11.28 20.8489 11.252 20.7929 11.196C20.7449 11.148 20.7209 11.084 20.7209 11.004V3.036C20.7209 2.956 20.7449 2.892 20.7929 2.844C20.8489 2.788 20.9169 2.76 20.9969 2.76H21.5489C21.6289 2.76 21.6929 2.788 21.7409 2.844C21.7969 2.892 21.8249 2.956 21.8249 3.036V3.564C22.2729 2.948 22.9289 2.64 23.7929 2.64C24.6329 2.64 25.2609 2.904 25.6769 3.432C26.1009 3.96 26.3289 4.64 26.3609 5.472C26.3689 5.56 26.3729 5.696 26.3729 5.88C26.3729 6.064 26.3689 6.2 26.3609 6.288C26.3289 7.112 26.1009 7.792 25.6769 8.328C25.2529 8.856 24.6249 9.12 23.7929 9.12C22.9609 9.12 22.3129 8.82 21.8489 8.22V11.004C21.8489 11.084 21.8249 11.148 21.7769 11.196C21.7289 11.252 21.6649 11.28 21.5849 11.28H20.9969ZM23.5409 8.148C24.1089 8.148 24.5209 7.972 24.7769 7.62C25.0409 7.268 25.1849 6.804 25.2089 6.228C25.2169 6.148 25.2209 6.032 25.2209 5.88C25.2209 4.368 24.6609 3.612 23.5409 3.612C22.9889 3.612 22.5729 3.796 22.2929 4.164C22.0209 4.524 21.8729 4.956 21.8489 5.46L21.8369 5.916L21.8489 6.384C21.8649 6.856 22.0169 7.268 22.3049 7.62C22.5929 7.972 23.0049 8.148 23.5409 8.148ZM29.7174 9.12C29.3254 9.12 28.9614 9.04 28.6254 8.88C28.2894 8.72 28.0214 8.504 27.8214 8.232C27.6294 7.952 27.5334 7.644 27.5334 7.308C27.5334 6.78 27.7494 6.348 28.1814 6.012C28.6214 5.668 29.2134 5.444 29.9574 5.34L31.7454 5.088V4.74C31.7454 3.924 31.2774 3.516 30.3414 3.516C29.9894 3.516 29.7014 3.592 29.4774 3.744C29.2534 3.888 29.0854 4.06 28.9734 4.26C28.9494 4.332 28.9174 4.384 28.8774 4.416C28.8454 4.448 28.7974 4.464 28.7334 4.464H28.2174C28.1454 4.464 28.0814 4.44 28.0254 4.392C27.9774 4.336 27.9534 4.272 27.9534 4.2C27.9614 4.008 28.0494 3.792 28.2174 3.552C28.3934 3.304 28.6614 3.092 29.0214 2.916C29.3814 2.732 29.8254 2.64 30.3534 2.64C31.2494 2.64 31.8934 2.852 32.2854 3.276C32.6774 3.692 32.8734 4.212 32.8734 4.836V8.724C32.8734 8.804 32.8454 8.872 32.7894 8.928C32.7414 8.976 32.6774 9 32.5974 9H32.0454C31.9654 9 31.8974 8.976 31.8414 8.928C31.7934 8.872 31.7694 8.804 31.7694 8.724V8.208C31.5934 8.464 31.3374 8.68 31.0014 8.856C30.6654 9.032 30.2374 9.12 29.7174 9.12ZM29.9694 8.22C30.4894 8.22 30.9134 8.052 31.2414 7.716C31.5774 7.372 31.7454 6.88 31.7454 6.24V5.904L30.3534 6.108C29.7854 6.188 29.3574 6.324 29.0694 6.516C28.7814 6.7 28.6374 6.936 28.6374 7.224C28.6374 7.544 28.7694 7.792 29.0334 7.968C29.2974 8.136 29.6094 8.22 29.9694 8.22ZM40.1785 5.736C40.1865 5.816 40.1905 5.944 40.1905 6.12C40.1905 6.272 40.1865 6.38 40.1785 6.444C40.1465 7.252 39.8865 7.9 39.3985 8.388C38.9185 8.876 38.2385 9.12 37.3585 9.12C36.4545 9.12 35.7665 8.864 35.2945 8.352C34.8225 7.84 34.5705 7.136 34.5385 6.24L34.5265 5.52L34.5385 4.8C34.5465 3.656 34.6985 2.8 34.9945 2.232C35.2985 1.656 35.7265 1.244 36.2785 0.995999C36.8385 0.739999 37.7425 0.447999 38.9905 0.12L39.2785 0.0479994L39.3385 0.0359995C39.4025 0.0359995 39.4585 0.0599995 39.5065 0.107999C39.5625 0.147999 39.5945 0.195999 39.6025 0.252L39.6985 0.744L39.7105 0.816C39.7105 0.872 39.6905 0.92 39.6505 0.96C39.6185 1 39.5705 1.028 39.5065 1.044L38.9065 1.188C37.9865 1.412 37.3265 1.604 36.9265 1.764C36.5265 1.924 36.2145 2.176 35.9905 2.52C35.7745 2.856 35.6545 3.36 35.6305 4.032C35.8225 3.744 36.0945 3.512 36.4465 3.336C36.7985 3.152 37.1705 3.06 37.5625 3.06C38.3705 3.06 38.9985 3.308 39.4465 3.804C39.9025 4.292 40.1465 4.936 40.1785 5.736ZM39.0265 6.396C39.0345 6.34 39.0385 6.248 39.0385 6.12C39.0385 5.976 39.0345 5.868 39.0265 5.796C39.0105 5.212 38.8585 4.76 38.5705 4.44C38.2905 4.112 37.9225 3.948 37.4665 3.948C36.9545 3.948 36.5345 4.112 36.2065 4.44C35.8865 4.76 35.7145 5.212 35.6905 5.796L35.6785 6.12L35.6905 6.396C35.7145 6.988 35.8745 7.444 36.1705 7.764C36.4665 8.076 36.8625 8.232 37.3585 8.232C37.8625 8.232 38.2625 8.076 38.5585 7.764C38.8545 7.444 39.0105 6.988 39.0265 6.396ZM44.3671 9.12C43.4871 9.12 42.8031 8.872 42.3151 8.376C41.8351 7.88 41.5791 7.22 41.5471 6.396L41.5351 5.88L41.5471 5.364C41.5791 4.548 41.8391 3.892 42.3271 3.396C42.8151 2.892 43.4951 2.64 44.3671 2.64C45.2391 2.64 45.9191 2.892 46.4071 3.396C46.8951 3.892 47.1551 4.548 47.1871 5.364C47.1951 5.452 47.1991 5.624 47.1991 5.88C47.1991 6.136 47.1951 6.308 47.1871 6.396C47.1551 7.22 46.8951 7.88 46.4071 8.376C45.9271 8.872 45.2471 9.12 44.3671 9.12ZM44.3671 8.196C44.8711 8.196 45.2671 8.036 45.5551 7.716C45.8511 7.396 46.0111 6.936 46.0351 6.336C46.0431 6.256 46.0471 6.104 46.0471 5.88C46.0471 5.656 46.0431 5.504 46.0351 5.424C46.0111 4.824 45.8511 4.364 45.5551 4.044C45.2671 3.724 44.8711 3.564 44.3671 3.564C43.8631 3.564 43.4631 3.724 43.1671 4.044C42.8711 4.364 42.7151 4.824 42.6991 5.424L42.6871 5.88L42.6991 6.336C42.7151 6.936 42.8711 7.396 43.1671 7.716C43.4631 8.036 43.8631 8.196 44.3671 8.196ZM50.7298 9C50.6498 9 50.5818 8.976 50.5258 8.928C50.4778 8.872 50.4538 8.804 50.4538 8.724V3.72H48.3658C48.2858 3.72 48.2178 3.696 48.1618 3.648C48.1138 3.592 48.0898 3.524 48.0898 3.444V3.036C48.0898 2.956 48.1138 2.892 48.1618 2.844C48.2178 2.788 48.2858 2.76 48.3658 2.76H53.6458C53.7258 2.76 53.7898 2.788 53.8378 2.844C53.8938 2.892 53.9218 2.956 53.9218 3.036V3.444C53.9218 3.524 53.8938 3.592 53.8378 3.648C53.7898 3.696 53.7258 3.72 53.6458 3.72H51.5578V8.724C51.5578 8.804 51.5338 8.872 51.4858 8.928C51.4378 8.976 51.3738 9 51.2938 9H50.7298ZM56.8224 9.12C56.4304 9.12 56.0664 9.04 55.7304 8.88C55.3944 8.72 55.1264 8.504 54.9264 8.232C54.7344 7.952 54.6384 7.644 54.6384 7.308C54.6384 6.78 54.8544 6.348 55.2864 6.012C55.7264 5.668 56.3184 5.444 57.0624 5.34L58.8504 5.088V4.74C58.8504 3.924 58.3824 3.516 57.4464 3.516C57.0944 3.516 56.8064 3.592 56.5824 3.744C56.3584 3.888 56.1904 4.06 56.0784 4.26C56.0544 4.332 56.0224 4.384 55.9824 4.416C55.9504 4.448 55.9024 4.464 55.8384 4.464H55.3224C55.2504 4.464 55.1864 4.44 55.1304 4.392C55.0824 4.336 55.0584 4.272 55.0584 4.2C55.0664 4.008 55.1544 3.792 55.3224 3.552C55.4984 3.304 55.7664 3.092 56.1264 2.916C56.4864 2.732 56.9304 2.64 57.4584 2.64C58.3544 2.64 58.9984 2.852 59.3904 3.276C59.7824 3.692 59.9784 4.212 59.9784 4.836V8.724C59.9784 8.804 59.9504 8.872 59.8944 8.928C59.8464 8.976 59.7824 9 59.7024 9H59.1504C59.0704 9 59.0024 8.976 58.9464 8.928C58.8984 8.872 58.8744 8.804 58.8744 8.724V8.208C58.6984 8.464 58.4424 8.68 58.1064 8.856C57.7704 9.032 57.3424 9.12 56.8224 9.12ZM57.0744 8.22C57.5944 8.22 58.0184 8.052 58.3464 7.716C58.6824 7.372 58.8504 6.88 58.8504 6.24V5.904L57.4584 6.108C56.8904 6.188 56.4624 6.324 56.1744 6.516C55.8864 6.7 55.7424 6.936 55.7424 7.224C55.7424 7.544 55.8744 7.792 56.1384 7.968C56.4024 8.136 56.7144 8.22 57.0744 8.22ZM62.0995 9C62.0195 9 61.9515 8.976 61.8955 8.928C61.8475 8.872 61.8235 8.804 61.8235 8.724V3.036C61.8235 2.956 61.8475 2.892 61.8955 2.844C61.9515 2.788 62.0195 2.76 62.0995 2.76H62.6755C62.7555 2.76 62.8195 2.788 62.8675 2.844C62.9235 2.892 62.9515 2.956 62.9515 3.036V5.34H66.2155V3.036C66.2155 2.956 66.2395 2.892 66.2875 2.844C66.3435 2.788 66.4115 2.76 66.4915 2.76H67.0555C67.1355 2.76 67.1995 2.788 67.2475 2.844C67.3035 2.892 67.3315 2.956 67.3315 3.036V8.724C67.3315 8.804 67.3035 8.872 67.2475 8.928C67.1995 8.976 67.1355 9 67.0555 9H66.4915C66.4115 9 66.3435 8.976 66.2875 8.928C66.2395 8.872 66.2155 8.804 66.2155 8.724V6.3H62.9515V8.724C62.9515 8.804 62.9235 8.872 62.8675 8.928C62.8195 8.976 62.7555 9 62.6755 9H62.0995ZM71.812 9.12C70.932 9.12 70.248 8.872 69.76 8.376C69.28 7.88 69.024 7.22 68.992 6.396L68.98 5.88L68.992 5.364C69.024 4.548 69.284 3.892 69.772 3.396C70.26 2.892 70.94 2.64 71.812 2.64C72.684 2.64 73.364 2.892 73.852 3.396C74.34 3.892 74.6 4.548 74.632 5.364C74.64 5.452 74.644 5.624 74.644 5.88C74.644 6.136 74.64 6.308 74.632 6.396C74.6 7.22 74.34 7.88 73.852 8.376C73.372 8.872 72.692 9.12 71.812 9.12ZM71.812 8.196C72.316 8.196 72.712 8.036 73 7.716C73.296 7.396 73.456 6.936 73.48 6.336C73.488 6.256 73.492 6.104 73.492 5.88C73.492 5.656 73.488 5.504 73.48 5.424C73.456 4.824 73.296 4.364 73 4.044C72.712 3.724 72.316 3.564 71.812 3.564C71.308 3.564 70.908 3.724 70.612 4.044C70.316 4.364 70.16 4.824 70.144 5.424L70.132 5.88L70.144 6.336C70.16 6.936 70.316 7.396 70.612 7.716C70.908 8.036 71.308 8.196 71.812 8.196ZM79.604 9C79.524 9 79.456 8.976 79.4 8.928C79.352 8.872 79.328 8.804 79.328 8.724V3.036C79.328 2.956 79.352 2.892 79.4 2.844C79.456 2.788 79.524 2.76 79.604 2.76H82.1C82.836 2.76 83.396 2.912 83.78 3.216C84.172 3.512 84.368 3.92 84.368 4.44C84.368 4.784 84.304 5.052 84.176 5.244C84.048 5.428 83.852 5.588 83.588 5.724C83.876 5.844 84.1 6.044 84.26 6.324C84.428 6.604 84.512 6.904 84.512 7.224C84.512 7.8 84.308 8.24 83.9 8.544C83.5 8.848 82.932 9 82.196 9H79.604ZM82.028 5.412C82.42 5.412 82.728 5.328 82.952 5.16C83.176 4.992 83.288 4.756 83.288 4.452C83.288 4.156 83.18 3.948 82.964 3.828C82.748 3.7 82.436 3.636 82.028 3.636H80.432V5.412H82.028ZM82.1 8.124C82.5 8.124 82.812 8.048 83.036 7.896C83.268 7.744 83.384 7.52 83.384 7.224C83.384 6.904 83.28 6.672 83.072 6.528C82.864 6.376 82.54 6.3 82.1 6.3H80.432V8.124H82.1ZM89.488 9C89.408 9 89.336 8.972 89.272 8.916C89.216 8.852 89.188 8.78 89.188 8.7V0.9C89.188 0.812 89.216 0.74 89.272 0.684C89.336 0.628 89.408 0.599999 89.488 0.599999H93.148C94.156 0.599999 94.904 0.808 95.392 1.224C95.888 1.632 96.136 2.216 96.136 2.976C96.136 3.376 96.032 3.716 95.824 3.996C95.624 4.268 95.396 4.468 95.14 4.596C95.468 4.748 95.744 4.992 95.968 5.328C96.192 5.664 96.304 6.04 96.304 6.456C96.304 7.256 96.04 7.88 95.512 8.328C94.984 8.776 94.232 9 93.256 9H89.488ZM92.908 3.936C93.228 3.936 93.472 3.856 93.64 3.696C93.808 3.528 93.892 3.308 93.892 3.036C93.892 2.772 93.808 2.56 93.64 2.4C93.472 2.24 93.228 2.16 92.908 2.16H91.348V3.936H92.908ZM93.016 7.44C93.344 7.44 93.6 7.344 93.784 7.152C93.968 6.96 94.06 6.728 94.06 6.456C94.06 6.168 93.968 5.932 93.784 5.748C93.6 5.556 93.344 5.46 93.016 5.46H91.348V7.44H93.016ZM98.0572 9C97.9772 9 97.9052 8.972 97.8412 8.916C97.7852 8.852 97.7572 8.78 97.7572 8.7V0.9C97.7572 0.812 97.7852 0.74 97.8412 0.684C97.9052 0.628 97.9772 0.599999 98.0572 0.599999H101.321C102.369 0.599999 103.185 0.839999 103.769 1.32C104.361 1.792 104.657 2.464 104.657 3.336C104.657 3.896 104.525 4.372 104.261 4.764C103.997 5.156 103.633 5.456 103.169 5.664L104.813 8.616C104.837 8.664 104.849 8.708 104.849 8.748C104.849 8.812 104.821 8.872 104.765 8.928C104.717 8.976 104.661 9 104.597 9H103.001C102.769 9 102.605 8.892 102.509 8.676L101.141 6.036H99.9172V8.7C99.9172 8.788 99.8852 8.86 99.8212 8.916C99.7652 8.972 99.6932 9 99.6052 9H98.0572ZM101.297 4.332C101.665 4.332 101.945 4.244 102.137 4.068C102.329 3.884 102.425 3.632 102.425 3.312C102.425 2.992 102.329 2.74 102.137 2.556C101.953 2.364 101.673 2.268 101.297 2.268H99.9172V4.332H101.297ZM105.694 9C105.63 9 105.57 8.976 105.514 8.928C105.466 8.872 105.442 8.812 105.442 8.748C105.442 8.7 105.446 8.664 105.454 8.64L108.274 0.935999C108.298 0.84 108.35 0.76 108.43 0.696C108.51 0.631999 108.614 0.599999 108.742 0.599999H110.518C110.646 0.599999 110.75 0.631999 110.83 0.696C110.91 0.76 110.962 0.84 110.986 0.935999L113.794 8.64L113.818 8.748C113.818 8.812 113.79 8.872 113.734 8.928C113.686 8.976 113.626 9 113.554 9H112.078C111.886 9 111.758 8.916 111.694 8.748L111.226 7.524H108.022L107.566 8.748C107.502 8.916 107.37 9 107.17 9H105.694ZM110.746 5.796L109.63 2.628L108.514 5.796H110.746ZM115.184 9C115.104 9 115.032 8.972 114.968 8.916C114.912 8.852 114.884 8.78 114.884 8.7V0.9C114.884 0.812 114.912 0.74 114.968 0.684C115.032 0.628 115.104 0.599999 115.184 0.599999H116.456C116.656 0.599999 116.792 0.675999 116.864 0.827999L119.792 5.436V0.9C119.792 0.812 119.82 0.74 119.876 0.684C119.94 0.628 120.012 0.599999 120.092 0.599999H121.532C121.62 0.599999 121.692 0.628 121.748 0.684C121.804 0.74 121.832 0.812 121.832 0.9V8.688C121.832 8.776 121.804 8.852 121.748 8.916C121.692 8.972 121.62 9 121.532 9H120.248C120.072 9 119.94 8.924 119.852 8.772L116.924 4.332V8.7C116.924 8.78 116.896 8.852 116.84 8.916C116.784 8.972 116.712 9 116.624 9H115.184ZM123.929 9C123.849 9 123.777 8.972 123.713 8.916C123.657 8.852 123.629 8.78 123.629 8.7V0.9C123.629 0.812 123.657 0.74 123.713 0.684C123.777 0.628 123.849 0.599999 123.929 0.599999H127.049C128.225 0.599999 129.137 0.879999 129.785 1.44C130.433 2 130.773 2.812 130.805 3.876C130.813 4.108 130.817 4.416 130.817 4.8C130.817 5.184 130.813 5.488 130.805 5.712C130.765 6.824 130.433 7.652 129.809 8.196C129.193 8.732 128.293 9 127.109 9H123.929ZM127.049 7.272C127.577 7.272 127.965 7.148 128.213 6.9C128.461 6.644 128.593 6.24 128.609 5.688C128.625 5.456 128.633 5.156 128.633 4.788C128.633 4.42 128.625 4.124 128.609 3.9C128.593 3.364 128.449 2.968 128.177 2.712C127.913 2.456 127.517 2.328 126.989 2.328H125.789V7.272H127.049ZM132.639 9C132.559 9 132.487 8.972 132.423 8.916C132.367 8.852 132.339 8.78 132.339 8.7V0.9C132.339 0.812 132.367 0.74 132.423 0.684C132.487 0.628 132.559 0.599999 132.639 0.599999H138.243C138.331 0.599999 138.403 0.628 138.459 0.684C138.515 0.74 138.543 0.812 138.543 0.9V2.028C138.543 2.108 138.515 2.18 138.459 2.244C138.403 2.3 138.331 2.328 138.243 2.328H134.415V3.948H137.979C138.067 3.948 138.139 3.98 138.195 4.044C138.251 4.1 138.279 4.172 138.279 4.26V5.304C138.279 5.384 138.251 5.456 138.195 5.52C138.139 5.576 138.067 5.604 137.979 5.604H134.415V7.272H138.339C138.427 7.272 138.499 7.3 138.555 7.356C138.611 7.412 138.639 7.484 138.639 7.572V8.7C138.639 8.78 138.611 8.852 138.555 8.916C138.499 8.972 138.427 9 138.339 9H132.639ZM140.423 9C140.343 9 140.271 8.972 140.207 8.916C140.151 8.852 140.123 8.78 140.123 8.7V0.9C140.123 0.812 140.151 0.74 140.207 0.684C140.271 0.628 140.343 0.599999 140.423 0.599999H143.687C144.735 0.599999 145.551 0.839999 146.135 1.32C146.727 1.792 147.023 2.464 147.023 3.336C147.023 3.896 146.891 4.372 146.627 4.764C146.363 5.156 145.999 5.456 145.535 5.664L147.179 8.616C147.203 8.664 147.215 8.708 147.215 8.748C147.215 8.812 147.187 8.872 147.131 8.928C147.083 8.976 147.027 9 146.963 9H145.367C145.135 9 144.971 8.892 144.875 8.676L143.507 6.036H142.283V8.7C142.283 8.788 142.251 8.86 142.187 8.916C142.131 8.972 142.059 9 141.971 9H140.423ZM143.663 4.332C144.031 4.332 144.311 4.244 144.503 4.068C144.695 3.884 144.791 3.632 144.791 3.312C144.791 2.992 144.695 2.74 144.503 2.556C144.319 2.364 144.039 2.268 143.663 2.268H142.283V4.332H143.663Z" fill="#28292F"/>
    </symbol>

    <symbol id="menu" viewBox="0 0 25 25">
        <rect x="2" y="9" width="21" height="1" fill="#28292F"/>
        <rect x="2" y="15" width="21" height="1" fill="#28292F"/>
    </symbol>

    <symbol id="close" viewBox="0 0 19 19">
        <rect y="1" width="1" height="25" transform="rotate(-45 0 1)" fill="white"/>
        <rect x="18" width="1" height="25" transform="rotate(45 18 0)" fill="white"/>
    </symbol>

    <symbol id="pillow" viewBox="0 0 25 25">
        <path fill-rule="evenodd" clip-rule="evenodd" d="M3.78134 20.3847C6.64942 21.2969 9.64282 21.7537 12.6524 21.7384C15.5589 21.7512 18.4484 21.2942 21.209 20.3851L23.5448 21.0262C23.7082 21.071 23.8805 21.0725 24.0447 21.0305C24.2089 20.9885 24.3593 20.9045 24.4812 20.7868C24.6031 20.669 24.6922 20.5216 24.7398 20.359C24.7875 20.1963 24.7919 20.0241 24.7528 19.8592L24.1906 17.4931C25.8534 13.5491 24.4811 9.00257 24.2213 8.2172L24.8856 5.92428C24.9338 5.75875 24.9372 5.58342 24.8955 5.41614C24.8539 5.24886 24.7686 5.09561 24.6485 4.972C24.5283 4.84839 24.3775 4.75884 24.2115 4.71247C24.0455 4.6661 23.8701 4.66457 23.7033 4.70803L21.2144 5.35417C12.6639 2.49329 4.81017 4.99933 3.78527 5.35239L1.31421 4.67412C1.14681 4.6282 0.97019 4.62775 0.802551 4.6728C0.634913 4.71786 0.482317 4.80679 0.360485 4.93044C0.238652 5.0541 0.151988 5.20799 0.109422 5.37628C0.0668548 5.54457 0.0699241 5.72116 0.118313 5.88787L0.778737 8.16436C0.518851 8.94866 -0.853401 13.4959 0.809437 17.4396L0.23826 19.8253C0.199092 19.9892 0.203028 20.1604 0.249685 20.3224C0.296343 20.4843 0.384133 20.6314 0.504508 20.7493C0.624883 20.8673 0.773742 20.952 0.936594 20.9953C1.09945 21.0387 1.27074 21.0391 1.43381 20.9966L3.78134 20.3847ZM3.92485 19.6775C3.88464 19.6625 3.8421 19.6548 3.79919 19.6547H3.79741C3.76711 19.6541 3.73687 19.6574 3.70745 19.6647L1.25388 20.304C1.21008 20.3155 1.16405 20.3154 1.12027 20.3038C1.0765 20.2922 1.03648 20.2695 1.00412 20.2378C0.971758 20.2061 0.948159 20.1666 0.935624 20.1231C0.923089 20.0796 0.922047 20.0336 0.932597 19.9895L1.52948 17.4906C1.54764 17.415 1.54062 17.3355 1.50949 17.2643C-0.241171 13.2635 1.46986 8.34179 1.48735 8.29252C1.51248 8.22209 1.51485 8.14554 1.49414 8.07369L0.802655 5.68903C0.789555 5.64425 0.788663 5.59679 0.800073 5.55155C0.811482 5.50632 0.834778 5.46496 0.867547 5.43175C0.900315 5.39854 0.941366 5.3747 0.986446 5.3627C1.03153 5.35069 1.079 5.35095 1.12394 5.36346L3.70138 6.06922C3.77401 6.08921 3.85111 6.08571 3.92164 6.05922C4.00339 6.02745 12.1669 3.03627 21.0837 6.06315C21.1496 6.08564 21.2206 6.08813 21.2879 6.07029L23.8796 5.39737C23.9245 5.3854 23.9718 5.38572 24.0165 5.39828C24.0612 5.41084 24.1017 5.43518 24.1338 5.46877C24.1665 5.50163 24.1897 5.54278 24.2008 5.58781C24.212 5.63283 24.2106 5.68004 24.197 5.72437L23.5012 8.12545C23.4806 8.19744 23.4829 8.27407 23.508 8.34464C23.5255 8.39391 25.2351 13.3157 23.4859 17.3164C23.4549 17.3874 23.4479 17.4666 23.4659 17.542L24.0556 20.0231C24.0669 20.0673 24.0662 20.1137 24.0536 20.1576C24.0411 20.2015 24.0171 20.2413 23.9842 20.273C23.952 20.3048 23.9118 20.3275 23.8679 20.3387C23.824 20.35 23.7779 20.3493 23.7343 20.3369L21.2961 19.6675C21.2274 19.6486 21.1545 19.6507 21.0869 19.6736C12.1712 22.7001 4.0066 19.7086 3.92485 19.6775ZM19.7317 8.03904C19.7685 8.05163 19.807 8.05814 19.8459 8.05832C19.8456 8.05832 19.8452 8.05832 19.8449 8.05832H19.8463C19.8462 8.05832 19.846 8.05832 19.8459 8.05832C19.9301 8.05806 20.0116 8.02802 20.0758 7.97349C20.1403 7.91874 20.1833 7.84287 20.197 7.7594C20.2108 7.67593 20.1945 7.59029 20.151 7.51774C20.1075 7.44518 20.0396 7.39044 19.9595 7.36327C17.592 6.56996 15.1103 6.17077 12.6134 6.18164C10.0607 6.16214 7.52143 6.55439 5.09353 7.34327C5.00463 7.37584 4.9323 7.4424 4.89247 7.52829C4.85264 7.61418 4.84855 7.71238 4.88112 7.80129C4.91369 7.89019 4.98025 7.96251 5.06614 8.00235C5.15203 8.04218 5.25023 8.04626 5.33914 8.01369C7.6901 7.26124 10.145 6.88427 12.6134 6.89669C15.0327 6.88535 17.4375 7.27127 19.7317 8.03904Z" fill="#28292F"/>
    </symbol>

    <symbol id="embroidery" viewBox="0 0 25 25">
        <path d="M17.3973 9.41658C17.4412 9.36516 17.4586 9.29627 17.4446 9.23017C17.4305 9.16406 17.3865 9.10825 17.3255 9.07914L12.7074 6.87515C12.6782 6.86118 12.6462 6.85394 12.6137 6.85394H9.20749C9.10587 6.85394 9.0178 6.9243 8.99536 7.02341C8.97293 7.12252 9.02211 7.22395 9.11382 7.26772L16.153 10.6266C16.2419 10.6691 16.3482 10.6464 16.4121 10.5715L17.3973 9.41658ZM7.73006 6.87516C7.70079 6.86119 7.66877 6.85394 7.63635 6.85394H7.33305C7.21293 6.85394 7.11556 6.95131 7.11556 7.07143V8.55275C7.11556 8.63658 7.16373 8.71294 7.23939 8.74904L14.7158 12.3163C14.8047 12.3587 14.911 12.3361 14.9749 12.2612L15.9594 11.1076C16.0033 11.0562 16.0208 10.9873 16.0068 10.9212C15.9927 10.8551 15.9487 10.7993 15.8877 10.7702L7.73006 6.87516ZM17.5493 7.07143C17.5493 6.95131 17.4519 6.85394 17.3318 6.85394H14.1842C14.0826 6.85394 13.9945 6.9243 13.9721 7.0234C13.9497 7.1225 13.9988 7.22394 14.0905 7.26771L17.2381 8.77006C17.3055 8.80223 17.3847 8.79757 17.4479 8.75774C17.511 8.7179 17.5493 8.64845 17.5493 8.57379V7.07143ZM21.7284 7.27294L20.3157 8.71041L20.3154 8.71066C20.2933 8.7332 20.2642 8.74516 20.2346 8.74521C20.2051 8.74525 20.1759 8.73337 20.1538 8.7109L19.9988 8.86354L20.1538 8.7109C20.1315 8.6883 20.1183 8.65681 20.1182 8.62316C20.1182 8.58951 20.1313 8.55797 20.1535 8.5353L21.5822 7.08099C21.6041 7.05989 21.6325 7.04889 21.6612 7.04915C21.6903 7.0494 21.7189 7.06127 21.7407 7.08344C21.7626 7.10573 21.7757 7.13669 21.776 7.16984C21.7763 7.203 21.7637 7.23422 21.7422 7.25695C21.7373 7.26208 21.7327 7.26742 21.7284 7.27294ZM17.4757 12.9433L18.1423 12.355L18.1423 12.355L22.7697 8.27412C22.7745 8.26985 22.7792 8.26536 22.7836 8.26068C23.0658 7.96324 23.2212 7.56562 23.2174 7.15371C23.2137 6.74181 23.0511 6.34714 22.7635 6.05503C22.7599 6.05139 22.7562 6.04788 22.7524 6.04452C22.4646 5.75736 22.0772 5.59484 21.6722 5.59308C21.2622 5.5913 20.8689 5.7544 20.5776 6.04566C20.5735 6.04977 20.5696 6.05404 20.5658 6.05846L17.8328 9.26811L17.8327 9.2682L17.1662 10.0519L17.1662 10.0519L16.7083 10.59L16.7082 10.59L16.2552 11.1224L16.255 11.1227L15.2706 12.276C15.2268 12.3274 15.2093 12.3962 15.2233 12.4623C15.2373 12.5284 15.2812 12.5842 15.3422 12.6134L16.838 13.3293C16.9167 13.367 17.0103 13.3539 17.0758 13.2962L17.4757 12.9433L17.4757 12.9433ZM19.339 4.85879C19.3836 4.81896 19.4118 4.76098 19.4118 4.69643C19.4118 4.57631 19.3144 4.47894 19.1943 4.47894H19.1936H5.47128C5.38366 4.47894 5.3046 4.53151 5.27071 4.6123C5.23682 4.6931 5.25472 4.78634 5.31612 4.84884L6.98259 6.54527C7.02348 6.5869 7.07939 6.61035 7.13774 6.61035H17.5271C17.5855 6.61035 17.6414 6.5869 17.6823 6.54527L19.339 4.85879ZM16.4744 13.4207C16.4665 13.4169 16.4584 13.4136 16.4502 13.4109L14.6085 12.5317L14.6084 12.5317L14.4519 12.4571L14.4517 12.457L7.42671 9.10492C7.35933 9.07277 7.28016 9.07743 7.21701 9.11727C7.15386 9.1571 7.11556 9.22655 7.11556 9.30121V10.9298C7.11556 11.0136 7.16374 11.09 7.2394 11.1261L17.2382 15.8964C17.3056 15.9286 17.3847 15.9239 17.4479 15.8841C17.511 15.8442 17.5493 15.7748 17.5493 15.7001V14.0716C17.5493 13.9878 17.5012 13.9115 17.4256 13.8753L16.6591 13.5089L16.659 13.5089L16.4744 13.4207ZM8.77759 20.9352C8.77208 20.94 8.76685 20.9451 8.76192 20.9504C8.67846 21.0266 8.5704 21.0674 8.45947 21.0655C8.3482 21.0635 8.2412 21.0186 8.16021 20.939C8.14542 20.9194 8.132 20.8987 8.12008 20.8771C8.08181 20.8077 8.00886 20.7647 7.92964 20.7647H5C4.87988 20.7647 4.78251 20.862 4.78251 20.9821V22C4.78251 22.1201 4.87988 22.2175 5 22.2175H19.6649C19.785 22.2175 19.8824 22.1201 19.8824 22V20.9821C19.8824 20.862 19.785 20.7647 19.6649 20.7647H9.05417C9.00147 20.7647 8.95056 20.7838 8.91091 20.8185L8.77759 20.9352ZM17.6927 18.4654C17.6528 18.419 17.5938 18.3896 17.5278 18.3896H17.5271H11.7458C11.6928 18.3896 11.6417 18.409 11.6019 18.4441L9.67951 20.1405C9.61169 20.2003 9.58799 20.2959 9.61998 20.3805C9.65197 20.4651 9.73297 20.5211 9.82341 20.5211H19.1936C19.2812 20.5211 19.3603 20.4685 19.3942 20.3877C19.4281 20.3069 19.4102 20.2137 19.3488 20.1512L17.6927 18.4654ZM17.3318 18.1461C17.4519 18.1461 17.5493 18.0487 17.5493 17.9286V16.4479C17.5493 16.3641 17.5011 16.2877 17.4255 16.2516L7.42671 11.4806C7.35933 11.4484 7.28016 11.4531 7.21701 11.4929C7.15386 11.5328 7.11556 11.6022 7.11556 11.6769V13.3055C7.11556 13.3893 7.16376 13.4657 7.23944 13.5018L16.9349 18.1249C16.9642 18.1388 16.9961 18.1461 17.0285 18.1461H17.3318ZM4.78251 4.01786C4.78251 4.13797 4.87988 4.23535 5 4.23535H19.6649C19.785 4.23535 19.8824 4.13797 19.8824 4.01786V3C19.8824 2.87988 19.785 2.78251 19.6649 2.78251H5C4.87988 2.78251 4.78251 2.87988 4.78251 3V4.01786ZM15.4581 18.1461C15.5597 18.1461 15.6478 18.0757 15.6702 17.9766C15.6926 17.8775 15.6434 17.776 15.5517 17.7323L13.6413 16.8209C13.5626 16.7834 13.4691 16.7965 13.4038 16.8541L12.3705 17.7655C12.3027 17.8253 12.279 17.9209 12.311 18.0055C12.343 18.0901 12.424 18.1461 12.5144 18.1461H15.4581ZM12.9703 16.5008L12.2001 16.1335C12.1111 16.0911 12.0047 16.1138 11.9408 16.1889L8.55859 20.1626C8.50363 20.2272 8.49121 20.3178 8.52678 20.3948C8.56235 20.4718 8.63941 20.5211 8.72421 20.5211H8.80354C8.85652 20.5211 8.90767 20.5017 8.94741 20.4667L13.0309 16.8648C13.0987 16.805 13.1225 16.7094 13.0905 16.6248C13.0688 16.5675 13.0247 16.5233 12.9703 16.5008ZM5.31612 20.1512C5.25472 20.2137 5.23682 20.3069 5.27071 20.3877C5.3046 20.4685 5.38366 20.5211 5.47128 20.5211H7.87765C7.96338 20.5211 8.04111 20.4707 8.07615 20.3925C8.09633 20.3474 8.1235 20.3061 8.15649 20.2702L8.1566 20.2703L8.16195 20.264L9.45179 18.7481C9.50674 18.6835 9.51914 18.5929 9.48357 18.5159C9.448 18.4389 9.37094 18.3896 9.28614 18.3896H7.13774C7.07939 18.3896 7.02348 18.4131 6.98259 18.4547L5.31612 20.1512ZM7.27351 15.8904L10.3987 17.3871C10.4877 17.4297 10.5943 17.4071 10.6583 17.332L11.6461 16.1716C11.6899 16.1202 11.7073 16.0513 11.6932 15.9852C11.6791 15.9191 11.6351 15.8634 11.5742 15.8343L7.42667 13.8563C7.35929 13.8241 7.28013 13.8288 7.21699 13.8686C7.15385 13.9085 7.11556 13.9779 7.11556 14.0526V15.6777V15.6811C7.11556 15.7806 7.18234 15.8645 7.27351 15.8904ZM7.11556 17.9286C7.11556 18.0487 7.21293 18.1461 7.33305 18.1461H9.86607C9.92953 18.1461 9.98982 18.1183 10.0311 18.0702L10.2058 17.8666C10.2498 17.8153 10.2675 17.7464 10.2535 17.6802C10.2396 17.614 10.1957 17.5581 10.1347 17.5288L7.42699 16.2321C7.3596 16.1998 7.28036 16.2044 7.21714 16.2442C7.15391 16.284 7.11556 16.3535 7.11556 16.4282V17.9286Z" stroke="#28292F" stroke-width="0.434982" stroke-linecap="round" stroke-linejoin="round"/>
    </symbol>

    <symbol id="lamp" viewBox="0 0 25 25">
        <path fill-rule="evenodd" clip-rule="evenodd" d="M12.4998 3.875C12.2123 3.875 12.0206 3.68333 12.0206 3.39583V1.47917C12.0206 1.19167 12.2123 1 12.4998 1C12.7873 1 12.9789 1.19167 12.9789 1.47917V3.39583C12.9789 3.68333 12.7873 3.875 12.4998 3.875ZM9.62506 22.2749C9.62506 23.4249 10.3917 23.9999 11.0626 23.9999H13.9376C14.7042 23.9999 15.3751 23.3291 15.3751 22.5624V20.3583C15.3751 19.3999 15.8542 18.3458 16.7167 17.6749C18.3459 16.4291 19.2084 14.5124 19.2084 12.4999C19.2084 10.6791 18.4417 8.95411 17.1959 7.70828C15.9501 6.46245 14.2251 5.79161 12.4042 5.79161C8.8584 5.88744 5.88756 8.76244 5.79173 12.4041C5.79173 14.5124 6.65423 16.4291 8.37923 17.7708C9.1459 18.4416 9.62506 19.3041 9.62506 20.2624V20.6253C9.62485 20.6321 9.62474 20.6389 9.62474 20.6457C9.62474 20.6526 9.62485 20.6594 9.62506 20.6661V22.2749ZM10.5834 21.1249V22.2749C10.5834 22.4666 10.5834 23.0416 11.0626 23.0416H13.9376C14.2251 23.0416 14.4167 22.8499 14.4167 22.5624V21.1249H10.5834ZM14.4219 20.1666C14.4863 18.9765 15.1414 17.7267 16.1417 16.9083C17.4834 15.8541 18.2501 14.2249 18.2501 12.4999C18.2501 10.9666 17.6751 9.52911 16.5251 8.37911C15.4709 7.32494 14.0334 6.74995 12.5001 6.74995C9.4334 6.74995 6.8459 9.33744 6.75006 12.4041C6.75006 14.2249 7.51673 15.9499 8.95423 17.0041C9.9813 17.8444 10.5535 18.9577 10.5823 20.1666H14.4219ZM18.5374 6.46248C18.6332 6.55831 18.8249 6.55831 18.9207 6.55831C19.0165 6.55831 19.2082 6.46248 19.2082 6.46248L20.5499 5.12081C20.7415 4.92914 20.7415 4.64164 20.5499 4.44998C20.3582 4.25831 20.0707 4.25831 19.879 4.44998L18.5374 5.79164C18.3457 5.98331 18.3457 6.27081 18.5374 6.46248ZM23.521 12.9792H21.6043C21.3168 12.9792 21.1252 12.7875 21.1252 12.5C21.1252 12.2125 21.3168 12.0208 21.6043 12.0208H23.521C23.8085 12.0208 24.0002 12.2125 24.0002 12.5C24.0002 12.7875 23.8085 12.9792 23.521 12.9792ZM19.879 20.6458C19.9749 20.7416 20.1665 20.7416 20.2624 20.7416C20.454 20.7416 20.5499 20.7416 20.5499 20.6458C20.7415 20.4541 20.7415 20.1666 20.5499 19.9749L19.2082 18.6333C19.0165 18.4416 18.729 18.4416 18.5374 18.6333C18.3457 18.8249 18.3457 19.1124 18.5374 19.3041L19.879 20.6458ZM4.73753 20.7416C4.6417 20.7416 4.45003 20.7416 4.3542 20.6458C4.16253 20.4541 4.16253 20.1666 4.3542 19.9749L5.69587 18.6333C5.88753 18.4416 6.17503 18.4416 6.3667 18.6333C6.55837 18.8249 6.55837 19.1124 6.3667 19.3041L5.02503 20.6458C4.9292 20.7416 4.83337 20.7416 4.73753 20.7416ZM1.47917 12.9792H3.39583C3.68333 12.9792 3.875 12.7875 3.875 12.5C3.875 12.2125 3.68333 12.0208 3.39583 12.0208H1.47917C1.19167 12.0208 1 12.2125 1 12.5C1 12.7875 1.19167 12.9792 1.47917 12.9792ZM6.0792 6.55837C5.98337 6.55837 5.7917 6.55837 5.69587 6.46253L4.3542 5.02503C4.16253 4.83337 4.16253 4.54587 4.3542 4.3542C4.54587 4.16253 4.83337 4.16253 5.02503 4.3542L6.3667 5.69587C6.55837 5.88753 6.55837 6.17503 6.3667 6.3667C6.27087 6.46253 6.17503 6.55837 6.0792 6.55837ZM15.8539 12.5C15.8539 12.7875 16.0456 12.9791 16.3331 12.9791C16.6206 12.9791 16.8123 12.7875 16.8123 12.5C16.8123 10.1041 14.8956 8.18748 12.4998 8.18748C12.2123 8.18748 12.0206 8.37914 12.0206 8.66664C12.0206 8.95414 12.2123 9.14581 12.4998 9.14581C14.3206 9.14581 15.8539 10.6791 15.8539 12.5Z" fill="#28292F"/>
    </symbol>

    <symbol id="box" viewBox="0 0 25 25">
        <path fill-rule="evenodd" clip-rule="evenodd" d="M3.3125 7.24934H12.4988L12.5 7.24934L12.5013 7.24934H21.6875C21.9281 7.24934 22.125 7.44534 22.125 7.68684V11.1868C22.125 11.4283 21.9281 11.6243 21.6875 11.6243H3.3125C3.07187 11.6243 2.875 11.4283 2.875 11.1868V7.68684C2.875 7.44534 3.07187 7.24934 3.3125 7.24934ZM8.32891 5.73297C8.55543 5.95948 8.9759 6.17748 9.46567 6.37434H3.3125C2.58887 6.37434 2 6.96322 2 7.68684V11.1868C2 11.9105 2.58887 12.4993 3.3125 12.4993H3.74983V20.8119C3.74983 22.0177 4.73071 22.9994 5.93733 22.9994H12.4998H19.0623C20.269 22.9994 21.2498 22.0177 21.2498 20.8119V12.4993H21.6875C22.4111 12.4993 23 11.9105 23 11.1868V7.68684C23 6.96322 22.4111 6.37434 21.6875 6.37434H15.5374C16.0263 6.17769 16.4459 5.95999 16.6721 5.73379C17.0851 5.32079 17.3126 4.77129 17.3126 4.18679C17.3126 3.60229 17.0851 3.05279 16.6712 2.64067C15.819 1.78842 14.4312 1.78667 13.5781 2.64067C13.1648 3.05402 12.7798 4.11328 12.4998 5.06106C12.2198 4.11285 11.8347 3.05287 11.4212 2.63984C10.5689 1.78672 9.18116 1.78672 8.32804 2.63984C7.91504 3.05284 7.68754 3.60234 7.68754 4.18684C7.68754 4.77134 7.91504 5.32084 8.32891 5.73297ZM9.87504 2.87522C9.53904 2.87522 9.20216 3.00297 8.94666 3.25847C8.69904 3.50697 8.56254 3.83597 8.56254 4.18684C8.56254 4.53772 8.69904 4.86672 8.94666 5.11522C9.28704 5.45559 10.7098 5.91497 11.9085 6.22122C11.6014 5.02247 11.1429 3.59972 10.8025 3.25934C10.5479 3.00297 10.211 2.87522 9.87504 2.87522ZM12.9374 22.1244H19.0623C19.786 22.1244 20.3748 21.5355 20.3748 20.8119V12.4993H12.9374V22.1244ZM12.0623 12.4993V22.1244H5.93733C5.21371 22.1244 4.62483 21.5355 4.62483 20.8119V12.4993H12.0623ZM14.1967 3.25842C14.4522 3.00292 14.7891 2.87517 15.1251 2.87517C15.4611 2.87517 15.798 3.00292 16.0535 3.25842C16.3011 3.50692 16.4376 3.83592 16.4376 4.18679C16.4376 4.53767 16.3011 4.86667 16.0526 5.11429C15.7122 5.45467 14.2895 5.91404 13.0907 6.22029C13.3979 5.02154 13.8564 3.59879 14.1967 3.25842Z" fill="#28292F"/>
    </symbol>
</svg>