<svg width="15" height="28" viewBox="0 0 15 28" fill="none" xmlns="http://www.w3.org/2000/svg">
<path d="M1.94323 13.9987L14.7645 1.35284C14.8391 1.2793 14.8983 1.19198 14.9387 1.09586C14.9791 0.999751 15 0.896729 15 0.792679C15.0001 0.58254 14.9155 0.380971 14.765 0.232315C14.6144 0.0836591 14.4101 9.2828e-05 14.197 4.22346e-08C13.984 -9.27435e-05 13.7796 0.0832955 13.6289 0.23182L6.93238 6.83622L0.23587 13.4406C0.161104 13.5142 0.101784 13.6015 0.0613092 13.6977C0.0208343 13.7939 -6.07457e-07 13.897 -6.12009e-07 14.0011C-6.16561e-07 14.1053 0.0208343 14.2084 0.0613092 14.3046C0.101784 14.4008 0.161104 14.4881 0.23587 14.5616L13.6289 27.7655C13.7787 27.9137 13.9815 27.9979 14.1937 28C14.299 28.0003 14.4032 27.9798 14.5003 27.9395C14.5973 27.8992 14.6851 27.84 14.7584 27.7655C14.8332 27.692 14.8925 27.6046 14.933 27.5084C14.9735 27.4122 14.9943 27.3091 14.9943 27.205C14.9943 27.1009 14.9735 26.9977 14.933 26.9016C14.8925 26.8054 14.8332 26.718 14.7584 26.6445L1.94323 13.9987Z" fill="#A9A9A9"/>
</svg>
