<svg width="15" height="28" viewBox="0 0 15 28" fill="none" xmlns="http://www.w3.org/2000/svg">
<path d="M13.0568 14.0013L0.235538 26.6472C0.16091 26.7207 0.101699 26.808 0.061285 26.9041C0.0208714 27.0002 4.67714e-05 27.1033 1.82353e-07 27.2073C-9.39086e-05 27.4175 0.084451 27.619 0.235036 27.7677C0.385621 27.9163 0.589911 27.9999 0.802965 28C1.01602 28.0001 1.22038 27.9167 1.3711 27.7682L8.06762 21.1638L14.7641 14.5594C14.8389 14.4858 14.8982 14.3985 14.9387 14.3023C14.9792 14.2061 15 14.103 15 13.9989C15 13.8947 14.9792 13.7916 14.9387 13.6954C14.8982 13.5992 14.8389 13.5119 14.7641 13.4384L1.3711 0.234499C1.22133 0.0862753 1.01849 0.00205244 0.806333 3.92043e-06C0.701049 -0.000343231 0.596775 0.0202428 0.499739 0.0605317C0.402702 0.100821 0.314894 0.159988 0.24156 0.234499C0.166794 0.308029 0.107474 0.395388 0.0669992 0.49157C0.0265241 0.587751 0.00568961 0.69087 0.00568959 0.795008C0.00568958 0.899145 0.026524 1.00226 0.0669991 1.09844C0.107474 1.19462 0.166794 1.28199 0.24156 1.35552L13.0568 14.0013Z" fill="#A9A9A9"/>
</svg>
