<svg width="50" height="50" viewBox="0 0 50 50" fill="none" xmlns="http://www.w3.org/2000/svg">
<path d="M25 50C38.8071 50 50 38.8071 50 25C50 11.1929 38.8071 0 25 0C11.1929 0 0 11.1929 0 25C0 38.8071 11.1929 50 25 50Z" fill="#FF6869"/>
<path fill-rule="evenodd" clip-rule="evenodd" d="M25 47C29.3512 47 33.6047 45.7097 37.2225 43.2923C40.8404 40.875 43.6602 37.439 45.3253 33.419C46.9905 29.3991 47.4261 24.9756 46.5773 20.708C45.7284 16.4404 43.6331 12.5204 40.5564 9.44366C37.4796 6.36691 33.5596 4.27161 29.292 3.42273C25.0244 2.57386 20.6009 3.00953 16.581 4.67466C12.561 6.33979 9.12506 9.15958 6.70767 12.7775C4.29028 16.3953 3 20.6488 3 25C3 30.8348 5.31785 36.4306 9.44365 40.5564C13.5695 44.6822 19.1652 47 25 47V47Z" stroke="white" stroke-width="0.5" stroke-dasharray="2 1.33"/>
<path fill-rule="evenodd" clip-rule="evenodd" d="M31.5922 20.248L24.6642 17H19.5542L30.1142 21.95L31.5922 20.248ZM17.1972 17H16.7422V19.183L27.9582 24.44L29.4352 22.74L17.1972 17ZM31.7422 17H27.0202L31.7422 19.214V17ZM38.5972 17.495L36.4512 19.64C36.3574 19.734 36.2302 19.7869 36.0974 19.7871C35.9646 19.7873 35.8372 19.7348 35.7432 19.641C35.6492 19.5472 35.5962 19.42 35.5961 19.2872C35.5959 19.1544 35.6484 19.027 35.7422 18.933L37.8882 16.787C37.9825 16.6959 38.1088 16.6455 38.2399 16.6467C38.371 16.6478 38.4964 16.7004 38.5891 16.7931C38.6818 16.8858 38.7344 17.0112 38.7355 17.1423C38.7367 17.2734 38.6863 17.3997 38.5952 17.494L38.5972 17.495ZM39.6572 15.727C39.2843 15.3544 38.7793 15.1441 38.2522 15.1419C37.725 15.1396 37.2183 15.3456 36.8422 15.715L32.7422 20.445L31.7422 21.6L31.0552 22.393L30.3752 23.178L28.8982 24.878L31.1422 25.933L31.7422 25.413L32.7422 24.546L39.6842 18.532C40.0487 18.1545 40.2503 17.6489 40.2454 17.1242C40.2405 16.5995 40.0296 16.0977 39.6582 15.727H39.6572ZM34.5362 13.5H13.9492L16.4492 16H32.0352L34.5352 13.5H34.5362ZM30.3162 26.649L27.5162 25.336L27.2812 25.226L16.7422 20.286V22.686L31.7422 29.716V27.316L30.5922 26.776L30.3152 26.646L30.3162 26.649ZM19.1252 37.672C18.9367 37.8504 18.6858 37.9477 18.4263 37.9432C18.1668 37.9388 17.9194 37.8328 17.7372 37.648C17.6998 37.6015 17.6664 37.552 17.6372 37.5H13.2422V39H35.2422V37.5H19.3242L19.1242 37.672H19.1252ZM32.0362 34H23.3622L20.4782 36.5H34.5352L32.0352 34H32.0362ZM31.7422 33V30.818L16.7422 23.787V26.187L31.2872 33H31.7422ZM13.2422 12.5H35.2422V11H13.2422V12.5ZM28.9312 33L26.0652 31.657L24.5152 33H28.9312ZM25.0732 31.192L23.9032 30.644L18.8292 36.5H18.9482L25.0742 31.192H25.0732ZM13.9492 36.5H17.5592C17.6037 36.4023 17.6638 36.3124 17.7372 36.234L19.6722 34H16.4492L13.9492 36.5ZM16.7422 29.683L21.4822 31.913L22.9642 30.203L16.7422 27.288V29.688V29.683ZM16.7422 33H20.5422L20.8042 32.7L16.7422 30.789V33Z" fill="white"/>
</svg>
