<svg width="161" height="39" viewBox="0 0 161 39" fill="none" xmlns="http://www.w3.org/2000/svg">
<path d="M96.5469 37.0222C96.2918 36.7242 96.1094 36.371 96.014 35.9905L96.9186 35.2433C96.9781 35.7637 97.2388 36.2401 97.6449 36.5708C98.1101 36.9399 98.692 37.1302 99.2853 37.1075C99.7065 37.1422 100.124 37.009 100.448 36.7369C100.771 36.4647 100.973 36.0758 101.011 35.6549C101.011 34.9058 100.514 34.517 99.0331 34.1718C98.2618 34.0834 97.5349 33.7649 96.947 33.2578C96.7613 33.0812 96.6133 32.8689 96.5119 32.6335C96.4106 32.3982 96.3579 32.1448 96.3572 31.8886C96.3572 30.6483 97.5046 29.8025 99.2019 29.8025C99.7753 29.736 100.355 29.8622 100.848 30.1613C101.342 30.4604 101.722 30.9153 101.929 31.4543L101.14 32.2034C101.039 31.7569 100.775 31.3641 100.4 31.1015C100.024 30.839 99.5651 30.7254 99.1108 30.7829C98.0887 30.7829 97.4591 31.1926 97.4591 31.8867C97.4591 32.6244 98.5855 32.8861 99.3289 33.0757C100.518 33.3393 102.158 33.7907 102.158 35.56C102.158 37.0525 100.939 38.0519 99.0881 38.0519C98.6147 38.0794 98.1411 38.0012 97.7016 37.8231C97.2621 37.645 96.8677 37.3714 96.5469 37.0222ZM89.8278 37.7807V30.0168H90.8879V37.7807H89.8278ZM83.7233 37.7807L81.8534 34.2875H79.9058V37.7807H78.8419V30.0168H82.1341C82.4345 29.9876 82.7377 30.0203 83.025 30.1128C83.3123 30.2053 83.5776 30.3557 83.8045 30.5548C84.0314 30.7538 84.2152 30.9972 84.3444 31.27C84.4736 31.5427 84.5455 31.8391 84.5558 32.1408C84.5837 32.6169 84.4311 33.0861 84.1285 33.4548C83.8259 33.8235 83.3954 34.0646 82.923 34.1301L84.8592 37.7807H83.7233ZM79.9039 33.3735H81.9444C82.9154 33.3735 83.4407 32.9411 83.4407 32.1427C83.4407 31.3443 82.9154 30.9233 81.8515 30.9233H79.9039V33.3735ZM73.1621 37.7807L72.339 35.909H68.4172L67.5942 37.7807H66.5018L69.9154 30.0168H70.8636L74.2487 37.7807H73.1621ZM68.8288 34.9513H71.9218L70.3838 31.4069L68.8288 34.9513ZM57.3383 37.7807V30.0168H60.5281C60.8485 29.9914 61.1706 30.0332 61.4739 30.1394C61.7773 30.2457 62.0551 30.414 62.2896 30.6337C62.5241 30.8535 62.7102 31.1197 62.836 31.4154C62.9618 31.7112 63.0245 32.0299 63.02 32.3513C63.02 33.7395 61.9675 34.627 60.3157 34.627H58.4003V37.7713L57.3383 37.7807ZM58.3909 33.711H59.5287C60.6324 33.711 61.8329 33.6788 61.8329 32.3532C61.8329 31.405 61.2734 30.9555 60.1261 30.9555H58.389L58.3909 33.711ZM0 14.2214C0 9.52779 3.32632 6.56178 8.41632 6.56178C11.113 6.56178 13.7434 7.16105 13.7434 8.18133V8.66681C13.7472 8.73971 13.7357 8.8126 13.7095 8.88074C13.6832 8.94887 13.643 9.01072 13.5913 9.06225C13.5396 9.11378 13.4776 9.15383 13.4093 9.1798C13.3411 9.20578 13.2682 9.21708 13.1953 9.21298C12.9956 9.18518 12.8028 9.1209 12.6264 9.02334C11.3648 8.43477 9.98856 8.13296 8.59648 8.13961C7.78493 8.05801 6.96534 8.15473 6.19507 8.42301C5.42481 8.69129 4.72247 9.12465 4.1372 9.69276C3.55193 10.2609 3.09788 10.95 2.8068 11.7119C2.51572 12.4739 2.39466 13.2902 2.45207 14.1039C2.45207 17.745 4.75623 19.9012 8.76337 19.9012C10.1697 19.9045 11.5621 19.6219 12.8558 19.0706C12.9549 19.0268 13.0562 18.9882 13.1593 18.9549C13.1934 18.9549 13.2257 18.9435 13.2674 18.9435C13.3333 18.9382 13.3996 18.9474 13.4616 18.9706C13.5235 18.9937 13.5797 19.0302 13.626 19.0774C13.6723 19.1246 13.7077 19.1814 13.7296 19.2438C13.7515 19.3062 13.7595 19.3727 13.7529 19.4385V20.0378C13.7529 20.9632 11.1415 21.4791 8.45994 21.4791C3.22392 21.4848 0 18.7615 0 14.2214ZM57.3042 14.1039C57.278 13.0873 57.4632 12.0763 57.8481 11.135C58.2329 10.1937 58.8091 9.34261 59.54 8.63558C60.2709 7.92854 61.1407 7.38099 62.0943 7.02761C63.0478 6.67422 64.0644 6.5227 65.0795 6.58264C69.0431 6.58264 72.1058 9.09541 72.1058 12.5488V13.2846C72.1012 13.3626 72.0811 13.4388 72.0466 13.5089C72.0121 13.5789 71.9639 13.6414 71.9049 13.6925C71.8458 13.7435 71.7771 13.7823 71.7028 13.8064C71.6285 13.8305 71.5502 13.8394 71.4724 13.8327H59.7866C59.6151 15.3165 60.034 16.8082 60.9529 17.9859C61.4691 18.5845 62.1187 19.0535 62.8493 19.3551C63.8143 19.7375 64.8459 19.9232 65.8836 19.9012C67.2685 19.9141 68.6356 19.5886 69.8661 18.953C70.0789 18.8262 70.3138 18.7407 70.5583 18.7008C70.6274 18.7006 70.6958 18.715 70.7589 18.7432C70.8219 18.7714 70.8783 18.8127 70.9242 18.8644C70.9701 18.916 71.0045 18.9769 71.0252 19.0428C71.0458 19.1088 71.0521 19.1784 71.0438 19.247V19.7533C71.0438 20.7622 68.2883 21.4601 65.711 21.4601C60.5926 21.4639 57.3004 18.623 57.3004 14.1096L57.3042 14.1039ZM59.7961 12.2852H69.6575C69.6371 11.6953 69.4958 11.1158 69.2426 10.5826C68.9893 10.0495 68.6293 9.57392 68.185 9.18537C67.7406 8.79683 67.2213 8.50356 66.6591 8.32368C66.0969 8.14381 65.5038 8.08116 64.9164 8.13961C63.7005 8.07679 62.5043 8.46609 61.5582 9.23254C60.6122 9.99898 59.9832 11.0884 59.7923 12.2909L59.7961 12.2852ZM16.789 17.5762C16.789 15.4902 18.3062 14.3257 21.9663 13.2144L26.1384 11.9742C26.9614 11.7428 27.0866 11.5532 27.0866 10.9103V10.4286C27.0866 8.89059 26.0872 8.12444 23.6901 8.12444C22.0093 8.10631 20.3513 8.51476 18.8713 9.3116C18.7192 9.41051 18.5441 9.46863 18.3631 9.48038C18.2917 9.47749 18.2217 9.46038 18.157 9.43008C18.0924 9.39977 18.0344 9.35687 17.9866 9.30389C17.9387 9.25091 17.9019 9.18891 17.8783 9.12152C17.8547 9.05414 17.8448 8.98272 17.8491 8.91145V8.3539C17.8491 7.9329 18.1336 7.72239 18.7234 7.52327C20.411 6.94836 22.1786 6.64308 23.9613 6.61867C25.5069 6.43665 27.0655 6.82949 28.3401 7.72239C28.7671 8.0616 29.0997 8.50489 29.3059 9.00968C29.5121 9.51448 29.5851 10.0638 29.5178 10.605V20.7053C29.5057 20.8594 29.4339 21.0027 29.3177 21.1047C29.2016 21.2067 29.0502 21.2594 28.8958 21.2515H28.1183C27.739 21.2515 27.4261 21.1036 27.4261 20.7053V20.5252C27.4033 20.5252 27.3824 20.5138 27.3407 20.5138C27.2865 20.5228 27.2331 20.5367 27.1814 20.5555L26.7301 20.7034C25.3941 21.1971 23.9822 21.4539 22.5579 21.462C19.0799 21.4525 16.7871 20.0643 16.7871 17.5819L16.789 17.5762ZM23.5232 14.4206C20.2197 15.3877 19.2183 16.207 19.2183 17.6085C19.2183 18.936 20.5553 19.9012 22.7229 19.9012C25.7003 19.9012 27.0847 19.2602 27.0847 18.3462V13.4155L23.5232 14.4206ZM145.816 13.9142C145.816 9.19212 149.372 6.32852 154.968 6.32852C156.447 6.31694 157.916 6.55876 159.313 7.04347C159.713 7.16864 160.102 7.33742 160.102 7.82101V9.14851C160.108 9.24307 160.095 9.33791 160.063 9.42712C160.031 9.51632 159.981 9.59798 159.916 9.66701C159.851 9.73604 159.772 9.79096 159.685 9.82835C159.598 9.86573 159.504 9.88479 159.409 9.88432C159.18 9.86847 158.956 9.80382 158.753 9.69468C157.558 9.10055 156.24 8.79771 154.905 8.81094C154.215 8.71476 153.512 8.77551 152.848 8.98866C152.184 9.20182 151.577 9.5619 151.072 10.0421C150.566 10.5223 150.176 11.1103 149.929 11.7623C149.682 12.4143 149.586 13.1136 149.647 13.808C149.587 14.5132 149.686 15.2227 149.935 15.885C150.185 16.5472 150.579 17.1454 151.089 17.636C151.599 18.1266 152.212 18.4971 152.883 18.7207C153.555 18.9443 154.268 19.0152 154.97 18.9284C156.239 18.9218 157.491 18.6417 158.641 18.1072L158.801 18.0541C158.985 17.9405 159.195 17.8753 159.411 17.8645C159.508 17.8657 159.603 17.8867 159.69 17.9262C159.778 17.9656 159.857 18.0226 159.922 18.0937C159.987 18.1649 160.036 18.2485 160.068 18.3396C160.099 18.4306 160.111 18.5271 160.104 18.623V19.7495C160.123 19.9396 160.074 20.1304 159.966 20.288C159.858 20.4457 159.698 20.5599 159.514 20.6105C157.911 21.1672 156.224 21.4418 154.528 21.4222C149.106 21.4279 145.814 18.678 145.814 13.9218L145.816 13.9142ZM106.954 17.3012C106.977 16.5964 107.2 15.9125 107.597 15.3296C107.994 14.7466 108.549 14.2886 109.196 14.009C110.717 13.2469 112.315 12.6512 113.964 12.2321L116.416 11.5608C117.161 11.3389 117.224 11.1929 117.224 10.9406V10.3091C117.224 9.34004 116.552 8.81473 114.569 8.81473C112.861 8.80474 111.172 9.15972 109.613 9.85587C109.399 10.0033 109.147 10.0838 108.887 10.0872C108.795 10.1 108.701 10.0925 108.612 10.0652C108.523 10.038 108.441 9.99174 108.372 9.92963C108.303 9.86752 108.248 9.79108 108.212 9.70562C108.175 9.62017 108.158 9.52777 108.161 9.43487V8.30839C108.13 8.12242 108.16 7.93168 108.245 7.76365C108.33 7.59562 108.467 7.45899 108.635 7.37345C110.682 6.65685 112.839 6.30448 115.009 6.33231C118.775 6.33231 120.92 7.65981 120.92 10.4134V20.5214C120.904 20.7097 120.817 20.8847 120.675 21.0101C120.534 21.1355 120.35 21.2016 120.161 21.1946H118.435C117.921 21.1946 117.616 20.9841 117.573 20.5214C117.339 20.5396 117.109 20.5933 116.892 20.6807L116.292 20.9007C115.189 21.2538 114.037 21.431 112.879 21.426C109.467 21.4279 106.958 19.8121 106.958 17.3088L106.954 17.3012ZM114.058 14.6709C111.311 15.439 110.783 15.9756 110.783 17.195C110.783 18.2779 111.606 18.9322 113.647 18.9322C114.578 18.9321 115.503 18.7894 116.391 18.5093C117.083 18.2362 117.222 18.0693 117.222 17.3221V13.7435L114.058 14.6709ZM81.2238 20.7395L81.1081 20.6864C80.9924 20.6238 80.9184 20.5802 80.8445 20.5498C80.8331 20.9917 80.4045 21.1927 80.0158 21.1927H77.9525C77.7631 21.2021 77.5775 21.1369 77.4357 21.011C77.2939 20.8851 77.207 20.7086 77.1939 20.5195V1.6159C77.207 1.42673 77.2939 1.25027 77.4357 1.12439C77.5775 0.998521 77.7631 0.933278 77.9525 0.942671H80.0783C80.1724 0.937025 80.2666 0.949964 80.3556 0.980748C80.4446 1.01153 80.5267 1.05956 80.5971 1.12208C80.6676 1.18461 80.725 1.2604 80.7662 1.34513C80.8073 1.42986 80.8313 1.52187 80.8369 1.6159V7.24449C80.9003 7.23074 80.9607 7.20568 81.0152 7.17053L81.2996 7.05296C82.4607 6.55116 83.7159 6.30413 84.9806 6.32852C90.137 6.32852 93.4595 9.17316 93.4595 13.6923C93.4595 18.3519 89.8923 21.4241 84.6449 21.4241C83.4677 21.4511 82.2988 21.2207 81.22 20.7489L81.2238 20.7395ZM82.1379 9.08403C81.0853 9.43107 80.8445 9.7364 80.8445 10.3888V17.4681C80.8445 18.2362 81.9918 18.9398 84.3491 18.9398C85.6737 18.967 86.972 18.5681 88.0528 17.8019C88.6342 17.3174 89.0843 16.6942 89.3614 15.9899C89.6385 15.2856 89.7337 14.5228 89.6382 13.772C89.6382 10.6372 87.683 8.80715 84.1594 8.80715C83.4744 8.80887 82.7931 8.90784 82.136 9.1011L82.1379 9.08403ZM47.5623 21.2212C47.4067 21.2292 47.254 21.1769 47.136 21.0752C47.018 20.9734 46.9438 20.8301 46.9289 20.675V7.36587C46.941 7.20874 47.014 7.06255 47.1323 6.95842C47.2506 6.85429 47.4049 6.80044 47.5623 6.80832H48.4138C48.7286 6.80832 48.9827 6.95434 48.9827 7.30328V7.60861C48.9827 7.75463 49.0225 7.76601 49.1079 7.76601C49.1743 7.75649 49.2385 7.73531 49.2975 7.70343C50.6774 7.13715 52.1509 6.83357 53.6422 6.80832H54.2946C54.854 6.80832 55.1802 6.98658 55.1802 7.55551V8.17564C55.1802 8.62888 54.928 8.82801 54.4842 8.82801C54.3543 8.83093 54.2243 8.82396 54.0955 8.80715C53.3083 8.67699 52.5143 8.59278 51.7173 8.55492C49.984 8.55492 49.362 9.12385 49.362 10.4077V20.675C49.3471 20.8336 49.2702 20.9799 49.148 21.0821C49.0259 21.1844 48.8684 21.2343 48.7096 21.2212H47.5623ZM35.5807 21.2212C35.4276 21.2284 35.2778 21.1753 35.1635 21.0731C35.0493 20.9709 34.9798 20.8279 34.97 20.675V7.36587C34.9774 7.21107 35.0458 7.06551 35.1602 6.96102C35.2747 6.85652 35.4259 6.80162 35.5807 6.80832H36.4322C36.7584 6.80832 37.022 6.95434 37.022 7.30328V7.60861C37.022 7.75463 37.0523 7.76601 37.1471 7.76601C37.2132 7.75495 37.2771 7.73384 37.3368 7.70343C38.7165 7.1368 40.1901 6.83321 41.6815 6.80832H42.3225C42.8819 6.80832 43.2195 6.98658 43.2195 7.55551V8.17564C43.2195 8.62888 42.9445 8.82801 42.5235 8.82801C42.3898 8.83095 42.256 8.82398 42.1233 8.80715C41.3399 8.67821 40.5497 8.594 39.7566 8.55492C38.0119 8.55492 37.3899 9.12385 37.3899 10.4077V20.675C37.3749 20.8336 37.2981 20.9799 37.1759 21.0821C37.0538 21.1844 36.8962 21.2343 36.7375 21.2212H35.5807ZM138.34 21.1889C138.151 21.1983 137.965 21.1331 137.823 21.0072C137.682 20.8813 137.595 20.7049 137.582 20.5157V11.7921C137.582 9.77433 136.489 8.80525 133.941 8.80525C133.153 8.79843 132.37 8.91227 131.617 9.14282C130.692 9.42538 130.47 9.74209 130.47 10.3319V20.5138C130.465 20.6078 130.44 20.6998 130.399 20.7846C130.358 20.8693 130.301 20.9451 130.23 21.0076C130.16 21.0701 130.078 21.1182 129.989 21.1489C129.9 21.1797 129.806 21.1927 129.712 21.187H127.574C127.385 21.1964 127.199 21.1312 127.057 21.0053C126.916 20.8794 126.829 20.703 126.816 20.5138V7.22743C126.828 7.03728 126.915 6.85957 127.056 6.73208C127.198 6.6046 127.384 6.53738 127.574 6.54471H129.226C129.837 6.54471 130.112 6.7135 130.131 7.24829H130.153C130.462 7.23638 130.765 7.16557 131.047 7.03968C131.49 6.89176 131.731 6.81969 131.879 6.78556C132.912 6.47331 133.986 6.31797 135.065 6.32473C138.803 6.32473 141.272 8.22115 141.272 11.3939V20.5157C141.257 20.704 141.169 20.879 141.028 21.0044C140.887 21.1298 140.702 21.1959 140.514 21.1889H138.34ZM99.1526 21.1889C98.9638 21.1959 98.7796 21.1298 98.6383 21.0044C98.497 20.879 98.4095 20.704 98.394 20.5157V1.61211C98.4095 1.42383 98.497 1.24878 98.6383 1.12338C98.7796 0.997981 98.9638 0.931896 99.1526 0.938878H101.278C101.468 0.929485 101.653 0.994729 101.795 1.1206C101.937 1.24647 102.024 1.42294 102.037 1.61211V20.5157C102.022 20.704 101.934 20.879 101.793 21.0044C101.651 21.1298 101.467 21.1959 101.278 21.1889H99.1526ZM62.9612 4.73932C62.9612 4.40175 63.2362 4.23297 63.4657 4.06798L66.517 1.83589C66.9349 1.48108 67.4443 1.25106 67.9867 1.17214C68.1838 1.18132 68.3768 1.23202 68.5529 1.32091C68.7291 1.4098 68.8845 1.53488 69.0089 1.68797C69.1448 1.84008 69.2291 2.03124 69.2498 2.23414C69.2498 2.676 68.8382 2.94909 67.9564 3.36061L64.137 5.13946C63.9615 5.22504 63.772 5.27835 63.5776 5.29686C63.4229 5.30071 63.2727 5.24498 63.158 5.14121C63.0433 5.03744 62.9729 4.89356 62.9612 4.73932Z" fill="#2E2E2E"/>
</svg>
