<svg width="60" height="60" viewBox="0 0 60 60" fill="none" xmlns="http://www.w3.org/2000/svg">
<path d="M57.6941 27.6967C57.7088 27.276 57.6367 26.8569 57.4824 26.4653C57.3282 26.0737 57.095 25.718 56.7973 25.4204C56.4997 25.1228 56.144 24.8896 55.7524 24.7353C55.3608 24.581 54.9417 24.509 54.521 24.5236H7.79025V5.48516C7.76595 5.13797 7.81645 4.78961 7.93833 4.46362C8.06021 4.13762 8.25062 3.84157 8.49672 3.59548C8.74282 3.34938 9.03887 3.15896 9.36486 3.03708C9.69086 2.91521 10.0392 2.86471 10.3864 2.889H15.0018C16.4752 2.889 17.9129 3.14054 18.1402 5.85323C17.1474 6.01738 16.2496 6.54087 15.6177 7.32405C14.9858 8.10724 14.6639 9.09543 14.7133 10.1005V14.7159C14.7133 14.9454 14.8045 15.1656 14.9668 15.3278C15.1291 15.4901 15.3492 15.5813 15.5787 15.5813H22.5018C22.7313 15.5813 22.9514 15.4901 23.1137 15.3278C23.276 15.1656 23.3672 14.9454 23.3672 14.7159V10.1005C23.4169 9.08205 23.085 8.08162 22.4363 7.29486C21.7876 6.5081 20.8688 5.99159 19.8595 5.84631C19.6322 2.70785 18.0491 1.15823 15.0018 1.15823H10.3864C9.81111 1.13162 9.2366 1.22532 8.69958 1.43335C8.16257 1.64138 7.67486 1.95916 7.26763 2.36639C6.86041 2.77361 6.54262 3.26132 6.33459 3.79834C6.12656 4.33536 6.03286 4.90987 6.05948 5.48516V24.5236H5.48256C5.06191 24.509 4.64275 24.581 4.25114 24.7353C3.85953 24.8896 3.50386 25.1228 3.20624 25.4204C2.90861 25.718 2.67541 26.0737 2.52114 26.4653C2.36687 26.8569 2.29482 27.276 2.30948 27.6967C2.29263 28.5335 2.60793 29.3429 3.1864 29.9478C3.1864 29.9675 3.17486 29.9848 3.17486 30.0044V37.5044C3.15534 39.8341 3.65223 42.1392 4.62982 44.254C5.6074 46.3688 7.0414 48.2407 8.82871 49.7352L5.53679 57.6967C5.49783 57.8035 5.48034 57.917 5.4853 58.0305C5.49027 58.1441 5.5176 58.2556 5.56572 58.3586C5.61385 58.4616 5.68183 58.5541 5.76576 58.6308C5.8497 58.7075 5.94794 58.7669 6.05486 58.8055C6.14931 58.837 6.24841 58.8522 6.34794 58.8505C6.52565 58.8505 6.69906 58.7958 6.84459 58.6939C6.99013 58.5919 7.10074 58.4476 7.1614 58.2805L10.2618 50.7886C12.8727 52.4891 15.9245 53.3876 19.0402 53.3732H40.9633C44.0791 53.3876 47.1309 52.4891 49.7418 50.7886L52.8422 58.2805C52.9028 58.4476 53.0134 58.5919 53.159 58.6939C53.3045 58.7958 53.4779 58.8505 53.6556 58.8505C53.7563 58.8503 53.8563 58.8327 53.951 58.7986C54.0579 58.76 54.1562 58.7006 54.2401 58.6239C54.3241 58.5472 54.392 58.4547 54.4402 58.3517C54.4883 58.2487 54.5156 58.1372 54.5206 58.0236C54.5255 57.91 54.508 57.7966 54.4691 57.6898L51.1772 49.7282C52.9645 48.2338 54.3985 46.3618 55.3761 44.2471C56.3536 42.1323 56.8505 39.8272 56.831 37.4975V30.0044C56.831 29.9848 56.8206 29.9675 56.8195 29.9478C57.3971 29.3426 57.7116 28.5332 57.6941 27.6967ZM19.0402 7.50439C19.3874 7.48009 19.7358 7.53059 20.0618 7.65247C20.3878 7.77434 20.6838 7.96476 20.9299 8.21086C21.176 8.45696 21.3664 8.753 21.4883 9.079C21.6102 9.405 21.6607 9.75336 21.6364 10.1005V13.8505H16.4441V10.1005C16.4198 9.75336 16.4703 9.405 16.5922 9.079C16.7141 8.753 16.9045 8.45696 17.1506 8.21086C17.3967 7.96476 17.6927 7.77434 18.0187 7.65247C18.3447 7.53059 18.6931 7.48009 19.0402 7.50439ZM55.0979 37.5044C55.1183 39.3664 54.7667 41.2137 54.0636 42.938C53.3605 44.6623 52.3202 46.2288 51.0037 47.5457C49.6871 48.8626 48.1208 49.9033 46.3967 50.6068C44.6726 51.3103 42.8253 51.6624 40.9633 51.6425H19.0402C17.1782 51.6624 15.331 51.3103 13.6069 50.6068C11.8828 49.9033 10.3165 48.8626 8.99992 47.5457C7.68337 46.2288 6.64304 44.6623 5.93997 42.938C5.2369 41.2137 4.88525 39.3664 4.90563 37.5044V30.8121C5.09621 30.8452 5.28914 30.8629 5.48256 30.8652H54.521C54.7144 30.8629 54.9074 30.8452 55.0979 30.8121V37.5044ZM54.521 29.139H5.48256C5.10003 29.139 4.73318 28.987 4.46269 28.7166C4.19221 28.4461 4.04025 28.0792 4.04025 27.6967C4.04025 27.3142 4.19221 26.9473 4.46269 26.6768C4.73318 26.4063 5.10003 26.2544 5.48256 26.2544H54.521C54.9035 26.2544 55.2704 26.4063 55.5409 26.6768C55.8114 26.9473 55.9633 27.3142 55.9633 27.6967C55.9633 28.0792 55.8114 28.4461 55.5409 28.7166C55.2704 28.987 54.9035 29.139 54.521 29.139Z" fill="#28292F"/>
</svg>
