<svg width="60" height="60" viewBox="0 0 60 60" fill="none" xmlns="http://www.w3.org/2000/svg">
<path d="M56.1235 37.7294L46.1542 12.707V4.6326C46.2049 4.16578 46.1503 3.69354 45.9942 3.25064C45.8382 2.80774 45.5848 2.40546 45.2527 2.07343C44.9205 1.74139 44.5181 1.48806 44.0751 1.33209C43.632 1.17611 43.1596 1.12146 42.6927 1.17217H17.3081C16.8411 1.12146 16.3687 1.17611 15.9257 1.33209C15.4826 1.48806 15.0802 1.74139 14.7481 2.07343C14.4159 2.40546 14.1625 2.80774 14.0065 3.25064C13.8505 3.69354 13.7958 4.16578 13.8465 4.6326V12.707L3.8773 37.7282C3.60292 38.3893 3.46176 39.098 3.46191 39.8137V46.3309C3.47603 46.9634 3.65048 47.5819 3.96893 48.1286C4.28738 48.6754 4.7394 49.1323 5.28268 49.4568C5.75701 49.7314 6.20916 50.0426 6.63499 50.3877V57.4043C6.6356 57.7865 6.78775 58.1529 7.05811 58.4231C7.32846 58.6934 7.69496 58.8455 8.0773 58.8461H12.1158C12.4981 58.8455 12.8646 58.6934 13.135 58.4231C13.4053 58.1529 13.5575 57.7865 13.5581 57.4043V54.7986C13.7277 54.8089 13.8915 54.8228 14.0738 54.8228C19.3815 54.8228 19.3815 49.4568 24.6892 49.4568C29.9969 49.4568 29.9969 54.8228 35.3046 54.8228C40.6123 54.8228 40.6123 49.4568 45.92 49.4568C46.1081 49.4568 46.2661 49.4856 46.4427 49.4995V57.4043C46.4433 57.7865 46.5954 58.1529 46.8658 58.4231C47.1362 58.6934 47.5027 58.8455 47.885 58.8461H51.9235C52.3058 58.8455 52.6723 58.6934 52.9426 58.4231C53.213 58.1529 53.3652 57.7865 53.3658 57.4043V53.7131C53.5649 53.7615 53.7689 53.7874 53.9738 53.7904C54.3111 53.7981 54.6465 53.7376 54.9598 53.6127C55.2732 53.4878 55.5581 53.3009 55.7976 53.0634C56.037 52.8258 56.2261 52.5424 56.3535 52.2301C56.4808 51.9178 56.5439 51.5831 56.5388 51.2458V39.8137C56.539 39.0984 56.3978 38.39 56.1235 37.7294ZM15.5773 4.6326C15.5773 3.37185 16.0469 2.90238 17.3081 2.90238H42.6927C43.9538 2.90238 44.4235 3.37185 44.4235 4.6326V11.8418H15.5773V4.6326ZM5.48576 38.3684L15.365 13.5686H44.6358L54.5161 38.3684H5.48461H5.48576ZM11.8273 57.1159H8.36576V51.9979C9.29176 53.1069 10.4822 53.965 11.8273 54.4929V57.1159ZM51.635 57.1159H48.1735V49.8767C49.5053 50.5337 50.6845 51.4626 51.635 52.6035V57.1159ZM54.8081 51.2458C54.8125 51.3558 54.7937 51.4655 54.7532 51.5677C54.7126 51.67 54.651 51.7627 54.5724 51.8397C54.4938 51.9168 54.3999 51.9765 54.2968 52.0151C54.1937 52.0536 54.0837 52.0702 53.9738 52.0637C53.7034 52.0605 53.4446 51.9531 53.2515 51.7638C52.9677 51.5019 52.6977 51.2239 52.4254 50.9471C51.0223 49.5122 49.2754 47.7266 45.92 47.7266C42.5427 47.7266 40.7888 49.4995 39.38 50.9229C38.1338 52.1825 37.2327 53.0926 35.3011 53.0926C33.3696 53.0926 32.4708 52.1825 31.2258 50.9229C29.8169 49.5029 28.0642 47.7266 24.6927 47.7266C21.3211 47.7266 19.5592 49.5029 18.1504 50.9229C16.9054 52.1825 16.0042 53.0926 14.0738 53.0926C11.8815 53.0926 11.0254 52.2286 9.61307 50.7971C8.59873 49.6892 7.43069 48.7325 6.14461 47.9561C5.86547 47.7824 5.63289 47.5433 5.46702 47.2595C5.30115 46.9757 5.20699 46.6558 5.19268 46.3274V40.0986H54.8081V51.2458Z" fill="#FF6869"/>
</svg>
