<svg width="60" height="60" viewBox="0 0 60 60" fill="none" xmlns="http://www.w3.org/2000/svg">
<g clip-path="url(#clip0)">
<path d="M50.7639 24.2323C50.4734 24.2367 50.1839 24.2668 49.8987 24.3223V14.2839C49.9445 12.7114 49.6711 11.146 49.095 9.68221C48.5189 8.21843 47.6521 6.88669 46.5471 5.76744C45.442 4.64819 44.1215 3.76468 42.6655 3.1703C41.2094 2.57591 39.648 2.28299 38.0756 2.30924H21.927C20.3549 2.28301 18.7938 2.57583 17.338 3.17C15.8822 3.76417 14.5619 4.64737 13.4568 5.76624C12.3518 6.88512 11.485 8.21645 10.9087 9.67981C10.3324 11.1432 10.0586 12.7082 10.1039 14.2804V24.3189C9.81847 24.2656 9.52906 24.2367 9.23876 24.2323C8.60569 24.2345 7.97975 24.3662 7.39948 24.6194C6.81922 24.8726 6.2969 25.242 5.86468 25.7047C5.43247 26.1674 5.0995 26.7138 4.88628 27.31C4.67306 27.9063 4.58409 28.54 4.62487 29.1719V35.3739C4.62487 39.9558 7.48894 44.0115 11.8341 44.8354V56.8285C11.8341 59.6923 13.6485 60.0015 14.4294 60.0015C15.5909 60.0015 16.5472 59.1235 17.0016 57.6039L20.2383 45.0015H39.7643L43.0137 57.6546C43.1199 58.2743 43.429 58.841 43.8923 59.2659C44.3556 59.6907 44.9469 59.9495 45.5732 60.0015C46.3541 60.0015 48.1685 59.6923 48.1685 56.8285V44.8389C52.5137 44.0115 55.3778 39.9558 55.3778 35.3773V29.1719C55.4115 28.5416 55.3177 27.9109 55.1019 27.3176C54.8861 26.7244 54.5528 26.1809 54.122 25.7196C53.6911 25.2584 53.1716 24.8889 52.5946 24.6333C52.0175 24.3777 51.3949 24.2414 50.7639 24.2323ZM11.8341 14.2804C11.7942 12.937 12.0269 11.5994 12.5181 10.3484C13.0093 9.09749 13.7489 7.9591 14.6922 7.00202C15.6355 6.04495 16.7629 5.28904 18.0064 4.77995C19.2499 4.27086 20.5836 4.01914 21.927 4.04001H38.0756C39.419 4.01914 40.7528 4.27086 41.9962 4.77995C43.2397 5.28904 44.3671 6.04495 45.3104 7.00202C46.2537 7.9591 46.9933 9.09749 47.4845 10.3484C47.9758 11.5994 48.2084 12.937 48.1685 14.2804V24.9996C47.4665 25.4473 46.8877 26.0636 46.4847 26.7923C46.0818 27.5211 45.8675 28.3391 45.8616 29.1719V32.2735C45.8944 32.6668 45.8455 33.0626 45.718 33.4361C45.5905 33.8096 45.3872 34.1527 45.1209 34.4438C44.8545 34.735 44.5308 34.9679 44.1702 35.128C43.8096 35.288 43.4197 35.3717 43.0252 35.3739H16.9774C16.5829 35.3717 16.1931 35.288 15.8324 35.128C15.4718 34.9679 15.1481 34.735 14.8818 34.4438C14.6154 34.1527 14.4121 33.8096 14.2846 33.4361C14.1572 33.0626 14.1083 32.6668 14.141 32.2735V29.1719C14.141 28.3353 13.9295 27.5123 13.5261 26.7794C13.1228 26.0465 12.5407 25.4275 11.8341 24.98V14.2804ZM15.3303 57.1562C15.2749 57.3419 14.9692 58.2708 14.4294 58.2708C14.0834 58.2708 13.5643 58.2708 13.5643 56.8285V45.0015H18.4596L15.3303 57.1562ZM46.4383 56.8285C46.4383 58.2708 45.9181 58.2708 45.5732 58.2708C45.0334 58.2708 44.7277 57.3419 44.685 57.2069L41.543 45.0015H46.4383V56.8285ZM53.6475 35.3739C53.6475 39.2023 51.1514 43.2708 46.526 43.2708H13.4766C8.8512 43.2708 6.35508 39.2023 6.35508 35.3739V29.1719C6.31852 28.7686 6.36557 28.362 6.49328 27.9777C6.62099 27.5934 6.82662 27.2396 7.09729 26.9384C7.36796 26.6372 7.69785 26.3951 8.06633 26.2273C8.43481 26.0595 8.83394 25.9695 9.23876 25.9631C9.65879 25.9615 10.0749 26.0437 10.4628 26.2048C10.8507 26.366 11.2026 26.6029 11.498 26.9016C11.7933 27.2004 12.0261 27.555 12.1829 27.9448C12.3396 28.3347 12.4171 28.7518 12.4108 29.1719V32.2735C12.3798 32.894 12.4748 33.5144 12.6899 34.0972C12.9051 34.68 13.236 35.2132 13.6627 35.6646C14.0894 36.1161 14.6031 36.4764 15.1728 36.7239C15.7425 36.9714 16.3563 37.1009 16.9774 37.1046H43.0252C43.6463 37.1009 44.2602 36.9714 44.8298 36.7239C45.3995 36.4764 45.9132 36.1161 46.3399 35.6646C46.7667 35.2132 47.0976 34.68 47.3127 34.0972C47.5279 33.5144 47.6228 32.894 47.5918 32.2735V29.1719C47.5893 28.3263 47.9216 27.5141 48.516 26.9128C49.1104 26.3116 49.9185 25.9701 50.7639 25.9631C51.1674 25.9737 51.5644 26.0664 51.9309 26.2357C52.2974 26.4049 52.6256 26.647 52.8954 26.9473C53.1653 27.2475 53.3711 27.5997 53.5004 27.9821C53.6297 28.3646 53.6798 28.7695 53.6475 29.1719V35.3739Z" fill="#28292F"/>
</g>
<defs>
<clipPath id="clip0">
<rect width="60" height="60" fill="white"/>
</clipPath>
</defs>
</svg>
