<svg width="60" height="60" viewBox="0 0 60 60" fill="none" xmlns="http://www.w3.org/2000/svg">
<g clip-path="url(#clip0)">
<path d="M48.1942 25.7773V25.7589C47.8576 14.4316 47.5878 5.48103 39.3904 2.70828L36.2473 1.58282L36.2241 1.51427C35.8198 0.398006 32.7879 0 30.0905 0H29.9045C27.2031 0 24.1722 0.398006 23.773 1.51427L23.7487 1.58179L23.681 1.60737L20.6137 2.70931C12.4052 5.4841 12.1394 14.4408 11.8029 25.7804C11.7402 27.8604 11.6705 30.2198 11.5401 32.6058C11.5272 32.7781 11.5762 32.9494 11.6782 33.0879C11.7802 33.2265 11.9282 33.3231 12.095 33.3599C13.186 33.5777 14.2939 33.6979 15.4058 33.719C16.1982 33.7737 16.9909 33.6175 17.7051 33.2657C17.8095 33.1953 17.8941 33.0985 17.9504 32.985C18.0067 32.8714 18.033 32.745 18.0264 32.6181C17.9739 31.0179 17.794 22.8593 19.3888 19.4378L19.5525 19.0889L19.6697 19.4573C19.958 21.1616 20.1363 22.8831 20.2034 24.6109C20.2034 25.1747 19.3544 28.3802 18.3701 35.3479L18.3438 35.5351C17.0572 44.6412 15.6019 54.9412 15.3118 58.1468C15.2963 58.3002 15.3285 58.4548 15.4041 58.5887C15.4797 58.7227 15.5948 58.8293 15.7333 58.8937C20.3824 59.7154 25.0991 60.0806 29.8176 59.9843H30.1825C34.9042 60.0829 39.6243 59.7162 44.2759 58.8896C44.4125 58.8244 44.5257 58.7178 44.5996 58.5844C44.6735 58.4511 44.7045 58.2977 44.6882 58.1457C44.3941 54.9238 42.9388 44.6238 41.6563 35.5341L41.6341 35.3816C40.6487 28.3945 39.7957 25.1706 39.7957 24.6089C39.8625 22.8807 40.0407 21.1588 40.3293 19.4542L40.4476 19.0859L40.6113 19.4358C42.2061 22.8562 42.0262 31.0158 41.9726 32.616C41.9677 32.7502 41.9985 32.8831 42.0618 33.001C42.1251 33.119 42.2186 33.2175 42.3324 33.2862C43.032 33.6184 43.8029 33.7669 44.574 33.718C45.6911 33.6977 46.8041 33.5772 47.9001 33.3578C48.0682 33.3218 48.2176 33.2252 48.3204 33.0858C48.4232 32.9465 48.4725 32.7741 48.459 32.6007C48.3266 30.2168 48.2558 27.8574 48.1942 25.7773ZM25.5386 1.96036C26.9417 1.57116 28.3949 1.39869 29.849 1.44878H30.2007C31.6379 1.4035 33.0737 1.57593 34.4605 1.96036L34.7 2.02584L34.5323 2.21205C32.7039 4.36317 31.2359 6.80294 30.1865 9.43449L30.0501 9.75678L29.9086 9.43551C28.834 6.79591 27.3341 4.35525 25.4698 2.21308L25.297 2.02686L25.5386 1.96036ZM19.0169 17.6811C18.9583 17.7353 18.8976 17.8049 18.8289 17.8857L18.7753 17.9471C16.6055 20.327 16.6085 29.3041 16.66 32.0052V32.1423L16.5256 32.1597C15.3671 32.309 14.1927 32.2766 13.044 32.0635L12.9136 32.04L12.9207 31.905C13.0217 29.7891 13.0874 27.6937 13.143 25.8458C13.335 19.3212 13.5018 13.7143 15.1198 9.76803L15.2401 9.47439L17.8354 14.2157C18.4094 15.2558 18.8221 16.379 19.0593 17.546L19.0735 17.6279L19.0169 17.6811ZM18.9997 13.479L16.0062 8.01026L16.0557 7.93352C17.2093 6.09473 18.9726 4.73254 21.0291 4.09159L24.253 2.9344L24.3217 3.00193C26.5436 5.41097 28.2624 8.24925 29.375 11.3468L29.3982 11.402L29.377 11.4583C27.9505 15.4874 26.852 19.6279 26.0924 23.8384H21.4535C21.2079 21.7665 20.3883 16.0195 18.9997 13.479ZM22.732 58.3105L22.5764 58.3002C20.6534 58.2083 18.7368 58.0112 16.8349 57.7099L16.6995 57.6812L16.7136 57.5421C16.9006 55.8181 17.8324 49.1522 18.8178 42.1068L18.8734 41.716C19.9921 33.7159 21.1402 27.5453 21.4545 25.3752H25.8084C24.0331 36.2155 23.0071 47.168 22.7381 58.1529L22.732 58.3105ZM41.1257 41.716L41.1874 42.1569C42.1707 49.1839 43.0995 55.8211 43.2845 57.5421L43.2996 57.6823L43.1632 57.7099C38.8627 58.3083 34.5241 58.5819 30.1835 58.5284H29.8166C27.9257 58.5284 26.0014 58.4813 24.0954 58.3862L23.9458 58.379V58.2276C24.2061 47.215 25.2501 36.2358 27.0697 25.3752H38.5425C38.8558 27.5453 40.0049 33.717 41.1237 41.7119L41.1257 41.716ZM38.5425 23.8405H27.3628C29.3477 13.7829 32.1259 6.81112 35.6824 3.00807L35.7501 2.93645L38.9842 4.09772C41.0322 4.74098 42.7875 6.10058 43.9363 7.93352L43.9848 8.01026L43.9414 8.09109L40.9923 13.479C39.6077 16.0195 38.7881 21.7604 38.5425 23.8405ZM46.9531 32.0605C45.805 32.2735 44.6313 32.306 43.4735 32.1566L43.338 32.1393V32.0022C43.3906 29.3061 43.3936 20.3239 41.2227 17.944L41.1712 17.8867C41.1114 17.8153 41.048 17.747 40.9812 17.6821L40.9206 17.6258L40.9357 17.544C41.1726 16.3823 41.5833 15.2641 42.1536 14.228L44.756 9.47234L44.8762 9.76599C46.4933 13.7092 46.659 19.3151 46.8531 25.807V25.9338C46.9107 27.8563 46.9703 29.8443 47.0714 31.9029L47.0784 32.038L46.9531 32.0605Z" fill="#28292F" stroke="#28292F" stroke-width="0.2"/>
</g>
<defs>
<clipPath id="clip0">
<rect width="60" height="60" fill="white"/>
</clipPath>
</defs>
</svg>
