<svg width="60" height="60" viewBox="0 0 60 60" fill="none" xmlns="http://www.w3.org/2000/svg">
<path d="M36.9575 18.5574H36.9844C37.1018 18.5567 37.2179 18.5326 37.3258 18.4867C37.4337 18.4407 37.5311 18.3738 37.6123 18.2898C37.6936 18.2059 37.7569 18.1067 37.7987 17.998C37.8404 17.8894 37.8596 17.7735 37.8553 17.6574V15.9231C37.8596 15.8097 37.8412 15.6966 37.8012 15.5903C37.7612 15.484 37.7003 15.3865 37.6221 15.3035C37.5004 15.1732 37.3411 15.083 37.1658 15.0453C36.9906 15.0075 36.8078 15.024 36.6424 15.0925C36.4769 15.1611 36.3368 15.2783 36.2409 15.4283C36.145 15.5783 36.0981 15.7539 36.1065 15.9312V17.6678C36.1005 17.8973 36.1867 18.1199 36.3463 18.2866C36.5058 18.4534 36.7256 18.5507 36.9575 18.5574ZM31.9711 26.107C31.8636 26.0611 31.7477 26.0375 31.6307 26.0378C31.4588 26.0371 31.2906 26.0867 31.147 26.1803C31.0035 26.2739 30.8911 26.4074 30.8239 26.5639C30.7561 26.7277 30.6404 26.8677 30.4916 26.9659C30.3429 27.0642 30.1679 27.1163 29.9891 27.1154C29.873 27.1162 29.7579 27.0935 29.651 27.0485C29.5399 27.0046 29.4388 26.9391 29.3537 26.8559C29.2686 26.7726 29.2012 26.6734 29.1555 26.5639C29.0887 26.4072 28.9765 26.2736 28.8332 26.1798C28.6899 26.086 28.5217 26.0362 28.3499 26.0366C28.2328 26.0363 28.1169 26.0598 28.0094 26.1058C27.7957 26.1952 27.6266 26.3648 27.5392 26.5775C27.4517 26.7901 27.4531 27.0284 27.5431 27.2401C27.7463 27.7152 28.0864 28.1206 28.521 28.4056C28.9556 28.6906 29.4654 28.8426 29.9868 28.8426C30.5081 28.8426 31.0179 28.6906 31.4525 28.4056C31.8871 28.1206 32.2272 27.7152 32.4305 27.2401C32.4753 27.1352 32.4989 27.0227 32.4997 26.9088C32.5005 26.795 32.4787 26.6821 32.4354 26.5766C32.392 26.4711 32.3281 26.3751 32.2472 26.2942C32.1664 26.2132 32.0702 26.1488 31.9641 26.1047L31.9711 26.107ZM22.9939 18.5239C23.2251 18.5239 23.447 18.433 23.6105 18.2711C23.774 18.1093 23.8659 17.8897 23.8659 17.6608V15.9301C23.8659 15.7005 23.7738 15.4804 23.6098 15.3181C23.4458 15.1559 23.2234 15.0647 22.9915 15.0647C22.7596 15.0647 22.5372 15.1559 22.3732 15.3181C22.2092 15.4804 22.1171 15.7005 22.1171 15.9301V17.6608C22.118 17.8902 22.2109 18.1099 22.3752 18.2717C22.5396 18.4335 22.762 18.5242 22.9939 18.5239ZM28.1482 23.5904C28.6701 24.005 29.3193 24.2309 29.9885 24.2309C30.6577 24.2309 31.3069 24.005 31.8289 23.5904C32.6847 22.9445 33.4198 22.1553 34.0009 21.2585C34.285 20.8001 34.4527 20.2805 34.4896 19.744C34.5266 19.2074 34.4317 18.6701 34.2131 18.1778C33.9979 17.6907 33.6666 17.2626 33.2474 16.9302C32.8283 16.5978 32.3339 16.371 31.8067 16.2693C30.5949 16.1154 29.3682 16.1154 28.1563 16.2693C27.6319 16.3728 27.1405 16.6002 26.724 16.932C26.3075 17.2639 25.9781 17.6905 25.764 18.1754C25.5457 18.6688 25.4513 19.2071 25.4888 19.7444C25.5264 20.2816 25.6948 20.8019 25.9797 21.2608C26.5598 22.1565 27.2937 22.9449 28.1482 23.5904ZM27.3671 18.8678C27.4646 18.6463 27.6131 18.4505 27.8008 18.2961C27.9885 18.1416 28.21 18.0327 28.4478 17.9781C29.4676 17.8535 30.499 17.8535 31.5187 17.9781C31.7591 18.0324 31.9832 18.1416 32.1731 18.2971C32.363 18.4526 32.5135 18.65 32.6123 18.8735C32.7162 19.1044 32.7628 19.3565 32.7482 19.6088C32.7336 19.8611 32.6583 20.1063 32.5284 20.3239C32.049 21.0624 31.4416 21.7112 30.7341 22.2404C30.5234 22.4094 30.2602 22.5011 29.9891 22.5001C29.7033 22.498 29.4273 22.3967 29.2091 22.2139C28.5246 21.699 27.9359 21.07 27.4696 20.3551C27.3324 20.1338 27.2513 19.8829 27.2334 19.6239C27.2156 19.3649 27.2614 19.1054 27.3671 18.8678ZM49.809 45.0843C49.4517 44.7141 49.0563 44.3819 48.6291 44.0931L47.5798 43.387L48.5475 42.5793C49.0724 42.1419 49.4951 41.597 49.7865 40.9823C50.078 40.3676 50.2312 39.6976 50.2357 39.0185C50.2287 36.1916 47.8865 34.6339 46.0012 33.3808L45.3309 32.9297C44.8354 32.5997 44.3352 32.2662 43.8316 31.9385L42.7939 31.2658L43.7091 30.4362C43.9785 30.1928 44.2408 29.9401 44.4553 29.7174C45.9377 28.0452 47.0148 26.0602 47.6045 23.9137C48.1943 21.7671 48.2811 19.5156 47.8585 17.3308C47.6546 16.019 47.2791 14.7391 46.7416 13.5231L46.3813 12.7085L47.1788 12.2966C47.6995 12.0242 48.1903 11.699 48.6431 11.3262C49.1359 10.8825 49.547 10.3574 49.858 9.77429C50.4767 8.57943 50.6816 7.21642 50.4409 5.89506C50.1824 4.56293 49.4637 3.3613 48.408 2.49625C47.3522 1.6312 46.0253 1.15662 44.6547 1.15391C44.4291 1.15438 44.2038 1.16709 43.9796 1.19198C42.9411 1.29525 41.9497 1.67255 41.1089 2.28449C40.2681 2.89643 39.6086 3.72056 39.1995 4.67083L38.8241 5.54314L37.9404 5.17852C36.8719 4.73586 35.7648 4.39095 34.6328 4.14814C33.1557 3.83909 31.6504 3.68172 30.1407 3.67852H30.0241L29.8084 3.6716C28.3126 3.67849 26.8215 3.83662 25.3582 4.14352C24.2246 4.38585 23.1159 4.73077 22.046 5.17391L21.1623 5.53852L20.788 4.66621C20.3791 3.71573 19.7197 2.89136 18.8789 2.27921C18.038 1.66705 17.0465 1.28958 16.0079 1.18621C15.786 1.16344 15.563 1.15265 15.3399 1.15391C13.9703 1.1554 12.6439 1.62818 11.5878 2.49125C10.5317 3.35432 9.8118 4.55397 9.5513 5.88468C9.30795 7.2039 9.5095 8.56571 10.1249 9.76045C10.4304 10.3348 10.8321 10.8537 11.3129 11.2951C11.7776 11.6772 12.2817 12.0098 12.8169 12.2874L13.612 12.6993L13.253 13.5139C12.7124 14.7404 12.335 16.0312 12.1302 17.3539C11.7125 19.5276 11.7998 21.7668 12.3856 23.9022C12.9713 26.0376 14.0402 28.0131 15.5113 29.6793C15.7561 29.9331 16.0173 30.1858 16.2877 30.4293L17.2029 31.2589L16.1653 31.9316C15.6605 32.2593 15.1603 32.5928 14.6672 32.9228L13.991 33.3762C12.1092 34.627 9.76816 36.1847 9.76116 39.0035C9.76476 39.6848 9.91779 40.3571 10.2097 40.9741C10.5015 41.5911 10.9253 42.138 11.4517 42.577L12.4205 43.3847L11.3712 44.0908C10.9499 44.3758 10.5592 44.7029 10.2054 45.067C9.40545 45.9272 8.80648 46.951 8.45087 48.0659C8.09526 49.1807 7.99172 50.3593 8.14759 51.5181C8.36498 53.1604 9.07775 54.6996 10.1928 55.9346C11.3078 57.1697 12.7733 58.0433 14.3979 58.4412C15.3456 58.7102 16.3266 58.8472 17.3125 58.8485C19.7505 58.7535 22.138 58.1321 24.3078 57.0278L24.5969 56.9354H24.7846C24.9768 56.9357 25.1665 56.9787 25.3396 57.0612C26.6275 57.6783 28.0273 58.0338 29.4563 58.1066L29.5566 58.1124L29.6452 58.1354C29.6452 58.1354 29.9168 58.1193 30.0078 58.1193C30.0765 58.1193 30.3575 58.1331 30.3575 58.1331L30.4461 58.1112H30.5359C31.9617 58.0397 33.3586 57.6867 34.6444 57.0728C34.8194 56.988 35.0116 56.9438 35.2064 56.9435L35.5562 56.9666L35.7625 57.0704C37.9006 58.1493 40.25 58.7552 42.6482 58.8462H42.6645C43.6703 58.8454 44.671 58.7052 45.6375 58.4297C47.255 58.0279 48.7129 57.1535 49.8214 55.9204C50.9299 54.6873 51.6378 53.1525 51.8528 51.5158C52.0083 50.3611 51.9059 49.1867 51.5527 48.0754C51.1996 46.9641 50.6044 45.9431 49.809 45.0843ZM50.1203 51.2989C49.951 52.5887 49.3934 53.7982 48.5201 54.7702C47.6468 55.7421 46.4981 56.4314 45.2236 56.7485L45.1933 56.7566L45.163 56.7647C44.3571 56.9937 43.5228 57.1102 42.6843 57.1108C40.5515 57.0229 38.4633 56.4785 36.5635 55.5151L36.3571 55.4101L36.0342 55.2474L35.6728 55.2243L35.323 55.2024H35.2111C34.7529 55.2024 34.3007 55.3058 33.889 55.5047C32.8123 56.0191 31.6425 56.3153 30.4485 56.3758H30.3587L30.199 56.3851H30.1896L30.0101 56.3793C29.9681 56.3793 29.8935 56.3793 29.8236 56.3851L29.6603 56.3758L29.5507 56.3689C28.3584 56.3089 27.1902 56.0135 26.1149 55.5001C25.7014 55.3001 25.2472 55.1959 24.787 55.1954H24.3206L24.0606 55.2785L23.7703 55.3708L23.6363 55.4135L23.5092 55.4781C21.5765 56.4615 19.452 57.02 17.2811 57.1154C16.4674 57.1115 15.6581 56.9969 14.8759 56.7751L14.8444 56.7658L14.8129 56.7589C13.5312 56.4438 12.375 55.7541 11.4948 54.7797C10.6146 53.8053 10.0511 52.5912 9.87775 51.2954C9.75515 50.394 9.83346 49.4769 10.1072 48.6086C10.3809 47.7403 10.8434 46.9418 11.4622 46.2693C11.7317 45.9921 12.0294 45.7431 12.3506 45.5262L13.3999 44.8189L15.2991 43.5347L13.5421 42.0647L12.5744 41.257C12.2437 40.9812 11.9771 40.6381 11.7928 40.2509C11.6085 39.8638 11.5108 39.4418 11.5065 39.0139C11.5065 37.2497 12.9417 36.1628 14.9691 34.8139L15.643 34.3628C16.1303 34.0362 16.6235 33.7074 17.1202 33.3843L18.1578 32.7116L20.0395 31.4908L18.3793 29.9908L17.4594 29.1578C17.2263 28.9512 17.0082 28.7366 16.7996 28.5208C15.5063 27.0451 14.5693 25.2975 14.0595 23.4104C13.5497 21.5233 13.4804 19.5461 13.8569 17.6285C14.0395 16.4526 14.375 15.3051 14.8549 14.2143L15.214 13.3997L15.8645 11.9228L14.4212 11.1751L13.626 10.762C13.2137 10.5495 12.825 10.295 12.466 10.0028C12.1492 9.7058 11.8834 9.35973 11.679 8.97814C11.2404 8.1279 11.0958 7.1587 11.2675 6.21929C11.449 5.28173 11.9548 4.43602 12.698 3.82749C13.4412 3.21895 14.3753 2.88558 15.3399 2.88468C15.5035 2.88502 15.667 2.89465 15.8295 2.91352C16.5572 2.98496 17.2522 3.24862 17.8416 3.67692C18.4311 4.10522 18.8934 4.68242 19.1803 5.34814L19.5557 6.22045L20.2366 7.80352L21.8396 7.14006L22.7234 6.77429C23.6926 6.37373 24.6967 6.06129 25.7232 5.84083C27.0597 5.56135 28.4214 5.416 29.7874 5.40698L29.9693 5.41275H30.1756C31.5501 5.41893 32.9205 5.56313 34.2655 5.84314C35.2937 6.06357 36.2993 6.37641 37.27 6.77775L38.1526 7.14352L39.7568 7.80698L40.4365 6.22506L40.8119 5.35045C41.0993 4.68377 41.5628 4.10593 42.1535 3.67756C42.7443 3.24919 43.4407 2.98608 44.1697 2.91583C44.3307 2.89764 44.4926 2.88839 44.6547 2.88814C45.6169 2.88906 46.5488 3.2209 47.2911 3.82689C48.0333 4.43287 48.5397 5.27532 48.7236 6.21006C48.896 7.14947 48.7526 8.11891 48.3155 8.97006C48.1049 9.36458 47.829 9.72143 47.4994 10.0258C47.1492 10.3069 46.7715 10.5528 46.372 10.7597L45.5745 11.1716L44.1277 11.9193L44.7806 13.3985L45.1408 14.2143C45.6247 15.3106 45.961 16.4651 46.1411 17.6481C46.5115 19.5692 46.436 21.5485 45.9201 23.4365C45.4043 25.3244 44.4617 27.0717 43.1635 28.5462C42.9793 28.7366 42.7566 28.9501 42.5281 29.1566L41.6129 29.9851L39.9527 31.4851L41.8356 32.7058L42.8709 33.3774C43.3687 33.7016 43.863 34.0304 44.348 34.3547L45.0254 34.8162C47.0494 36.1616 48.4822 37.2508 48.4869 39.0081C48.4839 39.4372 48.3867 39.8606 48.2021 40.2489C48.0175 40.6371 47.7499 40.9811 47.4178 41.257L46.4501 42.0647L44.6931 43.5347L46.5935 44.8166L47.6428 45.5239C47.9596 45.7369 48.2534 45.9817 48.5195 46.2543C49.1434 46.9277 49.6099 47.7287 49.8862 48.6005C50.1624 49.4723 50.2415 50.3935 50.118 51.2989H50.1203ZM19.9626 45.0185C19.9043 45.0063 19.8449 45.0001 19.7854 45.0001C19.5679 45.0012 19.3588 45.0825 19.1986 45.228C19.0385 45.3735 18.9388 45.5729 18.9192 45.7872C18.8995 46.0015 18.9612 46.2153 19.0923 46.387C19.2233 46.5587 19.4143 46.676 19.628 46.7158C19.762 46.7435 22.9239 47.4485 22.7315 52.3893C22.7286 52.5053 22.749 52.6207 22.7915 52.7288C22.8339 52.8369 22.8977 52.9356 22.9791 53.0191C23.0604 53.1026 23.1577 53.1693 23.2653 53.2153C23.373 53.2613 23.4887 53.2856 23.6059 53.287H23.6118C23.835 53.2852 24.049 53.199 24.2101 53.046C24.3712 52.8931 24.467 52.6849 24.478 52.4643C24.584 51.3561 24.4518 50.2383 24.0901 49.1843C23.7284 48.1303 23.1454 47.164 22.3794 46.3489C21.708 45.7002 20.8736 45.2409 19.9626 45.0185ZM40.6242 45.112C40.4941 45.0365 40.346 44.9967 40.1952 44.9966C40.1364 44.996 40.0777 45.0022 40.0203 45.0151L39.8268 45.0681C38.9872 45.3085 38.2207 45.7505 37.5953 46.3547C36.8323 47.1691 36.2517 48.1338 35.8915 49.1857C35.5313 50.2375 35.3995 51.3528 35.5049 52.4585C35.513 52.6818 35.6086 52.8931 35.7713 53.0479C35.934 53.2027 36.1512 53.2889 36.3769 53.2881H36.4119C36.5267 53.2835 36.6394 53.2566 36.7436 53.2089C36.8479 53.1612 36.9416 53.0936 37.0194 53.01C37.0973 52.9264 37.1577 52.8285 37.1973 52.7218C37.2369 52.6151 37.2549 52.5017 37.2502 52.3881C37.0613 47.5108 40.2267 46.7412 40.3631 46.7101C40.4758 46.6875 40.5829 46.6431 40.6782 46.5795C40.7735 46.5158 40.8551 46.4341 40.9184 46.3391C40.9817 46.2441 41.0253 46.1376 41.0469 46.0258C41.0684 45.914 41.0674 45.7991 41.0439 45.6878C41.0169 45.5695 40.9659 45.4578 40.8942 45.3595C40.8225 45.2611 40.7315 45.1781 40.6266 45.1154L40.6242 45.112ZM35.6762 44.8812C35.6166 44.7835 35.5371 44.6991 35.4428 44.6334C35.3484 44.5676 35.2414 44.522 35.1283 44.4993C35.0643 44.4858 34.999 44.4788 34.9336 44.4785C34.7244 44.4811 34.5228 44.5564 34.3641 44.6911C34.2053 44.8259 34.0994 45.0116 34.065 45.2158C33.9011 45.8582 33.5265 46.4287 32.9999 46.8377C32.4733 47.2468 31.8244 47.4713 31.155 47.4762H28.9282C28.1292 47.469 27.365 47.1515 26.8002 46.5921C26.2354 46.0327 25.9152 45.2762 25.9085 44.4854V42.2147C25.9174 41.425 26.2386 40.6703 26.8034 40.1124C27.3682 39.5545 28.1314 39.238 28.9293 39.2308H31.1713C31.8506 39.2276 32.5104 39.4548 33.0408 39.8748C33.5712 40.2947 33.9401 40.882 34.086 41.5385C34.133 41.7249 34.2416 41.8904 34.3946 42.0087C34.5475 42.127 34.736 42.1914 34.9301 42.1916C35.0037 42.1918 35.077 42.1825 35.1481 42.1639C35.3662 42.1104 35.5548 41.9753 35.6744 41.787C35.7939 41.5988 35.8352 41.372 35.7893 41.1543C35.558 40.113 34.9725 39.1819 34.1306 38.5167C33.2887 37.8515 32.2416 37.4926 31.1643 37.5001H28.9398C27.675 37.5031 26.4627 38.0009 25.5673 38.8849C24.6718 39.769 24.1659 40.9676 24.1597 42.2193V44.4901C24.1656 45.742 24.6714 46.9409 25.5669 47.8252C26.4623 48.7094 27.6748 49.2074 28.9398 49.2104H31.155C32.2331 49.2087 33.2786 48.8445 34.1202 48.1777C34.9617 47.5108 35.5495 46.5808 35.787 45.5401C35.8138 45.4292 35.818 45.3141 35.7994 45.2016C35.7808 45.089 35.7397 44.9813 35.6786 44.8847L35.6762 44.8812Z" fill="#28292F"/>
</svg>
