<svg width="60" height="60" viewBox="0 0 60 60" fill="none" xmlns="http://www.w3.org/2000/svg">
<path d="M30.6429 14.3077C30.0424 14.6306 29.5353 15.1029 29.1704 15.6789C28.8056 16.2549 28.5955 16.9152 28.5602 17.5961C28.5602 17.8256 28.6513 18.0457 28.8136 18.208C28.9759 18.3703 29.196 18.4615 29.4256 18.4615C29.6551 18.4615 29.8752 18.3703 30.0375 18.208C30.1998 18.0457 30.2909 17.8256 30.2909 17.5961C30.2909 16.755 30.7894 16.3465 31.6698 15.6969C32.2709 15.3735 32.7785 14.9006 33.1433 14.3237C33.5082 13.7468 33.718 13.0855 33.7525 12.4038C33.7174 11.7228 33.5073 11.0624 33.1425 10.4864C32.7777 9.91033 32.2704 9.43811 31.6698 9.11535C30.7894 8.46573 30.2909 8.05727 30.2909 7.21612C30.2909 6.37496 30.7894 5.9665 31.6698 5.31689C32.2717 4.99332 32.7798 4.51966 33.1447 3.94186C33.5096 3.36406 33.719 2.70175 33.7525 2.01919C33.7525 1.78968 33.6613 1.56956 33.499 1.40727C33.3367 1.24498 33.1166 1.15381 32.8871 1.15381C32.6576 1.15381 32.4375 1.24498 32.2752 1.40727C32.1129 1.56956 32.0217 1.78968 32.0217 2.01919C32.0217 2.86035 31.5233 3.26881 30.6429 3.91842C30.0416 4.24159 29.5339 4.71453 29.1691 5.29146C28.8042 5.86838 28.5945 6.52974 28.5602 7.2115C28.5952 7.89246 28.8053 8.55287 29.1702 9.12892C29.535 9.70498 30.0422 10.1772 30.6429 10.5C31.5233 11.1496 32.0217 11.558 32.0217 12.3992C32.0217 13.2403 31.5233 13.6534 30.6429 14.3077ZM42.1813 16.6153C41.5808 16.9383 41.0737 17.4106 40.7089 17.9866C40.3441 18.5626 40.1339 19.2229 40.0986 19.9038C40.0986 20.1333 40.1898 20.3534 40.3521 20.5157C40.5144 20.678 40.7345 20.7692 40.964 20.7692C41.1935 20.7692 41.4136 20.678 41.5759 20.5157C41.7382 20.3534 41.8294 20.1333 41.8294 19.9038C41.8294 19.0627 42.3279 18.6542 43.2082 18.0046C43.8094 17.6812 44.3169 17.2083 44.6818 16.6314C45.0466 16.0545 45.2564 15.3932 45.2909 14.7115C45.256 14.0305 45.0459 13.3701 44.6811 12.794C44.3163 12.2179 43.809 11.7457 43.2082 11.423C42.3279 10.7734 41.8294 10.365 41.8294 9.52381C41.8294 8.68265 42.3279 8.27419 43.2082 7.62458C43.8102 7.30101 44.3182 6.82735 44.6832 6.24955C45.0481 5.67176 45.2574 5.00945 45.2909 4.32689C45.2909 4.09737 45.1998 3.87726 45.0375 3.71497C44.8752 3.55268 44.6551 3.4615 44.4256 3.4615C44.196 3.4615 43.9759 3.55268 43.8136 3.71497C43.6513 3.87726 43.5602 4.09737 43.5602 4.32689C43.5602 5.16804 43.0617 5.5765 42.1813 6.22612C41.58 6.54928 41.0724 7.02222 40.7075 7.59915C40.3426 8.17607 40.1329 8.83743 40.0986 9.51919C40.1336 10.2002 40.3436 10.8606 40.7085 11.4367C41.0733 12.0128 41.5806 12.485 42.1813 12.8077C43.0617 13.4573 43.5602 13.8657 43.5602 14.7069C43.5602 15.548 43.0617 15.9611 42.1813 16.6153ZM19.1044 16.6153C18.5039 16.9383 17.9968 17.4106 17.632 17.9866C17.2672 18.5626 17.057 19.2229 17.0217 19.9038C17.0217 20.1333 17.1129 20.3534 17.2752 20.5157C17.4375 20.678 17.6576 20.7692 17.8871 20.7692C18.1166 20.7692 18.3367 20.678 18.499 20.5157C18.6613 20.3534 18.7525 20.1333 18.7525 19.9038C18.7525 19.0627 19.2509 18.6542 20.1313 18.0046C20.7325 17.6812 21.24 17.2083 21.6048 16.6314C21.9697 16.0545 22.1795 15.3932 22.214 14.7115C22.1791 14.0305 21.969 13.3701 21.6042 12.794C21.2393 12.2179 20.732 11.7457 20.1313 11.423C19.2509 10.7734 18.7525 10.365 18.7525 9.52381C18.7525 8.68265 19.2509 8.27419 20.1313 7.62458C20.7333 7.30101 21.2413 6.82735 21.6062 6.24955C21.9711 5.67176 22.1805 5.00945 22.214 4.32689C22.214 4.09737 22.1228 3.87726 21.9606 3.71497C21.7983 3.55268 21.5781 3.4615 21.3486 3.4615C21.1191 3.4615 20.899 3.55268 20.7367 3.71497C20.5744 3.87726 20.4832 4.09737 20.4832 4.32689C20.4832 5.16804 19.9848 5.5765 19.1044 6.22612C18.5031 6.54928 17.9955 7.02222 17.6306 7.59915C17.2657 8.17607 17.056 8.83743 17.0217 9.51919C17.0567 10.2002 17.2667 10.8606 17.6316 11.4367C17.9964 12.0128 18.5037 12.485 19.1044 12.8077C19.9848 13.4573 20.4832 13.8657 20.4832 14.7069C20.4832 15.548 19.9848 15.9611 19.1044 16.6153ZM6.34863 50.4807C6.57815 50.4807 6.79826 50.3896 6.96055 50.2273C7.12284 50.065 7.21402 49.8449 7.21402 49.6153C7.21402 43.5715 9.61494 37.7751 13.8886 33.5015C18.1623 29.2278 23.9586 26.8269 30.0025 26.8269C36.0464 26.8269 41.8427 29.2278 46.1164 33.5015C50.39 37.7751 52.7909 43.5715 52.7909 49.6153C52.7909 49.8449 52.8821 50.065 53.0444 50.2273C53.2067 50.3896 53.4268 50.4807 53.6563 50.4807C53.8858 50.4807 54.106 50.3896 54.2682 50.2273C54.4305 50.065 54.5217 49.8449 54.5217 49.6153C54.5112 44.0633 52.6189 38.6788 49.1538 34.3409C45.6887 30.0029 40.8554 26.9677 35.4429 25.7307C35.2952 22.9246 32.5652 21.0577 30.0025 21.0577C27.4398 21.0577 24.7098 22.9246 24.5621 25.725C19.1486 26.9621 14.3146 29.9982 10.8494 34.3374C7.38413 38.6765 5.49245 44.0623 5.48325 49.6153C5.48325 49.8449 5.57442 50.065 5.73671 50.2273C5.89901 50.3896 6.11912 50.4807 6.34863 50.4807ZM30.0025 22.7884C30.8136 22.7615 31.611 23.0026 32.2713 23.4744C32.9316 23.9462 33.4181 24.6224 33.6556 25.3984C32.4471 25.207 31.226 25.1059 30.0025 25.0961C28.7797 25.1059 27.5594 25.2069 26.3517 25.3984C26.5977 24.6281 27.086 23.9578 27.7439 23.4875C28.4018 23.0172 29.194 22.772 30.0025 22.7884ZM58.3698 49.7065C58.1644 49.604 57.9268 49.5872 57.7091 49.66C57.4914 49.7327 57.3115 49.8889 57.209 50.0942C56.3886 51.735 55.4425 52.5 54.2332 52.5H5.77171C4.56248 52.5 3.61633 51.735 2.79594 50.0942C2.74572 49.9916 2.67569 49.9 2.5899 49.8246C2.5041 49.7492 2.40423 49.6916 2.29604 49.655C2.18786 49.6184 2.07349 49.6035 1.95955 49.6114C1.84561 49.6192 1.73434 49.6494 1.63216 49.7005C1.52997 49.7515 1.4389 49.8222 1.36418 49.9086C1.28947 49.995 1.23259 50.0953 1.19683 50.2038C1.16107 50.3122 1.14714 50.4267 1.15583 50.5406C1.16452 50.6545 1.19567 50.7655 1.24748 50.8673C2.36325 53.1 3.88517 54.2307 5.77171 54.2307H11.8559C11.9956 57.0392 14.0932 58.8461 17.3102 58.8461H42.6948C45.9117 58.8461 48.0094 57.0392 48.149 54.2307H54.2332C56.1198 54.2307 57.6417 53.1 58.7575 50.8673C58.86 50.6619 58.8767 50.4243 58.804 50.2066C58.7313 49.9889 58.5751 49.809 58.3698 49.7065ZM42.6948 57.1153H17.3102C16.4609 57.1153 13.7644 56.895 13.5786 54.2307H46.4263C46.2406 56.895 43.544 57.1153 42.6948 57.1153Z" fill="#28292F"/>
</svg>
