<svg width="92" height="68" viewBox="0 0 92 68" fill="none" xmlns="http://www.w3.org/2000/svg">
<path d="M7.05566 67H84.945" stroke="#28292F" stroke-miterlimit="10"/>
<path d="M77.2321 66.9999C75.7049 57.8964 84.7919 32.1034 90.1373 37.4137C95.4826 42.7241 74.4067 45.3792 70.2831 41.9654C65.7014 38.1723 65.1669 13.2138 74.1012 15.4138C83.2647 17.6896 65.396 40.5999 54.2471 36.6551C43.5564 32.862 36.0729 1 46 1C55.9271 1 48.4436 32.862 37.7529 36.6551C26.604 40.5999 8.7353 17.6896 17.8988 15.4138C26.8331 13.2138 26.2986 38.1723 21.7169 41.9654C17.5933 45.3792 -3.48263 42.7241 1.86272 37.4137C7.20806 32.1034 16.2951 57.8964 14.7679 66.9999" stroke="#28292F" stroke-miterlimit="10"/>
<path d="M46.1538 60.1725C41.1903 60.1725 38.5176 57.138 38.5176 52.207C38.5176 46.8208 46.1538 41.207 46.1538 41.207C46.1538 41.207 53.0264 46.745 53.0264 52.207C53.0264 56.7587 51.27 60.1725 46.1538 60.1725Z" stroke="#28292F" stroke-miterlimit="10"/>
</svg>
