<svg width="100" height="77" viewBox="0 0 100 77" fill="none" xmlns="http://www.w3.org/2000/svg">
<g clip-path="url(#clip0)">
<path d="M16.6307 57.6381V49.6035C16.6284 48.287 16.1061 47.0251 15.1782 46.0942C14.2504 45.1633 12.9926 44.6393 11.6803 44.6371H8.40605C7.09384 44.6393 5.83603 45.1633 4.90816 46.0942C3.98029 47.0251 3.45801 48.287 3.45572 49.6035V57.6381H0V76.9231H20.0864V57.6381H16.6307ZM8.40605 45.7205H11.6803C12.7061 45.7228 13.6893 46.1326 14.4146 46.8603C15.14 47.588 15.5485 48.5743 15.5508 49.6035V57.6381H4.53564V49.6035C4.53792 48.5743 4.94643 47.588 5.67177 46.8603C6.39712 46.1326 7.38025 45.7228 8.40605 45.7205ZM1.07991 75.8397V58.7216H19.0065V75.8397H1.07991ZM91.1447 0H18.7905C16.4426 0.00229469 14.1916 0.93903 12.5314 2.60462C10.8712 4.27021 9.93749 6.52857 9.93521 8.88407V35.3196H11.0151V19.7183H66.5227C66.7559 24.104 69.8143 27.519 73.5119 27.519C74.5284 27.5063 75.5276 27.2533 76.4282 26.7804C77.3289 26.3075 78.1057 25.6281 78.6955 24.7974C79.2862 25.6271 80.0632 26.3058 80.9636 26.7785C81.8641 27.2513 82.8628 27.505 83.879 27.519C87.5853 27.519 90.6436 24.104 90.8769 19.7183H98.8942V52.8711C98.8942 54.9399 98.075 56.9241 96.6168 58.387C95.1586 59.8499 93.1809 60.6717 91.1188 60.6717H28.5097V61.7551H91.1447C93.4926 61.7529 95.7436 60.8161 97.4038 59.1505C99.064 57.4849 99.9977 55.2266 100 52.8711V8.88407C99.9977 6.52857 99.064 4.27021 97.4038 2.60462C95.7436 0.93903 93.4926 0.00229469 91.1447 0V0ZM83.905 26.4355C82.9381 26.4049 81.9955 26.1238 81.169 25.6195C80.3424 25.1153 79.6599 24.4051 79.1879 23.558L78.7214 22.8212L78.2635 23.558C77.7907 24.4063 77.1069 25.1173 76.2787 25.6216C75.4505 26.126 74.5062 26.4064 73.5378 26.4355C70.2635 26.4355 67.6026 23.1766 67.6026 19.1723C67.6026 15.1679 70.2635 11.9177 73.5378 11.9177C74.5062 11.9468 75.4505 12.2272 76.2787 12.7315C77.1069 13.2359 77.7907 13.9469 78.2635 14.7952L78.7214 15.532L79.1879 14.7952C79.6599 13.9481 80.3424 13.2379 81.169 12.7336C81.9955 12.2294 82.9381 11.9483 83.905 11.9177C87.1879 11.9177 89.8488 15.1766 89.8488 19.1723C89.8488 23.1679 87.1879 26.4355 83.905 26.4355ZM78.7214 13.5558C78.1316 12.7251 77.3549 12.0457 76.4542 11.5728C75.5535 11.0999 74.5543 10.8469 73.5378 10.8342C69.8402 10.8342 66.7819 14.2492 66.5486 18.6349H11.0151V8.88407C11.0151 6.81521 11.8343 4.83109 13.2925 3.36818C14.7506 1.90528 16.7283 1.08342 18.7905 1.08342H91.1447C93.2069 1.08342 95.1846 1.90528 96.6427 3.36818C98.1009 4.83109 98.9201 6.81521 98.9201 8.88407V18.6349H90.9028C90.6695 14.2492 87.6112 10.8342 83.905 10.8342C82.8887 10.8482 81.89 11.1019 80.9896 11.5747C80.0891 12.0474 79.3121 12.7261 78.7214 13.5558Z" fill="#28292F"/>
</g>
<defs>
<clipPath id="clip0">
<rect width="100" height="76.9231" fill="white"/>
</clipPath>
</defs>
</svg>
