<svg width="90" height="84" viewBox="0 0 90 84" fill="none" xmlns="http://www.w3.org/2000/svg">
<path d="M79.6674 36.5303V78.9317C79.6674 80.9206 78.036 82.548 76.042 82.548H13.9574C11.9635 82.548 10.332 80.9206 10.332 78.9317V36.4399" stroke="#28292F" stroke-miterlimit="10"/>
<path d="M0 82.6387H90" stroke="#28292F" stroke-miterlimit="10"/>
<path d="M6.52539 29.4786V24.7774L18.8517 1.45215H70.1508L83.5647 24.7774V29.4786" stroke="#28292F" stroke-miterlimit="10"/>
<path d="M68.157 32.1006V68.4446C68.157 70.4335 66.7975 71.9705 64.8035 71.9705H25.6494C23.6555 71.9705 21.8428 70.3431 21.8428 68.4446V32.1006" stroke="#28292F" stroke-miterlimit="10"/>
<path d="M47.4922 51.1768L61.0874 65.642" stroke="#28292F" stroke-miterlimit="10"/>
<path d="M56.5557 52.9844L62.3563 59.4937" stroke="#28292F" stroke-miterlimit="10"/>
<path d="M6.52539 29.479C6.52539 33.9994 9.9695 37.6157 14.2293 37.6157C18.4891 37.6157 21.9332 33.9994 21.9332 29.479" stroke="#28292F" stroke-miterlimit="10"/>
<path d="M21.9336 29.4785C21.9336 33.9989 25.3777 37.6152 29.6375 37.6152C33.8973 37.6152 37.3414 33.9989 37.3414 29.4785" stroke="#28292F" stroke-miterlimit="10"/>
<path d="M37.3418 29.4785C37.3418 33.9989 40.7859 37.6152 45.0457 37.6152C49.3055 37.6152 52.7497 33.9989 52.7497 29.4785" stroke="#28292F" stroke-miterlimit="10"/>
<path d="M52.749 29.4785C52.749 33.9989 56.1931 37.6152 60.4529 37.6152C64.7128 37.6152 68.1569 33.9989 68.1569 29.4785" stroke="#28292F" stroke-miterlimit="10"/>
<path d="M68.1572 29.4785C68.1572 33.9989 71.6013 37.6152 75.8612 37.6152C80.121 37.6152 83.5651 33.9989 83.5651 29.4785" stroke="#28292F" stroke-miterlimit="10"/>
</svg>
